<?xml version="1.0" standalone="no"?>
<!DOCTYPE svg PUBLIC "-//W3C//DTD SVG 20010904//EN"
 "http://www.w3.org/TR/2001/REC-SVG-20010904/DTD/svg10.dtd">
<svg version="1.0" xmlns="http://www.w3.org/2000/svg"
 width="2999.000000pt" height="1610.000000pt" viewBox="0 0 2999.000000 1610.000000"
 preserveAspectRatio="xMidYMid meet">

<g transform="translate(0.000000,1610.000000) scale(0.100000,-0.100000)"
fill="#000000" stroke="none">
<path d="M27580 16069 c-36 -4 -78 -12 -95 -19 -16 -6 -59 -16 -95 -21 -77
-11 -178 -42 -240 -75 -25 -13 -79 -39 -121 -57 -98 -44 -169 -91 -246 -161
-87 -80 -145 -204 -173 -370 -12 -77 -33 -108 -68 -104 -37 4 -40 35 -9 101
43 90 69 253 45 283 -48 61 -70 74 -119 74 -55 0 -114 -25 -167 -71 -17 -16
-55 -38 -82 -50 -73 -31 -65 -70 19 -94 34 -10 36 -13 33 -50 -15 -223 -15
-231 8 -276 46 -91 84 -113 188 -111 86 2 90 -4 72 -81 -7 -29 -13 -77 -15
-107 -3 -58 -35 -180 -79 -295 -15 -38 -33 -88 -41 -110 -7 -22 -36 -91 -64
-154 -40 -89 -51 -124 -51 -165 0 -28 4 -56 8 -62 16 -26 79 -54 119 -54 l41
0 -2 -87 c-1 -62 -7 -98 -19 -120 -22 -41 -21 -55 3 -86 17 -22 20 -40 20
-145 0 -115 1 -122 26 -151 40 -48 54 -52 131 -41 66 9 70 9 141 -25 63 -30
75 -40 92 -77 23 -50 26 -125 6 -171 -41 -96 -146 -132 -417 -142 -342 -13
-516 -25 -579 -39 -36 -9 -94 -18 -130 -21 -68 -6 -277 -68 -394 -117 -96 -40
-205 -132 -267 -224 -68 -102 -135 -248 -158 -347 -11 -45 -28 -118 -39 -162
-11 -44 -30 -125 -42 -180 -12 -55 -26 -118 -32 -140 -5 -22 -14 -68 -18 -102
-5 -35 -14 -72 -20 -82 -5 -11 -10 -29 -10 -40 0 -11 -6 -35 -14 -53 -21 -50
-37 -100 -43 -128 -3 -14 -25 -75 -49 -136 -24 -61 -44 -116 -44 -122 0 -6
-47 -117 -105 -246 -58 -129 -105 -237 -105 -241 0 -3 -11 -30 -23 -58 -44
-97 -57 -132 -92 -252 -45 -156 -60 -198 -89 -243 -57 -88 -110 -115 -496
-247 -230 -79 -496 -186 -555 -223 -22 -14 -83 -48 -135 -75 -52 -27 -108 -59
-125 -71 -47 -34 -259 -153 -400 -224 -27 -14 -61 -33 -75 -42 -57 -40 -275
-142 -412 -194 -163 -61 -291 -88 -448 -92 -52 -2 -105 -6 -117 -9 -13 -3
-108 2 -211 11 -180 15 -283 14 -405 -4 -31 -4 -63 -5 -70 0 -9 6 -12 360 -13
1680 -1 1596 -11 3373 -20 3598 -2 58 -8 200 -12 315 -9 239 -10 244 -97 335
-29 30 -60 69 -70 87 l-19 32 50 56 c27 31 58 68 69 83 11 15 32 43 46 62 44
59 176 293 192 340 8 25 26 70 40 101 26 59 50 171 41 194 -23 60 -168 -21
-279 -157 -160 -196 -173 -214 -287 -424 -118 -218 -168 -291 -282 -419 -74
-82 -108 -144 -121 -219 -11 -58 -26 -93 -84 -191 -61 -104 -74 -136 -100
-240 -26 -104 -28 -122 -16 -134 23 -23 85 11 130 72 80 108 89 123 186 306
62 116 198 241 263 241 38 0 84 -36 97 -77 17 -58 18 -124 25 -1808 7 -1868 6
-2384 -5 -3750 l-1 -140 -73 -31 c-39 -17 -88 -37 -107 -44 -19 -7 -64 -23
-100 -37 -36 -13 -98 -28 -138 -33 -109 -12 -125 -35 -74 -106 17 -24 47 -47
73 -59 67 -29 79 -42 79 -90 0 -35 7 -50 40 -88 34 -38 40 -52 40 -89 0 -34 8
-55 34 -92 18 -26 36 -65 40 -86 4 -25 20 -56 46 -85 22 -25 40 -56 40 -68 0
-31 27 -67 62 -81 l29 -13 2 -2734 2 -2735 -46 -54 c-158 -186 -183 -440 -61
-621 40 -58 66 -82 89 -77 16 3 19 17 23 123 7 156 16 173 110 194 41 9 45 8
77 -24 28 -28 33 -40 33 -78 0 -44 18 -77 42 -77 26 0 71 47 108 114 22 41 46
76 53 78 12 5 27 3 214 -23 73 -10 97 -10 119 -1 l26 13 -2 262 c-2 352 7 560
30 692 11 60 20 134 20 163 0 30 7 80 15 112 8 32 19 102 25 156 10 97 18 149
41 269 6 33 12 80 14 105 1 25 10 71 19 102 10 32 15 66 12 76 -4 10 0 35 9
55 8 20 15 53 15 74 0 21 7 56 15 78 8 22 14 58 15 80 0 22 7 51 15 65 8 14
15 48 15 75 0 28 7 79 16 115 9 36 16 78 16 94 -1 16 5 41 12 55 7 14 16 56
19 93 4 38 11 77 17 88 6 11 15 45 21 75 5 30 16 67 24 82 8 16 15 41 15 56 0
31 40 181 63 237 8 19 18 55 22 80 4 25 16 57 26 71 10 14 28 54 40 90 12 35
25 69 29 74 4 6 15 33 24 62 15 46 15 55 3 75 -8 13 -20 45 -26 73 -7 27 -16
54 -21 60 -4 5 -15 33 -24 60 -8 28 -25 75 -36 105 -17 46 -20 76 -18 180 1
85 6 131 15 145 7 11 13 31 13 45 0 14 4 30 9 36 14 13 43 121 49 178 2 29 12
56 23 67 11 11 31 45 45 77 14 31 35 68 48 82 13 14 41 52 63 85 47 70 172
192 235 229 67 39 191 76 256 76 40 0 73 -8 110 -25 30 -14 61 -25 69 -25 21
0 63 -41 63 -62 0 -21 -79 -91 -128 -112 -20 -10 -44 -21 -52 -26 -8 -5 -29
-16 -46 -24 -125 -56 -404 -341 -404 -412 0 -11 -4 -24 -9 -30 -25 -24 -42
-166 -40 -336 0 -95 -4 -215 -11 -267 -6 -52 -9 -112 -6 -135 3 -23 6 -162 7
-311 1 -206 -3 -288 -14 -345 -9 -41 -18 -147 -22 -235 -4 -94 -14 -198 -26
-252 -10 -51 -19 -110 -19 -130 0 -21 -7 -63 -15 -93 -8 -30 -18 -86 -21 -125
-3 -38 -15 -105 -25 -147 -11 -43 -22 -106 -25 -140 -3 -35 -10 -78 -16 -96
-5 -18 -14 -92 -18 -165 -5 -72 -18 -181 -29 -242 -11 -60 -21 -146 -21 -190
0 -44 -8 -116 -16 -160 -8 -44 -19 -152 -24 -240 -5 -88 -16 -196 -24 -240 -8
-44 -17 -127 -20 -185 -6 -99 -15 -157 -52 -325 -21 -92 -79 -260 -109 -311
-24 -41 -187 -202 -235 -232 -14 -9 -38 -26 -53 -39 -30 -24 -169 -93 -188
-93 -12 0 -90 -34 -119 -51 -8 -5 -31 -16 -50 -25 -111 -47 -139 -62 -180 -90
-41 -28 -132 -75 -291 -148 -88 -40 -206 -76 -247 -74 -20 0 -68 -6 -107 -14
-38 -9 -108 -21 -155 -28 -47 -6 -114 -21 -150 -32 -102 -30 -122 -36 -163
-43 -85 -14 -103 -89 -41 -170 19 -26 33 -53 30 -61 -4 -11 -46 -14 -229 -14
-211 0 -225 -1 -242 -20 -16 -18 -18 -42 -16 -296 2 -242 4 -280 19 -300 l17
-24 915 1 c640 0 919 4 928 11 9 8 19 8 35 -1 16 -9 59 -11 143 -7 65 3 137 5
159 5 368 -7 1004 -5 1022 4 16 7 30 7 46 0 34 -16 609 -16 619 0 5 9 15 9 40
0 18 -6 56 -9 83 -6 104 10 205 11 210 2 8 -13 69 -11 82 2 7 7 28 9 55 5 23
-3 48 -5 53 -4 6 0 377 3 825 4 611 3 816 1 821 -8 5 -8 11 -9 21 -1 19 15
122 16 2178 17 1479 1 1870 -2 1887 -12 19 -10 25 -9 46 10 44 42 47 59 52
285 3 120 7 238 10 263 7 67 -2 74 -92 78 -97 5 -107 12 -99 71 3 25 6 400 5
835 -1 715 -1 2094 0 2206 0 25 -1 88 -3 140 -6 226 -8 1249 -2 1259 4 6 38
11 82 11 70 0 133 18 134 38 3 59 0 1419 -3 1477 -3 44 -9 260 -14 480 -5 220
-13 406 -17 413 -4 8 -12 43 -17 80 -10 83 -74 243 -122 310 -59 80 -139 132
-201 132 -63 0 -157 -53 -229 -129 -68 -72 -104 -136 -132 -236 -28 -96 -43
-100 -56 -12 -4 28 -17 113 -28 187 -17 115 -39 576 -33 700 1 14 3 79 5 145
5 150 48 392 77 430 4 6 10 31 12 56 7 59 63 176 213 439 27 47 79 146 117
220 38 74 81 152 96 173 15 20 38 59 51 85 14 26 52 94 86 152 121 204 179
305 194 334 8 17 42 71 75 122 137 208 175 271 287 479 43 81 118 270 143 365
10 36 23 83 31 105 39 117 57 348 44 560 -8 124 -12 149 -44 230 -19 49 -44
104 -54 121 -18 30 -112 112 -202 177 -54 39 -225 127 -248 127 -10 0 -44 9
-77 21 -116 40 -224 57 -606 93 -81 8 -152 17 -158 21 -6 4 -59 9 -117 11
-134 5 -223 19 -241 38 -13 13 -13 20 1 55 11 28 15 55 11 85 -5 31 -1 58 10
86 9 22 16 50 16 61 0 26 58 174 86 220 26 42 316 352 395 422 30 27 85 83
122 125 220 247 313 740 203 1082 -13 41 -27 93 -30 115 -11 74 -91 210 -169
287 -61 60 -216 184 -282 225 -78 49 -265 123 -311 123 -9 0 -48 11 -88 25
-39 13 -96 30 -126 36 -59 13 -374 18 -480 8z m-6713 -366 c-72 -220 -146
-361 -295 -561 -158 -212 -177 -244 -162 -272 6 -12 27 -28 45 -36 91 -38 157
-143 168 -270 4 -38 10 -664 13 -1391 3 -727 9 -1441 14 -1585 9 -253 6 -1143
-6 -2323 -4 -410 -9 -563 -17 -572 -7 -6 -28 -14 -48 -18 -47 -9 -67 12 -50
52 8 20 11 235 9 753 -1 399 0 914 3 1145 3 231 1 584 -3 785 -10 445 -17
1397 -18 2375 -1 402 -4 747 -7 768 -5 31 -16 47 -55 77 -101 81 -179 60 -314
-82 -65 -69 -93 -111 -159 -233 -109 -203 -155 -264 -155 -205 0 24 33 90 129
260 39 68 71 136 71 150 0 78 83 216 180 300 97 84 116 114 232 384 28 64 89
163 165 266 54 74 227 248 247 249 13 1 17 -4 13 -16z m5615 -63 c38 -29 42
-87 13 -187 -13 -45 -31 -95 -38 -110 -8 -15 -17 -49 -21 -75 -6 -40 -4 -50
13 -67 13 -13 34 -21 56 -21 56 0 39 -32 -26 -50 -40 -12 -93 2 -126 32 -29
27 -47 105 -38 170 8 59 33 128 46 128 4 0 13 8 18 19 16 28 -9 53 -60 60 -55
8 -58 29 -6 47 36 13 39 12 44 -6 6 -24 48 -27 57 -4 8 21 -1 34 -25 34 -30 0
-22 19 14 35 43 19 50 18 79 -5z m363 -581 c136 -20 297 -52 393 -78 23 -6 60
-16 81 -21 56 -15 84 -53 77 -105 -20 -129 -19 -173 4 -210 26 -43 47 -55 94
-55 70 0 83 12 139 127 48 100 55 110 97 130 27 13 65 22 92 23 41 0 54 -5 89
-37 62 -56 72 -83 64 -167 -7 -70 -29 -127 -67 -176 -23 -28 -48 -85 -48 -107
0 -22 -39 -104 -73 -150 -37 -52 -81 -70 -131 -53 -41 13 -63 36 -68 70 -2 19
-10 26 -30 28 -25 3 -28 0 -28 -26 0 -16 13 -47 29 -69 40 -55 90 -84 138 -82
22 2 45 -1 51 -5 7 -4 31 -46 53 -92 26 -56 55 -100 87 -132 27 -26 56 -60 66
-75 9 -16 47 -48 84 -72 37 -23 84 -57 106 -74 21 -17 44 -31 51 -31 7 0 18
-7 25 -15 10 -13 10 -23 -2 -53 -51 -125 -77 -261 -83 -427 -2 -72 -11 -157
-20 -190 -9 -33 -21 -80 -27 -105 -6 -25 -28 -82 -49 -126 -65 -137 -203 -248
-357 -288 -77 -19 -178 -20 -252 -2 -58 15 -177 54 -196 65 -148 85 -283 252
-323 398 -26 98 -26 143 -1 214 30 87 36 176 15 242 -21 68 -36 82 -100 98
-28 6 -78 25 -113 42 -57 27 -67 29 -96 19 -44 -16 -72 -15 -90 4 -19 18 -21
86 -5 116 8 16 8 31 0 60 -14 46 -3 68 36 68 26 0 74 22 112 52 15 11 37 18
58 16 31 -2 52 12 53 34 0 15 -33 38 -54 38 -12 0 -35 14 -52 31 -35 37 -77
61 -123 68 -19 3 -36 11 -38 17 -6 19 26 44 57 44 36 0 90 59 90 98 0 51 -11
73 -34 70 -15 -2 -22 -12 -26 -38 -8 -48 -17 -60 -46 -60 -28 0 -29 3 -11 31
18 30 -15 52 -68 44 -42 -6 -65 -26 -65 -58 0 -13 -6 -18 -22 -15 -38 5 -35
67 8 168 41 96 99 253 119 320 48 164 62 219 58 223 -2 3 3 32 11 65 9 33 16
84 16 114 0 30 6 60 13 67 13 13 107 9 232 -10z m-259 -1150 c19 -21 19 -21
-11 -17 -19 2 -31 10 -33 21 -5 24 21 22 44 -4z m-22 -65 c9 -3 16 -15 16 -25
0 -16 -8 -19 -45 -19 -30 0 -45 4 -45 13 0 30 37 45 74 31z m1785 -868 c17
-11 13 -87 -6 -108 -24 -27 -48 -22 -89 16 -35 33 -36 36 -24 66 7 17 19 34
28 39 14 8 69 0 91 -13z m235 4 c11 -11 -20 -137 -75 -300 -27 -82 -86 -209
-109 -235 -10 -11 -39 -51 -65 -90 -26 -38 -57 -81 -69 -94 -31 -34 -193 -153
-251 -184 -86 -45 -182 -87 -201 -87 -11 0 -37 -9 -60 -19 -22 -10 -71 -22
-109 -26 -38 -4 -78 -10 -90 -15 -25 -9 -298 16 -340 31 -16 6 -43 15 -60 19
-237 67 -405 214 -517 453 -16 34 -33 70 -39 80 -39 70 -90 210 -104 286 -22
112 -16 123 59 119 l51 -3 6 -45 c8 -57 58 -205 98 -290 53 -112 128 -223 188
-278 70 -64 223 -151 324 -185 171 -58 403 -68 549 -24 185 56 385 181 455
285 14 20 41 59 60 85 38 51 105 194 105 223 0 15 10 51 51 190 5 17 9 46 9
65 0 19 5 40 11 46 13 13 107 7 123 -7z m169 -16 c54 -8 64 -25 39 -68 -10
-17 -24 -49 -30 -71 -77 -277 -154 -427 -323 -635 -110 -135 -227 -232 -381
-315 -52 -27 -216 -90 -263 -100 -16 -4 -48 -14 -70 -23 -53 -21 -408 -30
-510 -13 -158 27 -367 101 -462 164 -70 47 -229 196 -255 238 -8 13 -41 66
-73 117 -79 128 -133 306 -155 515 -15 135 -13 139 79 135 l66 -3 6 -85 c3
-47 13 -101 22 -120 9 -19 39 -92 66 -162 28 -70 65 -151 84 -180 18 -29 39
-65 46 -80 38 -76 220 -254 306 -301 178 -96 437 -141 673 -117 124 14 277 63
432 141 164 81 362 278 435 430 14 30 39 79 56 110 33 65 79 206 104 324 9 44
19 86 21 93 4 14 21 15 87 6z m233 -24 c16 0 39 -6 49 -14 18 -13 18 -16 3
-52 -9 -22 -36 -102 -61 -179 -25 -77 -59 -171 -75 -210 -35 -82 -133 -257
-168 -300 -13 -16 -42 -55 -63 -86 -69 -98 -219 -240 -334 -318 -59 -39 -118
-76 -132 -81 -14 -5 -60 -30 -103 -54 -42 -25 -113 -54 -157 -66 -44 -12 -114
-33 -155 -47 -108 -37 -326 -66 -420 -57 -41 4 -93 8 -115 9 -137 9 -236 33
-430 103 -121 43 -164 63 -305 143 -105 59 -165 113 -226 204 -52 77 -164 291
-164 314 0 9 -9 44 -19 77 -45 138 -75 323 -83 509 l-3 60 73 3 c69 2 72 1 72
-20 0 -13 7 -55 15 -93 8 -39 22 -104 30 -145 50 -242 114 -386 251 -565 154
-201 317 -300 639 -387 99 -26 127 -29 280 -31 197 -2 321 6 387 27 186 58
376 144 450 203 25 21 74 60 107 86 97 78 265 279 327 392 70 127 145 292 164
361 54 199 70 230 115 219 11 -3 34 -5 51 -5z m-2198 -13 c16 -18 25 -63 17
-85 -5 -19 -51 -42 -80 -42 -10 0 -45 66 -45 85 0 7 74 54 86 54 6 1 16 -5 22
-12z m2442 -43 c188 -42 336 -105 453 -194 74 -55 147 -172 184 -290 23 -75
26 -102 27 -235 0 -174 -24 -324 -83 -515 -5 -14 -16 -50 -25 -80 -41 -139
-77 -238 -110 -307 -14 -29 -26 -57 -26 -63 0 -18 -32 -10 -69 18 -40 30 -209
116 -311 157 -36 14 -78 32 -95 40 -140 66 -208 95 -220 95 -8 0 -38 9 -67 20
-29 11 -65 20 -79 20 -14 0 -33 6 -43 13 -17 12 -16 17 18 73 40 65 69 154 60
178 -3 9 -15 16 -26 16 -15 0 -31 -24 -69 -107 -28 -60 -65 -124 -84 -143 -18
-19 -58 -78 -88 -130 -30 -52 -72 -121 -94 -153 -21 -32 -42 -66 -48 -75 -5
-10 -36 -60 -68 -112 -60 -100 -61 -100 -96 -168 -12 -23 -36 -68 -53 -100
-16 -31 -59 -112 -94 -178 -65 -126 -107 -193 -127 -206 -7 -4 -41 -5 -77 -2
-36 4 -159 1 -275 -6 -115 -7 -302 -14 -415 -15 -113 -2 -239 -8 -280 -14 -79
-11 -222 -26 -405 -41 -60 -5 -141 -14 -180 -21 -38 -6 -79 -11 -90 -11 -11 0
-64 1 -118 2 -114 2 -117 5 -144 111 -16 66 -75 210 -136 334 -59 121 -83 219
-113 460 -33 264 -40 299 -83 415 -26 70 -71 126 -94 117 -9 -3 -17 -15 -17
-26 0 -29 -10 -32 -76 -21 -32 6 -88 13 -124 15 -233 17 -372 22 -420 15 -31
-4 -59 -4 -65 1 -6 6 -4 27 4 57 15 50 23 99 41 224 11 78 51 220 96 339 57
151 203 301 361 371 125 55 523 142 546 119 6 -6 14 -54 18 -108 4 -54 13
-122 18 -152 6 -29 11 -71 11 -92 0 -53 14 -109 72 -286 66 -206 123 -306 245
-434 106 -111 331 -245 491 -293 44 -13 93 -31 109 -39 16 -9 89 -28 163 -43
118 -25 156 -28 305 -28 201 1 283 12 469 65 296 84 557 230 741 414 100 100
182 194 210 240 10 17 33 53 51 80 96 150 222 446 290 683 4 16 15 15 104 -4z
m-929 -116 c37 -46 17 -112 -39 -123 -30 -6 -39 -2 -68 26 -48 46 -45 75 9 99
56 25 75 24 98 -2z m-1546 -28 c3 -5 1 -10 -4 -10 -6 0 -11 5 -11 10 0 6 2 10
4 10 3 0 8 -4 11 -10z m120 -24 c11 -8 18 -26 18 -46 0 -37 -23 -60 -61 -60
-63 0 -80 45 -35 92 30 31 50 35 78 14z m1322 -140 c7 -6 15 -26 19 -43 5 -27
2 -36 -22 -58 -35 -32 -77 -28 -111 11 -36 40 -24 95 22 106 27 7 77 -2 92
-16z m-1204 -34 c36 -34 34 -47 -12 -78 -31 -20 -47 -24 -70 -19 -17 4 -34 11
-37 16 -11 18 6 79 28 99 26 24 51 19 91 -18z m-163 13 c15 -19 6 -47 -14 -39
-17 6 -29 32 -20 45 8 13 20 11 34 -6z m1190 -55 c-12 -22 -40 -27 -40 -7 0
19 10 27 32 27 16 0 17 -3 8 -20z m-869 -73 c27 -18 35 -30 37 -60 3 -32 -1
-39 -30 -57 -47 -29 -73 -25 -102 13 -32 41 -33 73 -4 104 27 29 56 29 99 0z
m858 -33 c28 -36 36 -65 20 -75 -16 -10 -80 -12 -103 -3 -38 15 1 104 45 104
10 0 27 -12 38 -26z m-145 -8 c-6 -15 -34 -30 -42 -22 -10 11 9 36 27 36 14 0
19 -5 15 -14z m-894 -10 c0 -2 3 -12 7 -21 5 -15 3 -16 -15 -6 -25 13 -29 31
-7 31 8 0 15 -2 15 -4z m410 -87 c14 -52 6 -85 -23 -95 -72 -25 -126 51 -81
114 11 16 25 22 54 22 37 0 40 -2 50 -41z m435 27 c39 -29 9 -126 -40 -126
-23 0 -63 40 -70 71 -13 57 59 93 110 55z m-350 -6 c3 -5 -1 -10 -9 -10 -9 0
-16 5 -16 10 0 6 4 10 9 10 6 0 13 -4 16 -10z m124 -54 c18 -64 4 -86 -54 -86
-52 0 -71 23 -61 73 9 44 24 57 65 57 35 0 37 -2 50 -44z m-392 -31 l28 -24
-30 -1 c-33 0 -55 15 -55 37 0 21 26 15 57 -12z m243 -45 c12 -8 12 -10 -3
-16 -20 -7 -47 1 -47 16 0 12 30 13 50 0z m255 0 c3 -6 -1 -13 -10 -16 -19 -8
-30 0 -20 15 8 14 22 14 30 1z m-2618 -564 c-2 -17 -12 -58 -22 -91 -15 -52
-26 -97 -50 -202 -4 -16 -13 -23 -29 -23 -46 0 -48 18 -12 141 19 63 37 128
40 144 12 49 32 74 57 68 17 -5 20 -12 16 -37z m-172 24 c3 -6 -5 -38 -18 -73
-13 -34 -32 -96 -42 -137 -20 -88 -27 -104 -46 -107 -32 -6 -41 12 -29 58 22
86 73 244 83 257 11 15 43 16 52 2z m306 0 c31 -17 27 -37 -44 -240 -8 -25
-17 -56 -19 -70 -2 -19 -10 -26 -31 -28 -38 -5 -43 17 -22 96 32 121 77 252
87 252 5 0 18 -5 29 -10z m190 0 c23 -13 24 -27 4 -68 -30 -60 -85 -227 -85
-259 0 -37 -1 -38 -48 -21 -37 14 -36 5 -12 108 4 19 20 66 34 104 14 38 26
79 26 92 0 43 40 65 81 44z m196 -37 c4 -9 -5 -36 -19 -62 -27 -49 -88 -236
-88 -270 0 -25 -31 -29 -53 -7 -13 13 -12 22 0 68 8 29 19 71 23 93 5 22 18
68 30 103 18 51 28 65 54 77 41 18 46 18 53 -2z m53 -88 c15 -19 9 -68 -24
-188 -26 -97 -34 -111 -59 -101 -30 11 -28 41 8 147 19 58 35 117 35 131 0 29
21 34 40 11z m3010 -152 c-18 -32 -38 -65 -45 -73 -6 -8 -18 -31 -25 -50 -28
-75 -74 -140 -97 -140 -43 0 -23 53 71 194 36 53 66 101 66 106 0 5 10 16 22
24 39 28 43 1 8 -61z m167 35 c18 -7 33 -17 33 -24 0 -10 -37 -79 -112 -209
-15 -27 -37 -69 -48 -92 -15 -33 -25 -43 -42 -43 -26 1 -58 22 -58 38 0 13 98
201 115 222 7 8 25 39 39 68 14 28 29 52 33 52 4 0 22 -5 40 -12z m178 -42
c38 -16 44 -36 19 -57 -9 -7 -35 -54 -58 -103 -23 -50 -55 -111 -70 -135 -18
-28 -26 -52 -23 -68 6 -30 -17 -41 -41 -21 -9 8 -29 19 -45 26 l-27 12 36 72
c20 40 44 84 54 98 10 14 35 59 56 100 33 65 50 89 62 90 1 0 18 -7 37 -14z
m183 -102 c32 -15 41 -37 22 -49 -6 -4 -27 -39 -46 -78 -20 -40 -46 -85 -59
-102 -34 -46 -55 -91 -55 -120 0 -14 -5 -25 -10 -25 -22 0 -90 41 -90 54 0 14
50 108 122 226 24 41 48 83 51 93 8 21 25 22 65 1z m171 -60 c18 -9 35 -22 38
-30 3 -7 -11 -39 -30 -71 -78 -129 -135 -233 -141 -257 -3 -14 -12 -26 -19
-26 -17 0 -77 38 -77 49 0 5 38 73 85 152 47 79 85 153 85 165 0 38 12 41 59
18z m-3650 -55 c6 -18 11 -59 11 -93 0 -72 30 -160 118 -351 70 -150 100 -238
143 -414 27 -112 31 -148 35 -326 3 -110 10 -227 15 -260 5 -33 9 -110 9 -170
0 -61 4 -125 10 -144 5 -19 10 -95 11 -170 1 -93 6 -145 16 -164 8 -15 11 -32
8 -37 -25 -41 -321 -206 -473 -264 -38 -15 -89 -39 -113 -54 -77 -49 -268
-132 -300 -132 -9 0 -22 -6 -28 -14 -7 -8 -35 -22 -64 -32 -47 -17 -88 -19
-462 -19 l-410 0 -97 -27 c-54 -15 -151 -45 -215 -66 -65 -21 -149 -47 -187
-58 -74 -21 -86 -33 -66 -69 13 -24 7 -45 -12 -45 -6 0 -40 -27 -75 -61 -89
-82 -97 -79 -101 43 -2 85 -5 99 -22 108 -23 12 -76 1 -150 -30 -25 -10 -78
-31 -117 -45 -68 -25 -73 -29 -73 -56 0 -23 11 -40 45 -71 69 -63 155 -211
155 -268 0 -10 -10 -31 -23 -46 l-23 -27 -335 -4 c-367 -4 -379 -6 -379 -62 0
-15 7 -50 15 -77 19 -62 39 -264 27 -276 -5 -5 -71 -11 -148 -13 -113 -4 -154
-10 -218 -31 -91 -29 -168 -66 -196 -94 -10 -10 -33 -26 -50 -35 -38 -20 -258
-242 -266 -270 -4 -11 -15 -31 -25 -44 -11 -13 -19 -31 -19 -41 0 -9 -11 -27
-25 -40 -14 -13 -25 -32 -25 -43 0 -10 -9 -30 -20 -44 -11 -14 -20 -31 -20
-38 0 -7 -8 -23 -18 -36 -24 -31 -56 -120 -86 -242 -13 -54 -31 -106 -40 -116
-9 -10 -16 -26 -16 -36 0 -10 -4 -32 -9 -49 -70 -236 -97 -287 -236 -439 -35
-38 -51 -64 -48 -76 3 -11 -2 -21 -11 -24 -9 -4 -16 -1 -17 6 0 7 -7 -6 -15
-28 -12 -30 -13 -48 -5 -75 16 -55 25 -128 27 -225 1 -49 5 -173 8 -275 8
-256 8 -625 -1 -810 -3 -85 -7 -171 -6 -190 0 -19 -6 -41 -14 -48 -15 -16 -15
-14 -20 -212 -6 -278 -15 -377 -38 -434 -8 -19 -13 -75 -13 -146 1 -63 -4
-133 -10 -155 -6 -22 -19 -107 -28 -190 -9 -82 -22 -172 -30 -199 -8 -27 -14
-67 -14 -87 0 -21 -5 -50 -11 -66 -6 -15 -13 -53 -15 -83 -6 -84 -33 -303 -40
-320 -7 -19 -33 13 -70 85 -14 28 -40 66 -58 85 -19 19 -37 48 -40 64 -13 53
-7 5507 5 5523 6 7 31 13 54 13 24 0 65 4 92 9 26 6 80 15 118 22 85 14 184
50 330 119 177 84 191 90 204 90 6 0 29 9 51 20 22 11 47 20 56 20 9 0 30 6
47 14 72 33 116 49 192 70 213 60 318 90 400 117 141 44 165 50 240 59 39 4
102 17 140 29 83 24 267 66 277 63 6 -1 111 26 283 73 28 7 86 23 130 35 117
32 207 63 320 110 55 23 136 54 180 70 223 81 279 102 385 145 295 122 558
215 608 215 43 0 90 35 111 82 10 24 39 88 64 143 24 55 57 127 72 160 15 33
38 87 50 120 13 33 34 82 48 108 14 26 31 64 37 85 6 20 38 93 70 162 32 69
73 163 90 210 101 269 140 376 150 417 4 18 22 76 39 130 41 132 79 274 87
326 11 72 44 91 63 36z m-613 -24 c72 -8 146 -21 165 -29 19 -7 87 -27 153
-42 66 -16 121 -35 124 -42 2 -8 -1 -32 -7 -55 -37 -126 -47 -154 -58 -172 -7
-11 -13 -31 -13 -46 0 -15 -16 -71 -36 -125 -20 -55 -46 -130 -59 -169 -53
-163 -98 -280 -135 -355 -22 -43 -40 -82 -40 -85 0 -3 -20 -47 -44 -98 -24
-51 -56 -121 -72 -157 -16 -36 -46 -94 -66 -130 -21 -36 -38 -68 -38 -73 0 -4
-18 -44 -39 -90 -22 -45 -44 -101 -51 -125 -12 -47 -41 -82 -66 -82 -9 0 -56
-15 -103 -34 -48 -19 -104 -37 -126 -41 -22 -4 -60 -18 -85 -31 -44 -23 -232
-95 -300 -116 -19 -5 -39 -14 -45 -18 -9 -7 -66 -28 -361 -129 -61 -21 -120
-44 -132 -50 -11 -6 -44 -17 -74 -25 -29 -8 -78 -24 -108 -36 -49 -19 -219
-68 -310 -90 -116 -27 -441 -113 -475 -124 -22 -8 -76 -21 -120 -31 -148 -31
-300 -68 -332 -82 -18 -7 -45 -13 -60 -13 -16 0 -44 -8 -63 -18 -19 -11 -41
-17 -48 -14 -15 5 -72 124 -72 148 0 8 -9 40 -21 72 -18 51 -36 124 -56 231
-7 38 13 61 52 61 22 0 479 229 645 323 14 8 69 37 123 66 54 28 116 63 138
76 21 14 41 25 45 25 3 0 36 17 72 39 213 123 288 154 822 342 19 6 78 31 130
54 52 24 105 46 117 50 44 13 144 88 172 128 16 23 43 85 61 137 18 52 37 101
42 107 6 7 21 48 34 90 32 109 69 213 88 248 9 17 16 35 16 42 0 6 14 41 30
78 17 37 30 73 30 81 0 7 9 30 19 51 10 21 41 90 67 153 26 63 53 122 60 130
16 19 216 17 410 -5z m4435 -15 c29 -16 23 -40 -27 -116 -25 -38 -52 -82 -59
-99 -39 -82 -92 -160 -109 -160 -27 0 -44 31 -29 53 30 43 107 180 155 275 31
60 37 64 69 47z m-1050 -196 c57 -20 109 -40 115 -45 6 -5 55 -27 110 -50 54
-22 119 -51 144 -64 25 -13 101 -51 170 -85 136 -68 210 -116 210 -136 0 -7
-17 -41 -38 -76 -22 -35 -67 -112 -102 -173 -74 -129 -105 -180 -142 -238 -15
-23 -28 -48 -28 -55 0 -7 -12 -34 -27 -60 -14 -26 -44 -81 -66 -122 -22 -41
-56 -104 -77 -140 -67 -118 -153 -264 -175 -300 -12 -19 -38 -71 -59 -114 -51
-108 -89 -161 -128 -176 -71 -29 -144 -61 -168 -76 -83 -49 -438 -217 -504
-238 -44 -15 -84 -30 -90 -35 -6 -5 -29 -14 -51 -21 -60 -18 -179 -63 -191
-72 -6 -4 -55 -22 -110 -38 -54 -17 -121 -39 -149 -50 -27 -11 -97 -33 -155
-49 -58 -16 -139 -42 -180 -56 -41 -15 -115 -37 -165 -50 -49 -12 -115 -30
-145 -39 -58 -18 -127 -38 -195 -55 -22 -6 -67 -18 -100 -26 -33 -9 -82 -20
-110 -25 -27 -5 -81 -19 -120 -30 -38 -11 -95 -27 -125 -36 -30 -8 -66 -20
-79 -25 -29 -12 -52 6 -53 42 -2 67 -20 260 -27 299 -34 168 -34 171 -20 185
8 7 48 26 89 43 41 16 113 50 159 76 46 25 86 46 88 46 3 0 18 9 33 20 15 11
63 38 106 61 76 39 178 104 219 138 11 10 54 37 95 61 41 24 82 49 90 56 8 7
56 33 105 59 50 26 95 50 100 55 6 4 60 33 120 65 61 32 121 66 135 75 65 45
406 210 433 210 7 0 25 7 42 16 51 26 217 94 232 94 27 0 111 50 138 82 29 34
30 36 66 133 65 177 80 214 117 295 107 235 100 222 200 410 25 47 56 108 70
135 14 28 33 61 43 74 11 13 19 32 19 42 0 26 11 24 131 -17z m-527 -520 c23
-9 20 -27 -13 -87 -16 -28 -44 -94 -62 -146 -17 -52 -38 -106 -45 -120 -8 -14
-14 -34 -14 -45 0 -42 -51 -114 -100 -140 -26 -14 -54 -26 -61 -26 -8 0 -68
-25 -134 -55 -65 -30 -125 -55 -132 -55 -7 0 -30 -9 -50 -20 -21 -11 -42 -20
-48 -20 -43 0 -473 -210 -605 -295 -41 -27 -127 -77 -190 -113 -63 -35 -165
-98 -227 -138 -62 -41 -116 -74 -121 -74 -6 0 -10 45 -11 103 0 115 -14 336
-46 762 -2 33 -7 108 -9 168 -3 59 -7 116 -11 126 -9 29 29 49 115 61 80 10
120 14 419 35 107 8 206 17 220 19 14 3 151 10 305 16 153 6 319 15 370 20 50
5 161 12 246 15 85 3 156 8 159 11 6 6 27 5 45 -2z m556 -1374 c-7 -17 -27
-42 -44 -55 -32 -24 -557 -285 -573 -285 -5 0 -57 -25 -117 -55 -59 -30 -113
-55 -120 -55 -8 0 -47 -15 -87 -33 -136 -62 -585 -212 -675 -226 -32 -5 -138
-27 -234 -48 -268 -61 -400 -81 -400 -63 0 6 6 12 13 14 6 2 37 11 67 19 30 9
73 20 95 26 154 40 280 75 340 95 39 13 129 41 200 62 72 20 150 46 175 57 25
11 88 34 140 52 52 18 142 52 200 75 58 23 137 53 175 67 39 14 95 34 125 45
30 11 111 45 180 75 110 49 167 77 350 175 25 13 66 31 91 41 25 10 57 29 69
42 31 33 48 18 30 -25z m-7342 -180 c160 -13 203 -18 210 -24 2 -3 6 -40 7
-83 4 -106 61 -351 106 -451 25 -57 24 -70 -8 -78 -14 -4 -81 -35 -147 -70
-160 -83 -278 -124 -501 -177 -33 -8 -67 -17 -75 -20 -19 -8 -45 7 -36 22 4 5
36 24 71 41 49 24 81 49 137 111 40 44 76 86 80 94 12 20 -2 45 -29 56 -36 14
-39 37 -8 69 34 35 28 56 -20 76 -40 16 -44 35 -15 64 44 44 10 102 -68 115
l-43 7 6 38 c6 33 3 41 -22 64 -18 17 -39 26 -60 26 -33 0 -33 0 -33 49 0 29
5 53 13 58 20 13 198 32 255 27 30 -2 111 -9 180 -14z m660 0 c3 -20 -312 -80
-330 -62 -23 23 0 42 49 42 68 0 226 21 238 32 14 12 39 5 43 -12z m10 -109
c-3 -28 -7 -29 -163 -61 -33 -6 -78 -18 -99 -26 -41 -14 -66 -6 -66 21 0 24
30 37 150 66 67 16 129 33 138 38 23 13 44 -6 40 -38z m-1383 -26 l0 -50 -50
-6 c-27 -4 -77 -17 -110 -28 -66 -24 -135 -37 -135 -27 0 19 32 65 57 82 33
22 201 82 223 80 11 -1 15 -14 15 -51z m7905 35 c0 -13 -7 -20 -18 -20 -10 0
-23 -5 -29 -11 -6 -6 -26 -9 -44 -7 -29 3 -31 5 -14 13 11 4 27 14 35 21 8 7
26 14 40 17 14 2 26 5 28 6 1 0 2 -8 2 -19z m90 -129 c0 -83 -2 -90 -25 -105
-13 -9 -31 -16 -40 -16 -23 0 -18 28 9 45 42 28 46 125 5 125 -10 0 -19 5 -19
10 0 6 9 10 20 10 11 0 23 7 26 15 14 35 24 -2 24 -84z m-235 69 c-3 -5 -17
-10 -31 -10 -14 0 -22 4 -19 10 3 6 17 10 31 10 14 0 22 -4 19 -10z m-7459
-45 c4 -8 0 -22 -7 -31 -17 -21 -141 -100 -170 -109 -13 -4 -48 -18 -77 -31
-29 -13 -69 -28 -90 -34 -20 -5 -65 -17 -99 -26 -73 -19 -109 -13 -125 22 -9
19 -8 31 5 58 19 40 34 46 272 111 28 8 68 16 90 19 89 11 167 25 173 30 10
10 23 6 28 -9z m1122 3 c16 -16 15 -53 0 -66 -7 -5 -29 -13 -48 -17 -19 -4
-83 -18 -143 -32 -59 -14 -114 -23 -122 -19 -24 9 -19 55 8 61 12 3 40 9 62
14 90 20 171 44 195 57 31 17 33 17 48 2z m6162 -31 c0 -8 -11 -19 -25 -25
-52 -24 -75 -7 -33 22 28 20 58 21 58 3z m236 -2 c4 -8 10 -12 15 -9 5 3 9 0
9 -5 0 -13 -2 -13 -35 -1 -14 5 -23 14 -20 20 9 15 25 12 31 -5z m-2796 -4 c0
-15 -26 -31 -61 -37 l-34 -7 35 26 c36 26 60 33 60 18z m46 -66 c13 -33 -19
-52 -201 -121 -103 -39 -125 -42 -125 -16 0 19 24 31 180 91 30 12 69 30 85
41 36 24 54 25 61 5z m-4648 -41 c4 -28 -62 -85 -148 -128 -36 -18 -74 -38
-85 -44 -11 -6 -73 -34 -139 -63 -142 -61 -197 -68 -228 -28 -14 18 -17 33
-12 53 7 30 6 29 134 70 102 33 211 80 260 112 35 23 156 54 195 51 12 -1 21
-11 23 -23z m1040 -28 c2 -16 -1 -33 -6 -38 -6 -6 -45 -14 -88 -19 -44 -5
-112 -16 -152 -26 -68 -16 -74 -16 -89 0 -28 27 -1 42 132 71 66 15 131 31
145 36 40 13 55 7 58 -24z m6378 14 c24 0 34 -5 34 -15 0 -17 -39 -35 -76 -35
-20 0 -24 5 -24 31 0 24 3 30 16 25 9 -3 31 -6 50 -6z m-536 -30 c-8 -5 -17
-7 -19 -4 -3 3 1 9 9 14 8 5 17 7 19 4 3 -3 -1 -9 -9 -14z m-3140 -5 c102 -15
361 -22 380 -10 15 10 48 -35 60 -83 7 -26 18 -123 25 -217 15 -190 14 -198
-49 -210 -17 -4 -47 -16 -66 -27 -19 -11 -64 -31 -100 -44 -36 -13 -96 -35
-135 -49 -109 -40 -142 -51 -255 -83 -153 -44 -265 -72 -288 -72 -24 0 -80 44
-93 74 -6 12 -19 37 -29 56 -42 77 -87 258 -92 365 l-3 60 36 1 c20 1 42 4 48
9 20 12 191 45 233 45 52 0 78 15 78 46 0 49 -105 56 -230 14 -125 -42 -341
-54 -348 -20 -2 12 23 24 100 47 290 89 388 110 518 111 58 1 152 -5 210 -13z
m3313 -4 c2 -10 1 -25 -3 -32 -11 -17 -40 6 -40 32 0 25 36 25 43 0z m-2402
-17 c8 -10 10 -21 3 -30 -11 -18 -149 -80 -219 -99 -27 -7 -62 -19 -78 -26
-32 -15 -42 -8 -33 24 4 19 24 31 103 61 54 21 116 48 138 61 49 28 68 30 86
9z m2940 -225 c5 -107 14 -225 20 -264 32 -215 39 -254 52 -296 46 -142 79
-688 50 -819 -27 -115 -31 -136 -42 -187 -6 -29 -15 -60 -20 -70 -6 -10 -38
-74 -72 -143 -33 -69 -80 -149 -102 -178 -23 -30 -51 -69 -63 -88 -20 -33
-170 -193 -183 -195 -43 -6 -4158 -6 -4174 0 -12 4 -69 5 -127 1 -76 -5 -114
-3 -138 7 -28 10 -40 10 -75 -3 -23 -9 -52 -18 -64 -21 -12 -3 -28 -11 -34
-19 -19 -23 -38 -16 -59 24 -54 99 -204 311 -315 446 -28 33 -70 86 -92 116
-82 109 -179 190 -374 313 -38 25 -37 39 9 69 40 27 269 138 283 138 5 0 35
14 66 31 32 17 74 37 93 44 19 7 91 40 160 72 144 69 224 103 240 103 6 0 44
16 83 36 39 19 105 47 146 61 41 13 83 30 95 38 12 7 46 18 76 25 30 7 63 17
74 22 10 6 91 30 180 53 192 52 237 66 297 93 76 35 354 100 523 122 87 11
162 23 166 25 15 9 280 44 495 65 114 11 248 27 300 36 17 3 66 9 110 14 44 5
132 16 195 24 63 9 162 21 220 27 58 6 125 17 150 25 25 8 60 14 79 14 18 0
50 4 70 9 20 6 83 19 141 30 118 23 360 73 495 102 50 10 110 26 135 34 25 8
81 24 125 35 44 10 139 34 210 53 72 18 164 41 205 51 122 29 303 93 344 121
11 8 24 11 29 6 4 -4 12 -95 18 -202z m-923 174 c-4 -20 -45 -30 -60 -15 -16
16 1 32 33 32 24 0 30 -4 27 -17z m-6660 -25 c26 -26 -17 -61 -217 -181 -53
-31 -124 -66 -158 -78 -35 -11 -65 -25 -68 -30 -9 -14 -71 -11 -85 5 -26 32
-8 59 55 83 33 13 146 66 250 118 105 51 195 94 201 94 5 1 15 -4 22 -11z
m7022 -13 c0 -2 -9 -9 -20 -15 -24 -13 -50 -2 -29 11 15 9 49 12 49 4z m-6210
-18 c0 -18 -21 -37 -41 -37 -24 0 -33 18 -19 35 15 19 60 20 60 2z m3830 -12
c17 -21 9 -47 -20 -62 -59 -29 -245 -95 -275 -97 -27 -1 -33 39 -8 52 10 6 46
20 80 31 79 27 170 68 178 81 9 14 31 12 45 -5z m1730 -25 c0 -5 -9 -10 -21
-10 -11 0 -17 5 -14 10 3 6 13 10 21 10 8 0 14 -4 14 -10z m-230 -65 c-13 -16
-50 -21 -50 -7 0 15 13 22 38 22 21 0 22 -2 12 -15z m389 6 c9 -6 10 -10 2
-16 -16 -9 -44 2 -36 15 8 12 16 12 34 1z m-6515 -20 c11 -17 -36 -60 -146
-134 -194 -128 -294 -175 -320 -149 -10 10 -8 20 6 46 14 27 31 39 80 57 33
12 66 26 71 30 6 4 40 22 75 40 36 17 79 41 95 54 37 27 106 64 122 65 6 0 14
-4 17 -9z m6030 0 c7 -11 -22 -23 -35 -15 -5 3 -7 10 -4 15 8 12 32 12 39 0z
m371 -21 c-3 -5 -13 -10 -21 -10 -8 0 -14 5 -14 10 0 6 9 10 21 10 11 0 17 -4
14 -10z m-1757 -27 c4 -27 -17 -39 -153 -84 -55 -18 -111 -39 -125 -46 -29
-15 -43 -5 -38 28 2 20 16 28 78 50 41 14 102 38 135 52 72 30 99 30 103 0z
m1562 17 c0 -5 -7 -10 -15 -10 -8 0 -15 5 -15 10 0 6 7 10 15 10 8 0 15 -4 15
-10z m-956 -26 c11 -30 7 -161 -6 -171 -25 -18 -205 -52 -312 -58 -60 -4 -120
-11 -135 -16 -14 -6 -125 -17 -246 -26 -149 -10 -227 -19 -242 -29 -31 -20
-123 -19 -123 1 0 8 7 15 15 15 8 0 23 4 33 9 45 24 102 42 152 50 31 5 105
29 167 54 113 46 388 132 478 149 28 6 73 16 100 23 70 19 112 18 119 -1z
m-2255 -48 c7 -8 27 -74 46 -148 18 -73 38 -146 44 -162 19 -48 -3 -61 -102
-60 -166 1 -241 84 -185 206 31 67 66 108 125 147 53 35 56 36 72 17z m2541
-36 c0 -5 -2 -10 -4 -10 -3 0 -8 5 -11 10 -3 6 -1 10 4 10 6 0 11 -4 11 -10z
m2623 -33 c90 -38 160 -172 202 -387 32 -167 30 -105 41 -1512 5 -612 4 -851
-4 -861 -7 -9 -33 -13 -69 -13 l-58 1 2 190 c2 105 3 225 3 267 0 42 5 80 10
83 15 10 12 42 -6 49 -13 5 -15 95 -14 848 1 523 -2 862 -8 893 -12 57 -36 81
-110 108 -63 22 -100 22 -154 -2 -54 -23 -90 -71 -101 -136 -5 -27 -11 -392
-13 -810 -3 -447 -8 -763 -14 -769 -5 -5 -76 -10 -157 -11 -81 -2 -191 -4
-243 -5 -116 -2 -120 -2 -120 8 0 5 32 42 70 83 77 81 186 236 197 278 3 14
14 37 25 50 10 13 18 29 18 35 0 6 7 24 15 40 31 59 88 247 105 346 15 88 21
428 9 510 -17 111 -22 210 -11 223 5 6 12 37 16 67 7 60 25 121 64 220 31 76
95 150 167 191 55 32 90 36 138 16z m-8422 -2660 c0 -1398 0 -2658 -1 -2801
l-2 -259 60 -56 c73 -68 87 -106 86 -241 0 -95 -14 -145 -37 -137 -7 2 -14 19
-17 37 -8 51 -63 90 -142 100 -77 9 -97 2 -135 -47 -38 -48 -53 -93 -53 -154
0 -59 -14 -70 -36 -27 -23 44 -24 285 -1 339 22 54 71 117 115 149 l40 29 8
88 c5 71 10 496 6 713 0 25 0 693 0 1485 1 792 0 1746 0 2120 -1 374 0 752 2
840 2 88 4 197 5 243 1 76 3 83 24 91 13 5 29 16 36 24 41 51 40 138 42 -2536z
m8402 2239 c17 -13 32 -39 38 -62 6 -24 9 -585 8 -1444 0 -773 0 -1412 0
-1420 1 -13 3 -571 12 -3228 2 -468 -1 -776 -7 -780 -5 -5 -53 -6 -108 -3
l-99 6 -2 1155 c-4 1564 -5 1712 -15 1731 -15 27 -74 30 -510 28 -501 -3 -360
-3 -1279 0 -550 2 -767 -1 -775 -9 -8 -8 -11 -411 -11 -1463 l0 -1452 -73 1
c-52 0 -76 4 -83 15 -5 8 -7 70 -4 139 7 205 7 1679 -1 2341 -6 520 -5 617 7
625 8 5 581 9 1349 9 l1335 0 23 45 22 44 0 875 c-1 723 -3 879 -15 907 l-14
33 -788 2 c-433 2 -860 2 -948 1 -445 -3 -1941 -10 -2548 -11 l-688 -2 -11
-27 c-9 -20 -12 -203 -10 -677 5 -1991 -2 -4293 -13 -4303 -17 -16 -133 -22
-145 -7 -7 8 -10 145 -10 411 0 220 0 413 -1 429 0 17 0 219 1 450 0 231 -2
1195 -5 2142 -4 1234 -3 1728 5 1743 11 20 18 20 488 20 262 -1 1141 1 1952 4
811 3 1749 6 2084 6 360 0 616 4 626 10 10 5 21 17 25 27 3 10 9 380 11 823 5
741 7 807 23 835 33 57 105 72 154 31z m-5636 -23 c22 -34 21 -174 -1 -226
-15 -37 -75 -76 -186 -120 -36 -14 -90 -37 -120 -51 -30 -14 -65 -26 -77 -26
-29 0 -81 31 -87 52 -2 10 -12 21 -23 25 -10 4 -44 22 -75 40 -31 18 -63 33
-72 33 -19 0 -21 20 -3 41 30 38 274 164 402 209 169 59 216 63 242 23z m363
-49 c88 -13 87 -45 -2 -64 -29 -6 -58 -15 -65 -21 -22 -19 -41 -3 -48 40 -9
52 0 64 39 57 17 -3 51 -8 76 -12z m-1154 -234 c32 -12 69 -18 80 -15 14 3 24
-1 28 -10 3 -8 21 -22 39 -32 73 -38 156 -103 151 -118 -7 -18 -86 -65 -110
-65 -9 0 -34 20 -55 44 -22 24 -59 54 -84 66 -85 41 -254 60 -287 32 -8 -7
-24 -11 -34 -10 -11 1 -44 -9 -74 -24 -30 -14 -71 -33 -90 -42 -19 -9 -51 -28
-70 -42 -47 -34 -150 -134 -150 -145 0 -8 -5 -16 -61 -83 -42 -51 -119 -156
-119 -162 0 -3 -9 -26 -21 -52 -11 -26 -24 -56 -28 -67 -5 -11 -16 -37 -25
-58 -9 -21 -16 -46 -16 -55 0 -10 -6 -24 -12 -30 -14 -14 -22 -93 -19 -187 1
-33 -4 -79 -10 -102 -8 -31 -8 -50 1 -77 6 -20 13 -57 14 -83 2 -27 9 -61 15
-77 6 -16 14 -51 16 -79 2 -27 11 -57 19 -66 8 -9 28 -46 46 -82 l31 -65 -40
-78 c-22 -43 -43 -96 -46 -119 -4 -23 -16 -57 -27 -76 -23 -40 -43 -100 -52
-154 -4 -21 -16 -58 -27 -83 -10 -25 -19 -55 -19 -67 -1 -12 -9 -47 -20 -77
-11 -30 -19 -71 -20 -90 0 -19 -9 -59 -19 -87 -10 -29 -22 -76 -26 -105 -4
-29 -18 -80 -32 -113 -14 -33 -29 -87 -34 -120 -5 -33 -14 -82 -20 -110 -6
-27 -11 -76 -10 -107 1 -32 -2 -58 -7 -58 -6 0 -13 -51 -17 -112 -4 -62 -12
-119 -18 -126 -11 -14 -21 -77 -36 -222 -5 -47 -16 -98 -25 -115 -11 -21 -14
-42 -10 -71 4 -28 1 -51 -9 -70 -8 -16 -18 -63 -21 -104 -3 -41 -10 -113 -15
-160 -5 -47 -10 -119 -11 -160 0 -49 -6 -82 -15 -94 -11 -15 -15 -52 -16 -150
0 -72 -5 -167 -11 -211 -5 -44 -12 -156 -14 -250 -3 -93 -5 -190 -7 -214 -2
-40 1 -45 22 -51 32 -7 36 -22 14 -48 -17 -19 -23 -20 -143 -11 -69 5 -131 11
-137 14 -18 6 -16 40 3 76 8 17 20 72 26 122 12 114 51 373 77 511 6 33 8 70
5 83 -4 14 0 38 10 56 9 18 20 75 25 127 5 52 19 165 31 250 12 85 23 200 24
255 2 55 6 107 10 115 3 8 10 76 15 150 6 74 15 155 21 180 6 25 10 54 9 65
-3 40 -3 84 6 325 4 135 8 256 8 270 -5 256 -4 299 6 317 8 15 8 37 0 79 -6
31 -8 66 -5 78 3 11 0 52 -5 91 -6 38 -12 135 -13 215 -2 80 -6 170 -10 201
l-8 56 36 21 c19 12 52 45 71 74 60 89 83 122 107 152 34 44 66 115 61 135 -3
10 4 36 14 57 19 39 40 109 63 214 7 30 20 71 30 90 9 19 23 60 30 90 7 30 18
62 25 70 14 16 58 110 70 150 10 32 47 91 69 109 9 7 16 17 16 22 0 12 75 127
113 173 82 99 197 198 257 222 25 9 52 23 61 31 8 7 23 13 33 13 9 0 29 6 44
14 15 8 85 19 157 26 71 6 132 13 134 16 6 5 0 7 67 -16z m-80 -518 c5 -5 29
-17 53 -26 51 -20 85 -44 211 -152 88 -76 238 -235 278 -296 9 -14 36 -53 60
-88 23 -34 42 -63 42 -65 0 -3 40 -67 90 -142 146 -225 143 -220 116 -242 -14
-12 -68 -170 -80 -236 -22 -113 -33 -281 -25 -405 4 -74 11 -243 14 -375 6
-241 2 -293 -34 -430 -6 -22 -16 -67 -22 -100 -41 -202 -96 -358 -170 -482
-21 -35 -41 -73 -44 -85 -4 -13 -22 -51 -41 -84 -18 -34 -47 -99 -64 -145 -17
-46 -35 -88 -39 -94 -4 -5 -18 -39 -31 -75 -28 -79 -93 -232 -120 -282 -11
-20 -20 -42 -20 -48 0 -6 -23 -63 -51 -128 -29 -64 -60 -140 -69 -168 -10 -28
-23 -60 -28 -70 -10 -20 -22 -49 -67 -174 -15 -41 -33 -86 -40 -100 -7 -14
-23 -56 -35 -95 -13 -38 -44 -119 -70 -180 -26 -60 -51 -125 -55 -143 -4 -18
-18 -61 -32 -95 -31 -74 -71 -212 -83 -282 -4 -27 -13 -71 -20 -96 -8 -31 -10
-88 -6 -170 13 -255 10 -349 -11 -428 -9 -31 -18 -67 -21 -81 -12 -61 80 -57
-1190 -53 -636 2 -1167 3 -1178 3 -26 0 -124 89 -124 112 0 38 75 62 365 119
55 11 116 23 135 28 75 19 177 43 223 51 26 5 62 16 79 24 17 9 36 16 41 16 6
0 29 9 51 19 23 10 66 30 97 44 31 13 83 42 115 63 33 21 86 52 119 68 33 16
72 40 87 52 15 12 51 30 80 40 149 48 392 196 490 297 35 36 77 96 107 151 54
102 131 315 131 365 0 18 5 42 11 53 7 12 15 62 20 112 4 50 15 163 24 251 9
88 20 214 25 280 5 66 12 134 15 150 3 17 7 55 10 85 2 30 8 96 13 145 6 50
15 140 22 200 6 61 14 117 17 125 3 8 9 62 14 120 7 99 24 208 47 310 17 76
30 150 47 270 9 63 23 158 30 210 8 52 17 111 22 130 4 19 8 53 9 75 3 54 21
196 28 215 3 8 8 83 11 165 3 83 7 197 10 255 3 58 -1 183 -9 278 -12 144 -12
183 -1 230 18 79 26 241 17 337 -4 44 -4 112 0 150 10 87 44 221 66 256 25 39
92 110 138 143 21 17 42 34 45 39 12 18 115 86 130 87 8 0 19 -4 25 -8z m1060
-934 c13 -20 15 -5169 3 -5185 -9 -11 -135 -13 -695 -13 -783 0 -716 -9 -682
95 17 53 20 93 22 335 2 151 7 291 11 310 18 90 106 353 164 495 25 60 119
318 132 360 17 60 96 281 112 315 43 95 99 235 130 325 19 55 44 120 55 145
12 25 37 86 58 135 20 50 42 101 50 115 89 173 208 421 224 471 12 34 35 89
51 121 53 105 101 265 109 363 4 50 14 104 21 120 11 24 14 128 15 540 0 520
7 635 40 720 34 86 81 170 115 207 37 40 53 46 65 26z m5012 -2349 c104 -2
158 -6 170 -15 16 -11 17 -45 18 -391 1 -208 3 -837 5 -1398 l4 -1020 -270 -2
c-754 -6 -2136 -5 -2143 1 -4 4 -8 584 -9 1289 -1 705 -4 1332 -6 1394 -4 95
-2 115 12 127 13 12 49 16 151 18 133 3 1770 0 2068 -3z"/>
<path d="M27755 14811 c-49 -21 -85 -94 -85 -175 0 -33 -7 -66 -17 -84 -15
-26 -15 -32 -3 -46 21 -26 53 -15 72 24 13 24 18 59 18 111 0 78 14 109 52
109 24 0 58 -44 58 -75 0 -24 -42 -119 -86 -195 -8 -14 -23 -47 -34 -74 -20
-47 -22 -48 -54 -43 -46 7 -59 -8 -40 -45 21 -41 61 -54 92 -31 13 10 60 90
105 178 62 124 82 172 85 213 4 51 3 53 -40 97 -46 46 -76 55 -123 36z"/>
<path d="M26680 14730 c-72 -26 -95 -55 -65 -80 16 -13 27 -12 141 15 68 17
73 17 140 -3 38 -11 105 -34 149 -51 99 -39 155 -48 195 -31 53 22 35 44 -40
51 -47 5 -90 18 -155 49 -154 74 -258 88 -365 50z"/>
<path d="M26770 14583 c-25 -9 -61 -23 -80 -31 -19 -9 -55 -18 -80 -21 -42 -6
-45 -8 -45 -36 0 -29 2 -30 50 -36 28 -3 73 -16 100 -27 108 -46 243 -53 342
-18 100 36 166 42 214 21 31 -15 41 -15 54 -5 19 15 21 98 3 105 -7 3 -51 1
-98 -4 -80 -8 -91 -6 -196 25 -136 41 -204 48 -264 27z m283 -79 c9 -3 17 -9
17 -13 0 -20 -35 -34 -87 -35 -48 -1 -58 2 -61 17 -8 40 5 49 61 42 28 -3 60
-9 70 -11z m-285 -17 c2 -10 -3 -17 -12 -17 -18 0 -29 16 -21 31 9 14 29 6 33
-14z"/>
<path d="M22690 4144 c0 -17 22 -14 28 4 2 7 -3 12 -12 12 -9 0 -16 -7 -16
-16z"/>
<path d="M9314 14003 c-450 -544 -840 -1014 -866 -1046 l-48 -58 0 -179 0
-180 1655 -2 1655 -3 27 -28 28 -27 3 -840 2 -840 -2305 0 -2305 0 0 1055 0
1055 -182 -2 -183 -3 -3 -1052 -2 -1053 -765 0 -765 0 0 1055 0 1055 -182 -2
-183 -3 -3 -1052 -2 -1053 -635 0 -635 0 -2 1053 -3 1052 -1070 3 c-601 1
-1114 -2 -1170 -7 -56 -5 -125 -19 -157 -31 -112 -42 -192 -145 -218 -280 -6
-33 -10 -448 -10 -1106 l0 -1054 6294 0 6294 0 114 -114 c200 -200 410 -314
688 -373 130 -27 400 -24 540 6 273 59 541 214 704 408 l61 71 1053 1 1052 1
-2 2018 -3 2017 -182 3 -183 2 0 -1835 0 -1835 -766 0 c-609 0 -765 3 -761 13
59 158 86 450 57 632 -31 197 -120 419 -230 573 -204 287 -528 486 -885 542
-103 16 -316 14 -425 -5 -539 -92 -964 -508 -1075 -1050 -39 -190 -27 -454 29
-631 l24 -74 -624 0 -624 0 0 823 c0 476 -5 862 -10 917 -21 192 -110 303
-282 352 -32 9 -404 13 -1516 17 l-1473 6 777 918 c644 762 774 921 763 931
-51 47 -260 226 -263 226 -3 0 -372 -444 -822 -987z m-6064 -2333 l0 -870
-945 0 -945 0 0 829 c0 525 4 839 10 856 21 55 -2 54 978 55 l902 0 0 -870z
m11630 510 c343 -88 606 -352 692 -695 32 -129 32 -344 0 -465 -91 -341 -349
-604 -688 -702 -68 -20 -102 -23 -244 -23 -142 0 -176 3 -245 23 -329 95 -590
356 -686 684 -30 105 -38 324 -14 439 78 388 378 678 778 755 102 19 298 12
407 -16z"/>
<path d="M18660 12450 l0 -2020 185 0 185 0 -2 2018 -3 2017 -182 3 -183 2 0
-2020z"/>
<path d="M1780 13921 c-45 -14 -84 -39 -116 -73 -53 -55 -68 -95 -68 -173 0
-78 15 -118 68 -173 52 -56 101 -76 181 -76 80 0 129 20 181 76 53 55 68 95
68 173 0 52 -5 80 -21 110 -58 109 -186 168 -293 136z"/>
<path d="M2510 13921 c-45 -14 -84 -39 -116 -73 -53 -55 -68 -95 -68 -173 0
-78 15 -118 68 -173 52 -56 101 -76 181 -76 80 0 129 20 181 76 53 55 68 95
68 173 0 52 -5 80 -21 110 -58 109 -186 168 -293 136z"/>
<path d="M6550 13921 c-46 -15 -85 -39 -116 -73 -53 -55 -68 -95 -68 -173 0
-78 15 -118 68 -173 52 -56 101 -76 181 -76 80 0 129 20 181 76 53 55 68 95
68 173 0 101 -48 180 -138 227 -43 22 -136 32 -176 19z"/>
<path d="M7270 13921 c-45 -14 -84 -39 -116 -73 -53 -55 -68 -95 -68 -173 0
-78 15 -118 68 -173 52 -56 101 -76 181 -76 80 0 129 20 181 76 53 55 68 95
68 173 0 52 -5 80 -21 110 -58 109 -186 168 -293 136z"/>
<path d="M4970 9911 c-46 -15 -85 -39 -116 -73 -53 -55 -68 -95 -68 -173 0
-78 15 -118 68 -173 52 -56 101 -76 181 -76 80 0 129 20 181 76 53 55 68 95
68 173 0 101 -48 180 -138 227 -43 22 -136 32 -176 19z"/>
<path d="M17457 8023 c-4 -3 -7 -836 -7 -1850 l0 -1843 -915 0 -915 0 0 464
c0 255 -5 510 -10 567 -58 565 -331 945 -790 1101 -166 56 -283 73 -510 72
-172 0 -223 -3 -318 -22 -581 -116 -916 -509 -982 -1151 -5 -57 -10 -312 -10
-567 l0 -464 -695 0 -695 0 0 531 c0 596 -5 667 -65 846 -145 434 -467 711
-937 805 -150 30 -438 32 -568 5 -265 -56 -466 -162 -634 -337 -170 -177 -282
-398 -327 -650 -20 -108 -17 -437 5 -565 83 -495 310 -791 710 -927 206 -70
215 -70 864 -75 l582 -4 0 -510 c0 -541 -1 -553 -47 -575 -10 -5 -409 -11
-888 -14 l-870 -5 -3 -182 -2 -183 903 0 c611 0 923 4 963 11 135 25 240 110
285 231 23 63 23 64 27 646 l3 582 3104 0 3105 0 0 2035 0 2035 -178 0 c-98 0
-182 -3 -185 -7z m-6895 -1811 c254 -69 493 -242 601 -438 48 -85 93 -219 107
-310 5 -39 10 -301 10 -601 l0 -533 -572 0 c-610 0 -690 5 -828 50 -284 94
-450 314 -506 673 -23 143 -15 413 15 517 95 328 366 573 726 655 91 21 347
14 447 -13z m4043 -2 c369 -100 604 -388 670 -820 12 -73 15 -205 15 -577 l0
-483 -980 0 -980 0 0 483 c0 509 5 584 50 747 28 103 119 282 183 360 135 166
335 278 562 313 17 3 113 4 215 2 152 -3 199 -7 265 -25z"/>
<path d="M18710 5995 l0 -2035 185 0 185 0 -2 2033 -3 2032 -182 3 -183 2 0
-2035z"/>
<path d="M13857 7555 c-139 -53 -209 -221 -147 -350 25 -51 87 -111 137 -131
58 -25 146 -20 208 11 190 93 190 359 0 457 -51 26 -147 33 -198 13z"/>
<path d="M14587 7555 c-139 -53 -209 -221 -147 -350 25 -51 87 -111 137 -131
58 -25 146 -20 208 11 190 93 190 359 0 457 -51 26 -147 33 -198 13z"/>
<path d="M810 7471 c-103 -32 -176 -119 -187 -226 -15 -148 105 -277 257 -276
76 0 134 26 185 83 49 53 66 97 66 170 1 167 -165 296 -321 249z"/>
<path d="M1540 7471 c-103 -32 -176 -119 -187 -226 -15 -148 105 -277 257
-276 76 0 134 26 185 83 49 53 66 97 66 170 1 167 -165 296 -321 249z"/>
<path d="M340 6443 c-14 -2 -54 -14 -90 -25 -90 -29 -176 -114 -211 -208 l-24
-65 -3 -1092 -3 -1093 2888 0 2888 0 30 -41 c44 -61 185 -190 268 -245 320
-216 711 -283 1088 -189 326 82 613 288 794 571 89 139 159 317 192 489 25
135 23 369 -6 505 -57 270 -176 488 -370 681 -194 192 -419 312 -689 366 -120
24 -384 24 -504 0 -256 -51 -484 -168 -667 -343 -100 -95 -146 -151 -225 -277
-142 -227 -215 -541 -187 -812 10 -98 44 -262 66 -317 7 -17 -27 -18 -624 -18
l-631 0 0 1060 0 1060 -185 0 -185 0 0 -1060 0 -1060 -645 0 -645 0 0 1060 0
1060 -1147 -1 c-632 -1 -1159 -4 -1173 -6z m1950 -1238 l0 -875 -955 0 -955 0
0 838 c1 898 -1 869 51 898 19 11 199 13 942 14 l917 0 0 -875z m4800 516
c325 -85 573 -320 673 -637 109 -345 21 -714 -233 -974 -133 -136 -281 -224
-460 -271 -111 -29 -328 -32 -434 -6 -224 56 -431 194 -572 380 -61 80 -138
241 -166 342 -31 116 -31 335 0 458 47 188 125 324 266 462 137 134 288 215
476 256 118 26 330 21 450 -10z"/>
<path d="M3721 3438 c-199 -35 -278 -277 -137 -426 157 -168 438 -54 437 176
0 70 -16 115 -60 165 -63 72 -147 101 -240 85z"/>
<path d="M4451 3438 c-199 -35 -278 -277 -137 -426 157 -168 438 -54 437 176
0 70 -16 115 -60 165 -63 72 -147 101 -240 85z"/>
<path d="M3610 1185 l0 -335 -135 0 -134 0 6 50 c12 105 -48 206 -149 250 -93
40 -208 13 -276 -64 -41 -47 -66 -131 -57 -191 l7 -45 -110 0 -111 0 -3 171
c-4 225 16 209 -252 209 l-202 0 -82 -65 c-45 -36 -84 -65 -87 -65 -3 0 -5 29
-5 65 l0 65 -35 0 -35 0 0 -190 0 -190 -130 0 -130 0 0 190 0 190 -35 0 -35 0
0 -325 0 -325 -100 0 -100 0 0 -36 0 -36 116 4 c152 4 154 6 154 159 l0 109
613 0 c612 0 614 0 633 -21 49 -54 173 -84 248 -59 20 6 57 27 82 46 l44 34
185 0 185 0 0 370 0 370 -35 0 -35 0 0 -335z m-1030 -180 l0 -155 -280 0 -280
0 0 84 0 84 88 71 87 70 193 0 192 1 0 -155z m610 75 c56 -28 83 -72 87 -139
3 -45 -1 -64 -19 -96 -60 -103 -204 -114 -285 -22 -124 141 47 343 217 257z"/>
<path d="M3840 1150 l0 -370 35 0 35 0 0 370 0 370 -35 0 -35 0 0 -370z"/>
<path d="M7490 1185 l0 -335 -165 0 -165 0 0 98 c0 163 -34 236 -128 280 -75
34 -170 28 -239 -14 -75 -46 -97 -101 -102 -246 l-3 -118 -128 0 -128 0 -3
123 c-4 112 -6 126 -32 169 -85 145 -323 143 -398 -4 -47 -92 -30 -236 34
-301 45 -44 94 -57 221 -57 l106 0 0 -100 0 -100 -160 0 -160 0 0 -36 0 -35
176 3 c221 4 214 -2 214 159 l0 109 565 0 565 0 0 370 0 370 -35 0 -35 0 0
-335z m-1248 5 c48 -14 97 -55 114 -97 9 -20 14 -71 14 -138 l0 -105 -122 0
c-136 0 -173 12 -201 67 -54 105 -12 233 88 268 49 17 60 18 107 5z m739 0
c82 -23 119 -97 119 -240 l0 -100 -175 0 -175 0 0 93 c0 50 5 109 11 130 14
50 55 95 104 112 48 17 69 18 116 5z"/>
<path d="M7720 1150 l0 -370 35 0 35 0 0 370 0 370 -35 0 -35 0 0 -370z"/>
<path d="M9190 1185 l0 -335 -140 0 -139 0 6 50 c17 148 -110 281 -257 267
-31 -2 -75 -14 -97 -25 -43 -22 -97 -78 -108 -111 -6 -19 -14 -21 -96 -21 -82
0 -92 -2 -114 -25 l-25 -24 0 -226 0 -225 35 0 35 0 0 215 0 215 69 0 69 0 7
-42 c20 -117 105 -194 225 -205 69 -7 116 8 176 53 l44 34 190 0 190 0 0 370
0 370 -35 0 -35 0 0 -335z m-430 -105 c56 -28 83 -72 87 -139 3 -45 -1 -64
-19 -96 -56 -96 -189 -114 -272 -37 -145 136 24 364 204 272z"/>
<path d="M9420 1150 l0 -370 390 0 390 0 0 35 0 35 -167 0 -168 0 -42 79 c-40
73 -43 85 -43 155 l0 76 160 0 160 0 0 35 0 35 -170 0 c-168 0 -171 0 -195
-25 -23 -22 -25 -32 -25 -116 0 -90 1 -95 40 -160 22 -37 40 -70 40 -73 0 -3
-67 -6 -150 -6 l-150 0 0 335 0 335 -35 0 -35 0 0 -370z"/>
<path d="M11230 1185 l0 -335 -100 0 -100 0 0 -35 0 -35 140 0 140 0 0 -100 0
-100 -305 0 -305 0 0 185 0 185 -35 0 -35 0 0 -194 c0 -176 2 -196 19 -217
l19 -24 337 0 337 0 19 24 c17 20 19 40 19 167 l0 144 -40 0 -40 0 0 335 0
335 -35 0 -35 0 0 -335z"/>
<path d="M11540 1150 l0 -370 35 0 35 0 0 370 0 370 -35 0 -35 0 0 -370z"/>
<path d="M15390 1185 l0 -335 -135 0 -134 0 6 50 c12 105 -48 206 -149 250
-93 40 -208 13 -276 -64 -41 -47 -66 -131 -57 -191 l7 -45 -203 0 -204 0 -42
79 c-40 73 -43 85 -43 155 l0 76 160 0 160 0 0 35 0 35 -170 0 c-168 0 -171 0
-195 -25 -23 -22 -25 -32 -25 -116 0 -90 1 -95 40 -160 22 -37 40 -70 40 -73
0 -3 -70 -6 -155 -6 l-155 0 0 190 0 190 -35 0 -35 0 0 -325 0 -325 -100 0
-100 0 0 -36 0 -36 116 4 c152 4 154 6 154 159 l0 109 418 0 c413 0 419 0 438
-21 49 -54 173 -84 248 -59 20 6 57 27 82 46 l44 34 185 0 185 0 0 370 0 370
-35 0 -35 0 0 -335z m-420 -105 c56 -28 83 -72 87 -139 3 -45 -1 -64 -19 -96
-60 -103 -204 -114 -285 -22 -124 141 47 343 217 257z"/>
<path d="M15620 1150 l0 -370 35 0 35 0 0 370 0 370 -35 0 -35 0 0 -370z"/>
<path d="M16770 1185 l0 -335 -295 0 -295 0 0 140 0 140 -35 0 -35 0 0 -149
c0 -135 2 -151 21 -175 l20 -26 675 0 674 0 0 225 0 225 -35 0 -35 0 0 -190 0
-190 -135 0 -135 0 0 190 0 190 -35 0 -35 0 0 -190 0 -190 -125 0 -125 0 0
335 0 335 -35 0 -35 0 0 -335z"/>
<path d="M17660 1150 l0 -370 35 0 35 0 0 370 0 370 -35 0 -35 0 0 -370z"/>
<path d="M6832 1418 c-17 -17 -15 -53 3 -68 38 -31 96 27 65 65 -15 18 -51 20
-68 3z"/>
<path d="M6962 1418 c-17 -17 -15 -53 3 -68 38 -31 96 27 65 65 -15 18 -51 20
-68 3z"/>
<path d="M13240 1415 c-31 -38 27 -96 65 -65 18 15 20 51 3 68 -17 17 -53 15
-68 -3z"/>
<path d="M16417 1392 c-24 -25 -37 -47 -37 -65 0 -27 1 -27 65 -27 37 0 65 -4
65 -10 0 -6 -32 -10 -75 -10 l-75 0 0 -30 0 -30 95 0 95 0 0 60 c0 56 -2 61
-26 70 -14 6 -37 10 -51 10 l-26 0 21 23 c17 18 19 26 10 35 -17 17 -20 16
-61 -26z"/>
<path d="M506 1404 c-30 -30 -13 -74 29 -74 27 0 45 18 45 45 0 42 -44 59 -74
29z"/>
<path d="M636 1404 c-30 -30 -13 -74 29 -74 27 0 45 18 45 45 0 42 -44 59 -74
29z"/>
<path d="M4466 1404 c-30 -30 -13 -74 29 -74 27 0 45 18 45 45 0 42 -44 59
-74 29z"/>
<path d="M4596 1404 c-30 -30 -13 -74 29 -74 27 0 45 18 45 45 0 42 -44 59
-74 29z"/>
<path d="M12156 1404 c-30 -30 -13 -74 29 -74 27 0 45 18 45 45 0 42 -44 59
-74 29z"/>
<path d="M12286 1404 c-30 -30 -13 -74 29 -74 27 0 45 18 45 45 0 42 -44 59
-74 29z"/>
<path d="M17026 1404 c-30 -30 -13 -74 29 -74 27 0 45 18 45 45 0 42 -44 59
-74 29z"/>
<path d="M17156 1404 c-30 -30 -13 -74 29 -74 27 0 45 18 45 45 0 42 -44 59
-74 29z"/>
<path d="M13170 1223 c-60 -31 -94 -72 -111 -137 -16 -57 -5 -138 25 -191 l25
-45 -150 0 -149 0 0 190 0 190 -35 0 -35 0 0 -190 0 -190 -115 0 -115 0 0 190
0 190 -215 0 c-287 0 -265 21 -265 -250 l0 -200 741 0 741 0 -4 158 c-3 151
-4 159 -31 204 -38 65 -98 99 -185 105 -59 4 -74 1 -122 -24z m152 -33 c48
-14 97 -55 114 -97 9 -20 14 -71 14 -138 l0 -105 -110 0 c-90 0 -118 4 -149
20 -127 64 -111 267 24 315 49 17 60 18 107 5z m-882 -185 l0 -155 -170 0
-170 0 0 155 0 155 170 0 170 0 0 -155z"/>
<path d="M18035 1239 c-83 -31 -134 -102 -142 -199 -11 -118 45 -221 134 -248
22 -7 88 -12 147 -12 l106 0 0 -100 0 -100 -160 0 -160 0 0 -36 0 -35 176 3
c221 4 214 -2 214 159 l0 109 160 0 160 0 0 225 0 225 -35 0 -35 0 0 -190 0
-190 -124 0 -124 0 -3 123 c-4 112 -6 126 -32 169 -39 66 -98 100 -185 104
-37 2 -80 -1 -97 -7z m127 -49 c48 -14 97 -55 114 -97 9 -20 14 -71 14 -138
l0 -105 -122 0 c-136 0 -173 12 -201 67 -54 105 -12 233 88 268 49 17 60 18
107 5z"/>
<path d="M405 1205 c-25 -24 -25 -25 -25 -225 l0 -200 485 0 485 0 0 225 0
225 -35 0 -35 0 0 -190 0 -190 -210 0 -210 0 0 190 0 190 -215 0 c-216 0 -216
0 -240 -25z m385 -200 l0 -155 -170 0 -170 0 0 155 0 155 170 0 170 0 0 -155z"/>
<path d="M4365 1205 c-25 -24 -25 -25 -25 -225 l0 -200 518 0 c515 0 519 0
538 -21 49 -55 159 -82 239 -59 64 18 139 87 159 147 30 89 15 168 -45 237
-128 145 -361 95 -414 -89 -11 -36 -14 -70 -10 -100 l7 -45 -106 0 -106 0 0
190 0 190 -35 0 -35 0 0 -190 0 -190 -115 0 -115 0 0 190 0 190 -215 0 c-216
0 -216 0 -240 -25z m385 -200 l0 -155 -170 0 -170 0 0 155 0 155 170 0 170 0
0 -155z m900 75 c56 -28 83 -72 87 -139 3 -45 -1 -64 -19 -96 -60 -103 -204
-114 -285 -22 -124 141 47 343 217 257z"/>
<path d="M4986 674 c-30 -30 -13 -74 29 -74 27 0 45 18 45 45 0 42 -44 59 -74
29z"/>
<path d="M5116 674 c-30 -30 -13 -74 29 -74 27 0 45 18 45 45 0 42 -44 59 -74
29z"/>
<path d="M11492 678 c-17 -17 -15 -103 3 -138 l16 -30 -31 0 c-27 0 -31 -3
-28 -22 3 -22 7 -23 121 -26 l117 -3 0 26 c0 24 -2 25 -65 25 -61 0 -65 1 -80
30 -8 16 -15 45 -15 65 l0 35 70 0 c68 0 70 1 70 25 0 25 -1 25 -83 25 -51 0
-88 -5 -95 -12z"/>
<path d="M12676 674 c-30 -30 -13 -74 29 -74 27 0 45 18 45 45 0 42 -44 59
-74 29z"/>
<path d="M12806 674 c-30 -30 -13 -74 29 -74 27 0 45 18 45 45 0 42 -44 59
-74 29z"/>
<path d="M17426 674 c-30 -30 -13 -74 29 -74 27 0 45 18 45 45 0 42 -44 59
-74 29z"/>
<path d="M18596 674 c-30 -30 -13 -74 29 -74 27 0 45 18 45 45 0 42 -44 59
-74 29z"/>
<path d="M1040 665 c-31 -38 27 -96 65 -65 18 15 20 51 3 68 -17 17 -53 15
-68 -3z"/>
<path d="M1182 668 c-17 -17 -15 -53 3 -68 38 -31 96 27 65 65 -15 18 -51 20
-68 3z"/>
</g>
</svg>
