<?xml version="1.0" encoding="utf-8"?>
<!-- Generator: Adobe Illustrator 21.0.2, SVG Export Plug-In . SVG Version: 6.00 Build 0)  -->
<svg version="1.1" id="Layer_1" xmlns="http://www.w3.org/2000/svg" xmlns:xlink="http://www.w3.org/1999/xlink" x="0px" y="0px"
	 viewBox="0 0 2999 1610" style="enable-background:new 0 0 2999 1610;" xml:space="preserve">
<style type="text/css">
	.st0{fill:#FFFFFF;}
	.st1{fill:#A5A5A5;}
</style>
<path class="st0" d="M2759.4,1.8c-3.6,0.4-7.8,1.2-9.5,1.9c-1.6,0.6-5.9,1.6-9.5,2.1c-7.7,1.1-17.8,4.2-24,7.5
	c-2.5,1.3-7.9,3.9-12.1,5.7c-9.8,4.4-16.9,9.1-24.6,16.1c-8.7,8-14.5,20.4-17.3,37c-1.2,7.7-3.3,10.8-6.8,10.4
	c-3.7-0.4-4-3.5-0.9-10.1c4.3-9,6.9-25.3,4.5-28.3c-4.8-6.1-7-7.4-11.9-7.4c-5.5,0-11.4,2.5-16.7,7.1c-1.7,1.6-5.5,3.8-8.2,5
	c-7.3,3.1-6.5,7,1.9,9.4c3.4,1,3.6,1.3,3.3,5c-1.5,22.3-1.5,23.1,0.8,27.6c4.6,9.1,8.4,11.3,18.8,11.1c8.6-0.2,9,0.4,7.2,8.1
	c-0.7,2.9-1.3,7.7-1.5,10.7c-0.3,5.8-3.5,18-7.9,29.5c-1.5,3.8-3.3,8.8-4.1,11c-0.7,2.2-3.6,9.1-6.4,15.4c-4,8.9-5.1,12.4-5.1,16.5
	c0,2.8,0.4,5.6,0.8,6.2c1.6,2.6,7.9,5.4,11.9,5.4h4.1l-0.2,8.7c-0.1,6.2-0.7,9.8-1.9,12c-2.2,4.1-2.1,5.5,0.3,8.6
	c1.7,2.2,2,4,2,14.5c0,11.5,0.1,12.2,2.6,15.1c4,4.8,5.4,5.2,13.1,4.1c6.6-0.9,7-0.9,14.1,2.5c6.3,3,7.5,4,9.2,7.7
	c2.3,5,2.6,12.5,0.6,17.1c-4.1,9.6-14.6,13.2-41.7,14.2c-34.2,1.3-51.6,2.5-57.9,3.9c-3.6,0.9-9.4,1.8-13,2.1
	c-6.8,0.6-27.7,6.8-39.4,11.7c-9.6,4-20.5,13.2-26.7,22.4c-6.8,10.2-13.5,24.8-15.8,34.7c-1.1,4.5-2.8,11.8-3.9,16.2
	c-1.1,4.4-3,12.5-4.2,18c-1.2,5.5-2.6,11.8-3.2,14c-0.5,2.2-1.4,6.8-1.8,10.2c-0.5,3.5-1.4,7.2-2,8.2c-0.5,1.1-1,2.9-1,4
	c0,1.1-0.6,3.5-1.4,5.3c-2.1,5-3.7,10-4.3,12.8c-0.3,1.4-2.5,7.5-4.9,13.6c-2.4,6.1-4.4,11.6-4.4,12.2c0,0.6-4.7,11.7-10.5,24.6
	c-5.8,12.9-10.5,23.7-10.5,24.1c0,0.3-1.1,3-2.3,5.8c-4.4,9.7-5.7,13.2-9.2,25.2c-4.5,15.6-6,19.8-8.9,24.3
	c-5.7,8.8-11,11.5-49.6,24.7c-23,7.9-49.6,18.6-55.5,22.3c-2.2,1.4-8.3,4.8-13.5,7.5c-5.2,2.7-10.8,5.9-12.5,7.1
	c-4.7,3.4-25.9,15.3-40,22.4c-2.7,1.4-6.1,3.3-7.5,4.2c-5.7,4-27.5,14.2-41.2,19.4c-16.3,6.1-29.1,8.8-44.8,9.2
	c-5.2,0.2-10.5,0.6-11.7,0.9c-1.3,0.3-10.8-0.2-21.1-1.1c-18-1.5-28.3-1.4-40.5,0.4c-3.1,0.4-6.3,0.5-7,0c-0.9-0.6-1.2-36-1.3-168
	c-0.1-159.6-1.1-337.3-2-359.8c-0.2-5.8-0.8-20-1.2-31.5c-0.9-23.9-1-24.4-9.7-33.5c-2.9-3-6-6.9-7-8.7l-1.9-3.2l5-5.6
	c2.7-3.1,5.8-6.8,6.9-8.3c1.1-1.5,3.2-4.3,4.6-6.2c4.4-5.9,17.6-29.3,19.2-34c0.8-2.5,2.6-7,4-10.1c2.6-5.9,5-17.1,4.1-19.4
	c-2.3-6-16.8,2.1-27.9,15.7c-16,19.6-17.3,21.4-28.7,42.4c-11.8,21.8-16.8,29.1-28.2,41.9c-7.4,8.2-10.8,14.4-12.1,21.9
	c-1.1,5.8-2.6,9.3-8.4,19.1c-6.1,10.4-7.4,13.6-10,24c-2.6,10.4-2.8,12.2-1.6,13.4c2.3,2.3,8.5-1.1,13-7.2
	c8-10.8,8.9-12.3,18.6-30.6c6.2-11.6,19.8-24.1,26.3-24.1c3.8,0,8.4,3.6,9.7,7.7c1.7,5.8,1.8,12.4,2.5,180.8
	c0.7,186.8,0.6,238.4-0.5,375l-0.1,14l-7.3,3.1c-3.9,1.7-8.8,3.7-10.7,4.4c-1.9,0.7-6.4,2.3-10,3.7c-3.6,1.3-9.8,2.8-13.8,3.3
	c-10.9,1.2-12.5,3.5-7.4,10.6c1.7,2.4,4.7,4.7,7.3,5.9c6.7,2.9,7.9,4.2,7.9,9c0,3.5,0.7,5,4,8.8c3.4,3.8,4,5.2,4,8.9
	c0,3.4,0.8,5.5,3.4,9.2c1.8,2.6,3.6,6.5,4,8.6c0.4,2.5,2,5.6,4.6,8.5c2.2,2.5,4,5.6,4,6.8c0,3.1,2.7,6.7,6.2,8.1l2.9,1.3l0.2,273.4
	l0.2,273.5l-4.6,5.4c-15.8,18.6-18.3,44-6.1,62.1c4,5.8,6.6,8.2,8.9,7.7c1.6-0.3,1.9-1.7,2.3-12.3c0.7-15.6,1.6-17.3,11-19.4
	c4.1-0.9,4.5-0.8,7.7,2.4c2.8,2.8,3.3,4,3.3,7.8c0,4.4,1.8,7.7,4.2,7.7c2.6,0,7.1-4.7,10.8-11.4c2.2-4.1,4.6-7.6,5.3-7.8
	c1.2-0.5,2.7-0.3,21.4,2.3c7.3,1,9.7,1,11.9,0.1l2.6-1.3l-0.2-26.2c-0.2-35.2,0.7-56,3-69.2c1.1-6,2-13.4,2-16.3c0-3,0.7-8,1.5-11.2
	c0.8-3.2,1.9-10.2,2.5-15.6c1-9.7,1.8-14.9,4.1-26.9c0.6-3.3,1.2-8,1.4-10.5c0.1-2.5,1-7.1,1.9-10.2c1-3.2,1.5-6.6,1.2-7.6
	c-0.4-1,0-3.5,0.9-5.5c0.8-2,1.5-5.3,1.5-7.4s0.7-5.6,1.5-7.8c0.8-2.2,1.4-5.8,1.5-8c0-2.2,0.7-5.1,1.5-6.5c0.8-1.4,1.5-4.8,1.5-7.5
	c0-2.8,0.7-7.9,1.6-11.5c0.9-3.6,1.6-7.8,1.6-9.4c-0.1-1.6,0.5-4.1,1.2-5.5c0.7-1.4,1.6-5.6,1.9-9.3c0.4-3.8,1.1-7.7,1.7-8.8
	c0.6-1.1,1.5-4.5,2.1-7.5c0.5-3,1.6-6.7,2.4-8.2c0.8-1.6,1.5-4.1,1.5-5.6c0-3.1,4-18.1,6.3-23.7c0.8-1.9,1.8-5.5,2.2-8
	c0.4-2.5,1.6-5.7,2.6-7.1s2.8-5.4,4-9c1.2-3.5,2.5-6.9,2.9-7.4c0.4-0.6,1.5-3.3,2.4-6.2c1.5-4.6,1.5-5.5,0.3-7.5
	c-0.8-1.3-2-4.5-2.6-7.3c-0.7-2.7-1.6-5.4-2.1-6c-0.4-0.5-1.5-3.3-2.4-6c-0.8-2.8-2.5-7.5-3.6-10.5c-1.7-4.6-2-7.6-1.8-18
	c0.1-8.5,0.6-13.1,1.5-14.5c0.7-1.1,1.3-3.1,1.3-4.5c0-1.4,0.4-3,0.9-3.6c1.4-1.3,4.3-12.1,4.9-17.8c0.2-2.9,1.2-5.6,2.3-6.7
	c1.1-1.1,3.1-4.5,4.5-7.7c1.4-3.1,3.5-6.8,4.8-8.2c1.3-1.4,4.1-5.2,6.3-8.5c4.7-7,17.2-19.2,23.5-22.9c6.7-3.9,19.1-7.6,25.6-7.6
	c4,0,7.3,0.8,11,2.5c3,1.4,6.1,2.5,6.9,2.5c2.1,0,6.3,4.1,6.3,6.2c0,2.1-7.9,9.1-12.8,11.2c-2,1-4.4,2.1-5.2,2.6
	c-0.8,0.5-2.9,1.6-4.6,2.4c-12.5,5.6-40.4,34.1-40.4,41.2c0,1.1-0.4,2.4-0.9,3c-2.5,2.4-4.2,16.6-4,33.6c0,9.5-0.4,21.5-1.1,26.7
	c-0.6,5.2-0.9,11.2-0.6,13.5c0.3,2.3,0.6,16.2,0.7,31.1c0.1,20.6-0.3,28.8-1.4,34.5c-0.9,4.1-1.8,14.7-2.2,23.5
	c-0.4,9.4-1.4,19.8-2.6,25.2c-1,5.1-1.9,11-1.9,13c0,2.1-0.7,6.3-1.5,9.3c-0.8,3-1.8,8.6-2.1,12.5c-0.3,3.8-1.5,10.5-2.5,14.7
	c-1.1,4.3-2.2,10.6-2.5,14c-0.3,3.5-1,7.8-1.6,9.6c-0.5,1.8-1.4,9.2-1.8,16.5c-0.5,7.2-1.8,18.1-2.9,24.2c-1.1,6-2.1,14.6-2.1,19
	c0,4.4-0.8,11.6-1.6,16c-0.8,4.4-1.9,15.2-2.4,24c-0.5,8.8-1.6,19.6-2.4,24c-0.8,4.4-1.7,12.7-2,18.5c-0.6,9.9-1.5,15.7-5.2,32.5
	c-2.1,9.2-7.9,26-10.9,31.1c-2.4,4.1-18.7,20.2-23.5,23.2c-1.4,0.9-3.8,2.6-5.3,3.9c-3,2.4-16.9,9.3-18.8,9.3c-1.2,0-9,3.4-11.9,5.1
	c-0.8,0.5-3.1,1.6-5,2.5c-11.1,4.7-13.9,6.2-18,9c-4.1,2.8-13.2,7.5-29.1,14.8c-8.8,4-20.6,7.6-24.7,7.4c-2,0-6.8,0.6-10.7,1.4
	c-3.8,0.9-10.8,2.1-15.5,2.8c-4.7,0.6-11.4,2.1-15,3.2c-10.2,3-12.2,3.6-16.3,4.3c-8.5,1.4-10.3,8.9-4.1,17c1.9,2.6,3.3,5.3,3,6.1
	c-0.4,1.1-4.6,1.4-22.9,1.4c-21.1,0-22.5,0.1-24.2,2c-1.6,1.8-1.8,4.2-1.6,29.6c0.2,24.2,0.4,28,1.9,30l1.7,2.4l91.5-0.1
	c64,0,91.9-0.4,92.8-1.1c0.9-0.8,1.9-0.8,3.5,0.1c1.6,0.9,5.9,1.1,14.3,0.7c6.5-0.3,13.7-0.5,15.9-0.5c36.8,0.7,100.4,0.5,102.2-0.4
	c1.6-0.7,3-0.7,4.6,0c3.4,1.6,60.9,1.6,61.9,0c0.5-0.9,1.5-0.9,4,0c1.8,0.6,5.6,0.9,8.3,0.6c10.4-1,20.5-1.1,21-0.2
	c0.8,1.3,6.9,1.1,8.2-0.2c0.7-0.7,2.8-0.9,5.5-0.5c2.3,0.3,4.8,0.5,5.3,0.4c0.6,0,37.7-0.3,82.5-0.4c61.1-0.3,81.6-0.1,82.1,0.8
	c0.5,0.8,1.1,0.9,2.1,0.1c1.9-1.5,12.2-1.6,217.8-1.7c147.9-0.1,187,0.2,188.7,1.2c1.9,1,2.5,0.9,4.6-1c4.4-4.2,4.7-5.9,5.2-28.5
	c0.3-12,0.7-23.8,1-26.3c0.7-6.7-0.2-7.4-9.2-7.8c-9.7-0.5-10.7-1.2-9.9-7.1c0.3-2.5,0.6-40,0.5-83.5c-0.1-71.5-0.1-209.4,0-220.6
	c0-2.5-0.1-8.8-0.3-14c-0.6-22.6-0.8-124.9-0.2-125.9c0.4-0.6,3.8-1.1,8.2-1.1c7,0,13.3-1.8,13.4-3.8c0.3-5.9,0-141.9-0.3-147.7
	c-0.3-4.4-0.9-26-1.4-48s-1.3-40.6-1.7-41.3c-0.4-0.8-1.2-4.3-1.7-8c-1-8.3-7.4-24.3-12.2-31c-5.9-8-13.9-13.2-20.1-13.2
	c-6.3,0-15.7,5.3-22.9,12.9c-6.8,7.2-10.4,13.6-13.2,23.6c-2.8,9.6-4.3,10-5.6,1.2c-0.4-2.8-1.7-11.3-2.8-18.7
	c-1.7-11.5-3.9-57.6-3.3-70c0.1-1.4,0.3-7.9,0.5-14.5c0.5-15,4.8-39.2,7.7-43c0.4-0.6,1-3.1,1.2-5.6c0.7-5.9,6.3-17.6,21.3-43.9
	c2.7-4.7,7.9-14.6,11.7-22c3.8-7.4,8.1-15.2,9.6-17.3c1.5-2,3.8-5.9,5.1-8.5c1.4-2.6,5.2-9.4,8.6-15.2
	c12.1-20.4,17.9-30.5,19.4-33.4c0.8-1.7,4.2-7.1,7.5-12.2c13.7-20.8,17.5-27.1,28.7-47.9c4.3-8.1,11.8-27,14.3-36.5
	c1-3.6,2.3-8.3,3.1-10.5c3.9-11.7,5.7-34.8,4.4-56c-0.8-12.4-1.2-14.9-4.4-23c-1.9-4.9-4.4-10.4-5.4-12.1
	c-1.8-3-11.2-11.2-20.2-17.7c-5.4-3.9-22.5-12.7-24.8-12.7c-1,0-4.4-0.9-7.7-2.1c-11.6-4-22.4-5.7-60.6-9.3
	c-8.1-0.8-15.2-1.7-15.8-2.1c-0.6-0.4-5.9-0.9-11.7-1.1c-13.4-0.5-22.3-1.9-24.1-3.8c-1.3-1.3-1.3-2,0.1-5.5
	c1.1-2.8,1.5-5.5,1.1-8.5c-0.5-3.1-0.1-5.8,1-8.6c0.9-2.2,1.6-5,1.6-6.1c0-2.6,5.8-17.4,8.6-22c2.6-4.2,31.6-35.2,39.5-42.2
	c3-2.7,8.5-8.3,12.2-12.5c22-24.7,31.3-74,20.3-108.2c-1.3-4.1-2.7-9.3-3-11.5c-1.1-7.4-9.1-21-16.9-28.7
	c-6.1-6-21.6-18.4-28.2-22.5c-7.8-4.9-26.5-12.3-31.1-12.3c-0.9,0-4.8-1.1-8.8-2.5c-3.9-1.3-9.6-3-12.6-3.6
	C2801.5,1.3,2770,0.8,2759.4,1.8z M2088.1,38.4c-7.2,22-14.6,36.1-29.5,56.1c-15.8,21.2-17.7,24.4-16.2,27.2
	c0.6,1.2,2.7,2.8,4.5,3.6c9.1,3.8,15.7,14.3,16.8,27c0.4,3.8,1,66.4,1.3,139.1s0.9,144.1,1.4,158.5c0.9,25.3,0.6,114.3-0.6,232.3
	c-0.4,41-0.9,56.3-1.7,57.2c-0.7,0.6-2.8,1.4-4.8,1.8c-4.7,0.9-6.7-1.2-5-5.2c0.8-2,1.1-23.5,0.9-75.3c-0.1-39.9,0-91.4,0.3-114.5
	c0.3-23.1,0.1-58.4-0.3-78.5c-1-44.5-1.7-139.7-1.8-237.5c-0.1-40.2-0.4-74.7-0.7-76.8c-0.5-3.1-1.6-4.7-5.5-7.7
	c-10.1-8.1-17.9-6-31.4,8.2c-6.5,6.9-9.3,11.1-15.9,23.3c-10.9,20.3-15.5,26.4-15.5,20.5c0-2.4,3.3-9,12.9-26
	c3.9-6.8,7.1-13.6,7.1-15c0-7.8,8.3-21.6,18-30c9.7-8.4,11.6-11.4,23.2-38.4c2.8-6.4,8.9-16.3,16.5-26.6
	c5.4-7.4,22.7-24.8,24.7-24.9C2088.1,36.7,2088.5,37.2,2088.1,38.4z M2649.6,44.7c3.8,2.9,4.2,8.7,1.3,18.7c-1.3,4.5-3.1,9.5-3.8,11
	c-0.8,1.5-1.7,4.9-2.1,7.5c-0.6,4-0.4,5,1.3,6.7c1.3,1.3,3.4,2.1,5.6,2.1c5.6,0,3.9,3.2-2.6,5c-4,1.2-9.3-0.2-12.6-3.2
	c-2.9-2.7-4.7-10.5-3.8-17c0.8-5.9,3.3-12.8,4.6-12.8c0.4,0,1.3-0.8,1.8-1.9c1.6-2.8-0.9-5.3-6-6c-5.5-0.8-5.8-2.9-0.6-4.7
	c3.6-1.3,3.9-1.2,4.4,0.6c0.6,2.4,4.8,2.7,5.7,0.4c0.8-2.1-0.1-3.4-2.5-3.4c-3,0-2.2-1.9,1.4-3.5C2646,42.3,2646.7,42.4,2649.6,44.7
	z M2685.9,102.8c13.6,2,29.7,5.2,39.3,7.8c2.3,0.6,6,1.6,8.1,2.1c5.6,1.5,8.4,5.3,7.7,10.5c-2,12.9-1.9,17.3,0.4,21
	c2.6,4.3,4.7,5.5,9.4,5.5c7,0,8.3-1.2,13.9-12.7c4.8-10,5.5-11,9.7-13c2.7-1.3,6.5-2.2,9.2-2.3c4.1,0,5.4,0.5,8.9,3.7
	c6.2,5.6,7.2,8.3,6.4,16.7c-0.7,7-2.9,12.7-6.7,17.6c-2.3,2.8-4.8,8.5-4.8,10.7c0,2.2-3.9,10.4-7.3,15c-3.7,5.2-8.1,7-13.1,5.3
	c-4.1-1.3-6.3-3.6-6.8-7c-0.2-1.9-1-2.6-3-2.8c-2.5-0.3-2.8,0-2.8,2.6c0,1.6,1.3,4.7,2.9,6.9c4,5.5,9,8.4,13.8,8.2
	c2.2-0.2,4.5,0.1,5.1,0.5c0.7,0.4,3.1,4.6,5.3,9.2c2.6,5.6,5.5,10,8.7,13.2c2.7,2.6,5.6,6,6.6,7.5c0.9,1.6,4.7,4.8,8.4,7.2
	c3.7,2.3,8.4,5.7,10.6,7.4c2.1,1.7,4.4,3.1,5.1,3.1c0.7,0,1.8,0.7,2.5,1.5c1,1.3,1,2.3-0.2,5.3c-5.1,12.5-7.7,26.1-8.3,42.7
	c-0.2,7.2-1.1,15.7-2,19c-0.9,3.3-2.1,8-2.7,10.5c-0.6,2.5-2.8,8.2-4.9,12.6c-6.5,13.7-20.3,24.8-35.7,28.8
	c-7.7,1.9-17.8,2-25.2,0.2c-5.8-1.5-17.7-5.4-19.6-6.5c-14.8-8.5-28.3-25.2-32.3-39.8c-2.6-9.8-2.6-14.3-0.1-21.4
	c3-8.7,3.6-17.6,1.5-24.2c-2.1-6.8-3.6-8.2-10-9.8c-2.8-0.6-7.8-2.5-11.3-4.2c-5.7-2.7-6.7-2.9-9.6-1.9c-4.4,1.6-7.2,1.5-9-0.4
	c-1.9-1.8-2.1-8.6-0.5-11.6c0.8-1.6,0.8-3.1,0-6c-1.4-4.6-0.3-6.8,3.6-6.8c2.6,0,7.4-2.2,11.2-5.2c1.5-1.1,3.7-1.8,5.8-1.6
	c3.1,0.2,5.2-1.2,5.3-3.4c0-1.5-3.3-3.8-5.4-3.8c-1.2,0-3.5-1.4-5.2-3.1c-3.5-3.7-7.7-6.1-12.3-6.8c-1.9-0.3-3.6-1.1-3.8-1.7
	c-0.6-1.9,2.6-4.4,5.7-4.4c3.6,0,9-5.9,9-9.8c0-5.1-1.1-7.3-3.4-7c-1.5,0.2-2.2,1.2-2.6,3.8c-0.8,4.8-1.7,6-4.6,6
	c-2.8,0-2.9-0.3-1.1-3.1c1.8-3-1.5-5.2-6.8-4.4c-4.2,0.6-6.5,2.6-6.5,5.8c0,1.3-0.6,1.8-2.2,1.5c-3.8-0.5-3.5-6.7,0.8-16.8
	c4.1-9.6,9.9-25.3,11.9-32c4.8-16.4,6.2-21.9,5.8-22.3c-0.2-0.3,0.3-3.2,1.1-6.5c0.9-3.3,1.6-8.4,1.6-11.4s0.6-6,1.3-6.7
	C2664,100.5,2673.4,100.9,2685.9,102.8z M2660,217.8c1.9,2.1,1.9,2.1-1.1,1.7c-1.9-0.2-3.1-1-3.3-2.1
	C2655.1,215,2657.7,215.2,2660,217.8z M2657.8,224.3c0.9,0.3,1.6,1.5,1.6,2.5c0,1.6-0.8,1.9-4.5,1.9c-3,0-4.5-0.4-4.5-1.3
	C2650.4,224.4,2654.1,222.9,2657.8,224.3z M2836.3,311.1c1.7,1.1,1.3,8.7-0.6,10.8c-2.4,2.7-4.8,2.2-8.9-1.6
	c-3.5-3.3-3.6-3.6-2.4-6.6c0.7-1.7,1.9-3.4,2.8-3.9C2828.6,309,2834.1,309.8,2836.3,311.1z M2859.8,310.7c1.1,1.1-2,13.7-7.5,30
	c-2.7,8.2-8.6,20.9-10.9,23.5c-1,1.1-3.9,5.1-6.5,9c-2.6,3.8-5.7,8.1-6.9,9.4c-3.1,3.4-19.3,15.3-25.1,18.4
	c-8.6,4.5-18.2,8.7-20.1,8.7c-1.1,0-3.7,0.9-6,1.9c-2.2,1-7.1,2.2-10.9,2.6c-3.8,0.4-7.8,1-9,1.5c-2.5,0.9-29.8-1.6-34-3.1
	c-1.6-0.6-4.3-1.5-6-1.9c-23.7-6.7-40.5-21.4-51.7-45.3c-1.6-3.4-3.3-7-3.9-8c-3.9-7-9-21-10.4-28.6c-2.2-11.2-1.6-12.3,5.9-11.9
	l5.1,0.3l0.6,4.5c0.8,5.7,5.8,20.5,9.8,29c5.3,11.2,12.8,22.3,18.8,27.8c7,6.4,22.3,15.1,32.4,18.5c17.1,5.8,40.3,6.8,54.9,2.4
	c18.5-5.6,38.5-18.1,45.5-28.5c1.4-2,4.1-5.9,6-8.5c3.8-5.1,10.5-19.4,10.5-22.3c0-1.5,1-5.1,5.1-19c0.5-1.7,0.9-4.6,0.9-6.5
	c0-1.9,0.5-4,1.1-4.6C2848.8,308.7,2858.2,309.3,2859.8,310.7z M2876.7,312.3c5.4,0.8,6.4,2.5,3.9,6.8c-1,1.7-2.4,4.9-3,7.1
	c-7.7,27.7-15.4,42.7-32.3,63.5c-11,13.5-22.7,23.2-38.1,31.5c-5.2,2.7-21.6,9-26.3,10c-1.6,0.4-4.8,1.4-7,2.3
	c-5.3,2.1-40.8,3-51,1.3c-15.8-2.7-36.7-10.1-46.2-16.4c-7-4.7-22.9-19.6-25.5-23.8c-0.8-1.3-4.1-6.6-7.3-11.7
	c-7.9-12.8-13.3-30.6-15.5-51.5c-1.5-13.5-1.3-13.9,7.9-13.5l6.6,0.3l0.6,8.5c0.3,4.7,1.3,10.1,2.2,12c0.9,1.9,3.9,9.2,6.6,16.2
	c2.8,7,6.5,15.1,8.4,18c1.8,2.9,3.9,6.5,4.6,8c3.8,7.6,22,25.4,30.6,30.1c17.8,9.6,43.7,14.1,67.3,11.7c12.4-1.4,27.7-6.3,43.2-14.1
	c16.4-8.1,36.2-27.8,43.5-43c1.4-3,3.9-7.9,5.6-11c3.3-6.5,7.9-20.6,10.4-32.4c0.9-4.4,1.9-8.6,2.1-9.3
	C2868.4,311.5,2870.1,311.4,2876.7,312.3z M2900,314.7c1.6,0,3.9,0.6,4.9,1.4c1.8,1.3,1.8,1.6,0.3,5.2c-0.9,2.2-3.6,10.2-6.1,17.9
	c-2.5,7.7-5.9,17.1-7.5,21c-3.5,8.2-13.3,25.7-16.8,30c-1.3,1.6-4.2,5.5-6.3,8.6c-6.9,9.8-21.9,24-33.4,31.8
	c-5.9,3.9-11.8,7.6-13.2,8.1c-1.4,0.5-6,3-10.3,5.4c-4.2,2.5-11.3,5.4-15.7,6.6c-4.4,1.2-11.4,3.3-15.5,4.7
	c-10.8,3.7-32.6,6.6-42,5.7c-4.1-0.4-9.3-0.8-11.5-0.9c-13.7-0.9-23.6-3.3-43-10.3c-12.1-4.3-16.4-6.3-30.5-14.3
	c-10.5-5.9-16.5-11.3-22.6-20.4c-5.2-7.7-16.4-29.1-16.4-31.4c0-0.9-0.9-4.4-1.9-7.7c-4.5-13.8-7.5-32.3-8.3-50.9l-0.3-6l7.3-0.3
	c6.9-0.2,7.2-0.1,7.2,2c0,1.3,0.7,5.5,1.5,9.3c0.8,3.9,2.2,10.4,3,14.5c5,24.2,11.4,38.6,25.1,56.5c15.4,20.1,31.7,30,63.9,38.7
	c9.9,2.6,12.7,2.9,28,3.1c19.7,0.2,32.1-0.6,38.7-2.7c18.6-5.8,37.6-14.4,45-20.3c2.5-2.1,7.4-6,10.7-8.6
	c9.7-7.8,26.5-27.9,32.7-39.2c7-12.7,14.5-29.2,16.4-36.1c5.4-19.9,7-23,11.5-21.9C2896,314.5,2898.3,314.7,2900,314.7z M2680.2,316
	c1.6,1.8,2.5,6.3,1.7,8.5c-0.5,1.9-5.1,4.2-8,4.2c-1,0-4.5-6.6-4.5-8.5c0-0.7,7.4-5.4,8.6-5.4C2678.6,314.7,2679.6,315.3,2680.2,316
	z M2924.4,320.3c18.8,4.2,33.6,10.5,45.3,19.4c7.4,5.5,14.7,17.2,18.4,29c2.3,7.5,2.6,10.2,2.7,23.5c0,17.4-2.4,32.4-8.3,51.5
	c-0.5,1.4-1.6,5-2.5,8c-4.1,13.9-7.7,23.8-11,30.7c-1.4,2.9-2.6,5.7-2.6,6.3c0,1.8-3.2,1-6.9-1.8c-4-3-20.9-11.6-31.1-15.7
	c-3.6-1.4-7.8-3.2-9.5-4c-14-6.6-20.8-9.5-22-9.5c-0.8,0-3.8-0.9-6.7-2c-2.9-1.1-6.5-2-7.9-2c-1.4,0-3.3-0.6-4.3-1.3
	c-1.7-1.2-1.6-1.7,1.8-7.3c4-6.5,6.9-15.4,6-17.8c-0.3-0.9-1.5-1.6-2.6-1.6c-1.5,0-3.1,2.4-6.9,10.7c-2.8,6-6.5,12.4-8.4,14.3
	c-1.8,1.9-5.8,7.8-8.8,13c-3,5.2-7.2,12.1-9.4,15.3c-2.1,3.2-4.2,6.6-4.8,7.5c-0.5,1-3.6,6-6.8,11.2c-6,10-6.1,10-9.6,16.8
	c-1.2,2.3-3.6,6.8-5.3,10c-1.6,3.1-5.9,11.2-9.4,17.8c-6.5,12.6-10.7,19.3-12.7,20.6c-0.7,0.4-4.1,0.5-7.7,0.2
	c-3.6-0.4-15.9-0.1-27.5,0.6c-11.5,0.7-30.2,1.4-41.5,1.5c-11.3,0.2-23.9,0.8-28,1.4c-7.9,1.1-22.2,2.6-40.5,4.1
	c-6,0.5-14.1,1.4-18,2.1c-3.8,0.6-7.9,1.1-9,1.1c-1.1,0-6.4-0.1-11.8-0.2c-11.4-0.2-11.7-0.5-14.4-11.1c-1.6-6.6-7.5-21-13.6-33.4
	c-5.9-12.1-8.3-21.9-11.3-46c-3.3-26.4-4-29.9-8.3-41.5c-2.6-7-7.1-12.6-9.4-11.7c-0.9,0.3-1.7,1.5-1.7,2.6c0,2.9-1,3.2-7.6,2.1
	c-3.2-0.6-8.8-1.3-12.4-1.5c-23.3-1.7-37.2-2.2-42-1.5c-3.1,0.4-5.9,0.4-6.5-0.1c-0.6-0.6-0.4-2.7,0.4-5.7c1.5-5,2.3-9.9,4.1-22.4
	c1.1-7.8,5.1-22,9.6-33.9c5.7-15.1,20.3-30.1,36.1-37.1c12.5-5.5,52.3-14.2,54.6-11.9c0.6,0.6,1.4,5.4,1.8,10.8s1.3,12.2,1.8,15.2
	c0.6,2.9,1.1,7.1,1.1,9.2c0,5.3,1.4,10.9,7.2,28.6c6.6,20.6,12.3,30.6,24.5,43.4c10.6,11.1,33.1,24.5,49.1,29.3
	c4.4,1.3,9.3,3.1,10.9,3.9c1.6,0.9,8.9,2.8,16.3,4.3c11.8,2.5,15.6,2.8,30.5,2.8c20.1-0.1,28.3-1.2,46.9-6.5
	c29.6-8.4,55.7-23,74.1-41.4c10-10,18.2-19.4,21-24c1-1.7,3.3-5.3,5.1-8c9.6-15,22.2-44.6,29-68.3
	C2914.4,318.3,2915.5,318.4,2924.4,320.3z M2831.5,331.9c3.7,4.6,1.7,11.2-3.9,12.3c-3,0.6-3.9,0.2-6.8-2.6
	c-4.8-4.6-4.5-7.5,0.9-9.9C2827.3,329.2,2829.2,329.3,2831.5,331.9z M2676.9,334.7c0.3,0.5,0.1,1-0.4,1c-0.6,0-1.1-0.5-1.1-1
	c0-0.6,0.2-1,0.4-1C2676.1,333.7,2676.6,334.1,2676.9,334.7z M2688.9,337.1c1.1,0.8,1.8,2.6,1.8,4.6c0,3.7-2.3,6-6.1,6
	c-6.3,0-8-4.5-3.5-9.2C2684.1,335.4,2686.1,335,2688.9,337.1z M2821.1,351.1c0.7,0.6,1.5,2.6,1.9,4.3c0.5,2.7,0.2,3.6-2.2,5.8
	c-3.5,3.2-7.7,2.8-11.1-1.1c-3.6-4-2.4-9.5,2.2-10.6C2814.6,348.8,2819.6,349.7,2821.1,351.1z M2700.7,354.5
	c3.6,3.4,3.4,4.7-1.2,7.8c-3.1,2-4.7,2.4-7,1.9c-1.7-0.4-3.4-1.1-3.7-1.6c-1.1-1.8,0.6-7.9,2.8-9.9
	C2694.2,350.3,2696.7,350.8,2700.7,354.5z M2684.4,353.2c1.5,1.9,0.6,4.7-1.4,3.9c-1.7-0.6-2.9-3.2-2-4.5
	C2681.8,351.3,2683,351.5,2684.4,353.2z M2803.4,358.7c-1.2,2.2-4,2.7-4,0.7c0-1.9,1-2.7,3.2-2.7
	C2804.2,356.7,2804.3,357,2803.4,358.7z M2716.5,366c2.7,1.8,3.5,3,3.7,6c0.3,3.2-0.1,3.9-3,5.7c-4.7,2.9-7.3,2.5-10.2-1.3
	c-3.2-4.1-3.3-7.3-0.4-10.4C2709.3,363.1,2712.2,363.1,2716.5,366z M2802.3,369.3c2.8,3.6,3.6,6.5,2,7.5c-1.6,1-8,1.2-10.3,0.3
	c-3.8-1.5,0.1-10.4,4.5-10.4C2799.5,366.7,2801.2,367.9,2802.3,369.3z M2787.8,370.1c-0.6,1.5-3.4,3-4.2,2.2c-1-1.1,0.9-3.6,2.7-3.6
	C2787.7,368.7,2788.2,369.2,2787.8,370.1z M2698.4,371.1c0,0.2,0.3,1.2,0.7,2.1c0.5,1.5,0.3,1.6-1.5,0.6c-2.5-1.3-2.9-3.1-0.7-3.1
	C2697.7,370.7,2698.4,370.9,2698.4,371.1z M2739.4,379.8c1.4,5.2,0.6,8.5-2.3,9.5c-7.2,2.5-12.6-5.1-8.1-11.4
	c1.1-1.6,2.5-2.2,5.4-2.2C2738.1,375.7,2738.4,375.9,2739.4,379.8z M2782.9,377.1c3.9,2.9,0.9,12.6-4,12.6c-2.3,0-6.3-4-7-7.1
	C2770.6,376.9,2777.8,373.3,2782.9,377.1z M2747.9,377.7c0.3,0.5-0.1,1-0.9,1c-0.9,0-1.6-0.5-1.6-1c0-0.6,0.4-1,0.9-1
	C2746.9,376.7,2747.6,377.1,2747.9,377.7z M2760.3,383.1c1.8,6.4,0.4,8.6-5.4,8.6c-5.2,0-7.1-2.3-6.1-7.3c0.9-4.4,2.4-5.7,6.5-5.7
	C2758.8,378.7,2759,378.9,2760.3,383.1z M2721.1,386.2l2.8,2.4l-3,0.1c-3.3,0-5.5-1.5-5.5-3.7C2715.4,382.9,2718,383.5,2721.1,386.2
	z M2745.4,390.7c1.2,0.8,1.2,1-0.3,1.6c-2,0.7-4.7-0.1-4.7-1.6C2740.4,389.5,2743.4,389.4,2745.4,390.7z M2770.9,390.7
	c0.3,0.6-0.1,1.3-1,1.6c-1.9,0.8-3,0-2-1.5C2768.7,389.4,2770.1,389.4,2770.9,390.7z M2509.1,447.1c-0.2,1.7-1.2,5.8-2.2,9.1
	c-1.5,5.2-2.6,9.7-5,20.2c-0.4,1.6-1.3,2.3-2.9,2.3c-4.6,0-4.8-1.8-1.2-14.1c1.9-6.3,3.7-12.8,4-14.4c1.2-4.9,3.2-7.4,5.7-6.8
	C2509.2,443.9,2509.5,444.6,2509.1,447.1z M2491.9,444.7c0.3,0.6-0.5,3.8-1.8,7.3c-1.3,3.4-3.2,9.6-4.2,13.7
	c-2,8.8-2.7,10.4-4.6,10.7c-3.2,0.6-4.1-1.2-2.9-5.8c2.2-8.6,7.3-24.4,8.3-25.7C2487.8,443.4,2491,443.3,2491.9,444.7z
	 M2522.5,444.7c3.1,1.7,2.7,3.7-4.4,24c-0.8,2.5-1.7,5.6-1.9,7c-0.2,1.9-1,2.6-3.1,2.8c-3.8,0.5-4.3-1.7-2.2-9.6
	c3.2-12.1,7.7-25.2,8.7-25.2C2520.1,443.7,2521.4,444.2,2522.5,444.7z M2541.5,444.7c2.3,1.3,2.4,2.7,0.4,6.8
	c-3,6-8.5,22.7-8.5,25.9c0,3.7-0.1,3.8-4.8,2.1c-3.7-1.4-3.6-0.5-1.2-10.8c0.4-1.9,2-6.6,3.4-10.4c1.4-3.8,2.6-7.9,2.6-9.2
	C2533.4,444.8,2537.4,442.6,2541.5,444.7z M2561.1,448.4c0.4,0.9-0.5,3.6-1.9,6.2c-2.7,4.9-8.8,23.6-8.8,27c0,2.5-3.1,2.9-5.3,0.7
	c-1.3-1.3-1.2-2.2,0-6.8c0.8-2.9,1.9-7.1,2.3-9.3c0.5-2.2,1.8-6.8,3-10.3c1.8-5.1,2.8-6.5,5.4-7.7
	C2559.9,446.4,2560.4,446.4,2561.1,448.4z M2566.4,457.2c1.5,1.9,0.9,6.8-2.4,18.8c-2.6,9.7-3.4,11.1-5.9,10.1
	c-3-1.1-2.8-4.1,0.8-14.7c1.9-5.8,3.5-11.7,3.5-13.1C2562.4,455.4,2564.5,454.9,2566.4,457.2z M2867.4,472.4
	c-1.8,3.2-3.8,6.5-4.5,7.3c-0.6,0.8-1.8,3.1-2.5,5c-2.8,7.5-7.4,14-9.7,14c-4.3,0-2.3-5.3,7.1-19.4c3.6-5.3,6.6-10.1,6.6-10.6
	s1-1.6,2.2-2.4C2870.5,463.5,2870.9,466.2,2867.4,472.4z M2884.1,468.9c1.8,0.7,3.3,1.7,3.3,2.4c0,1-3.7,7.9-11.2,20.9
	c-1.5,2.7-3.7,6.9-4.8,9.2c-1.5,3.3-2.5,4.3-4.2,4.3c-2.6-0.1-5.8-2.2-5.8-3.8c0-1.3,9.8-20.1,11.5-22.2c0.7-0.8,2.5-3.9,3.9-6.8
	c1.4-2.8,2.9-5.2,3.3-5.2C2880.5,467.7,2882.3,468.2,2884.1,468.9z M2901.9,473.1c3.8,1.6,4.4,3.6,1.9,5.7
	c-0.9,0.7-3.5,5.4-5.8,10.3c-2.3,5-5.5,11.1-7,13.5c-1.8,2.8-2.6,5.2-2.3,6.8c0.6,3-1.7,4.1-4.1,2.1c-0.9-0.8-2.9-1.9-4.5-2.6
	l-2.7-1.2l3.6-7.2c2-4,4.4-8.4,5.4-9.8s3.5-5.9,5.6-10c3.3-6.5,5-8.9,6.2-9C2898.3,471.7,2900,472.4,2901.9,473.1z M2920.2,483.3
	c3.2,1.5,4.1,3.7,2.2,4.9c-0.6,0.4-2.7,3.9-4.6,7.8c-2,4-4.6,8.5-5.9,10.2c-3.4,4.6-5.5,9.1-5.5,12c0,1.4-0.5,2.5-1,2.5
	c-2.2,0-9-4.1-9-5.4c0-1.4,5-10.8,12.2-22.6c2.4-4.1,4.8-8.3,5.1-9.3C2914.5,481.3,2916.2,481.2,2920.2,483.3z M2937.3,489.3
	c1.8,0.9,3.5,2.2,3.8,3c0.3,0.7-1.1,3.9-3,7.1c-7.8,12.9-13.5,23.3-14.1,25.7c-0.3,1.4-1.2,2.6-1.9,2.6c-1.7,0-7.7-3.8-7.7-4.9
	c0-0.5,3.8-7.3,8.5-15.2c4.7-7.9,8.5-15.3,8.5-16.5C2931.4,487.3,2932.6,487,2937.3,489.3z M2572.3,494.8c0.6,1.8,1.1,5.9,1.1,9.3
	c0,7.2,3,16,11.8,35.1c7,15,10,23.8,14.3,41.4c2.7,11.2,3.1,14.8,3.5,32.6c0.3,11,1,22.7,1.5,26c0.5,3.3,0.9,11,0.9,17
	c0,6.1,0.4,12.5,1,14.4c0.5,1.9,1,9.5,1.1,17c0.1,9.3,0.6,14.5,1.6,16.4c0.8,1.5,1.1,3.2,0.8,3.7c-2.5,4.1-32.1,20.6-47.3,26.4
	c-3.8,1.5-8.9,3.9-11.3,5.4c-7.7,4.9-26.8,13.2-30,13.2c-0.9,0-2.2,0.6-2.8,1.4c-0.7,0.8-3.5,2.2-6.4,3.2c-4.7,1.7-8.8,1.9-46.2,1.9
	h-41l-9.7,2.7c-5.4,1.5-15.1,4.5-21.5,6.6c-6.5,2.1-14.9,4.7-18.7,5.8c-7.4,2.1-8.6,3.3-6.6,6.9c1.3,2.4,0.7,4.5-1.2,4.5
	c-0.6,0-4,2.7-7.5,6.1c-8.9,8.2-9.7,7.9-10.1-4.3c-0.2-8.5-0.5-9.9-2.2-10.8c-2.3-1.2-7.6-0.1-15,3c-2.5,1-7.8,3.1-11.7,4.5
	c-6.8,2.5-7.3,2.9-7.3,5.6c0,2.3,1.1,4,4.5,7.1c6.9,6.3,15.5,21.1,15.5,26.8c0,1-1,3.1-2.3,4.6l-2.3,2.7l-33.5,0.4
	c-36.7,0.4-37.9,0.6-37.9,6.2c0,1.5,0.7,5,1.5,7.7c1.9,6.2,3.9,26.4,2.7,27.6c-0.5,0.5-7.1,1.1-14.8,1.3c-11.3,0.4-15.4,1-21.8,3.1
	c-9.1,2.9-16.8,6.6-19.6,9.4c-1,1-3.3,2.6-5,3.5c-3.8,2-25.8,24.2-26.6,27c-0.4,1.1-1.5,3.1-2.5,4.4c-1.1,1.3-1.9,3.1-1.9,4.1
	c0,0.9-1.1,2.7-2.5,4c-1.4,1.3-2.5,3.2-2.5,4.3c0,1-0.9,3-2,4.4c-1.1,1.4-2,3.1-2,3.8s-0.8,2.3-1.8,3.6c-2.4,3.1-5.6,12-8.6,24.2
	c-1.3,5.4-3.1,10.6-4,11.6s-1.6,2.6-1.6,3.6s-0.4,3.2-0.9,4.9c-7,23.6-9.7,28.7-23.6,43.9c-3.5,3.8-5.1,6.4-4.8,7.6
	c0.3,1.1-0.2,2.1-1.1,2.4c-0.9,0.4-1.6,0.1-1.7-0.6c0-0.7-0.7,0.6-1.5,2.8c-1.2,3-1.3,4.8-0.5,7.5c1.6,5.5,2.5,12.8,2.7,22.5
	c0.1,4.9,0.5,17.3,0.8,27.5c0.8,25.6,0.8,62.5-0.1,81c-0.3,8.5-0.7,17.1-0.6,19c0,1.9-0.6,4.1-1.4,4.8c-1.5,1.6-1.5,1.4-2,21.2
	c-0.6,27.8-1.5,37.7-3.8,43.4c-0.8,1.9-1.3,7.5-1.3,14.6c0.1,6.3-0.4,13.3-1,15.5c-0.6,2.2-1.9,10.7-2.8,19
	c-0.9,8.2-2.2,17.2-3,19.9c-0.8,2.7-1.4,6.7-1.4,8.7c0,2.1-0.5,5-1.1,6.6c-0.6,1.5-1.3,5.3-1.5,8.3c-0.6,8.4-3.3,30.3-4,32
	c-0.7,1.9-3.3-1.3-7-8.5c-1.4-2.8-4-6.6-5.8-8.5c-1.9-1.9-3.7-4.8-4-6.4c-1.3-5.3-0.7-550.7,0.5-552.3c0.6-0.7,3.1-1.3,5.4-1.3
	c2.4,0,6.5-0.4,9.2-0.9c2.6-0.6,8-1.5,11.8-2.2c8.5-1.4,18.4-5,33-11.9c17.7-8.4,19.1-9,20.4-9c0.6,0,2.9-0.9,5.1-2
	c2.2-1.1,4.7-2,5.6-2s3-0.6,4.7-1.4c7.2-3.3,11.6-4.9,19.2-7c21.3-6,31.8-9,40-11.7c14.1-4.4,16.5-5,24-5.9c3.9-0.4,10.2-1.7,14-2.9
	c8.3-2.4,26.7-6.6,27.7-6.3c0.6,0.1,11.1-2.6,28.3-7.3c2.8-0.7,8.6-2.3,13-3.5c11.7-3.2,20.7-6.3,32-11c5.5-2.3,13.6-5.4,18-7
	c22.3-8.1,27.9-10.2,38.5-14.5c29.5-12.2,55.8-21.5,60.8-21.5c4.3,0,9-3.5,11.1-8.2c1-2.4,3.9-8.8,6.4-14.3c2.4-5.5,5.7-12.7,7.2-16
	c1.5-3.3,3.8-8.7,5-12c1.3-3.3,3.4-8.2,4.8-10.8c1.4-2.6,3.1-6.4,3.7-8.5c0.6-2,3.8-9.3,7-16.2c3.2-6.9,7.3-16.3,9-21
	c10.1-26.9,14-37.6,15-41.7c0.4-1.8,2.2-7.6,3.9-13c4.1-13.2,7.9-27.4,8.7-32.6C2567.1,491.2,2570.4,489.3,2572.3,494.8z
	 M2511,497.2c7.2,0.8,14.6,2.1,16.5,2.9c1.9,0.7,8.7,2.7,15.3,4.2c6.6,1.6,12.1,3.5,12.4,4.2c0.2,0.8-0.1,3.2-0.7,5.5
	c-3.7,12.6-4.7,15.4-5.8,17.2c-0.7,1.1-1.3,3.1-1.3,4.6s-1.6,7.1-3.6,12.5c-2,5.5-4.6,13-5.9,16.9c-5.3,16.3-9.8,28-13.5,35.5
	c-2.2,4.3-4,8.2-4,8.5c0,0.3-2,4.7-4.4,9.8c-2.4,5.1-5.6,12.1-7.2,15.7c-1.6,3.6-4.6,9.4-6.6,13c-2.1,3.6-3.8,6.8-3.8,7.3
	c0,0.4-1.8,4.4-3.9,9c-2.2,4.5-4.4,10.1-5.1,12.5c-1.2,4.7-4.1,8.2-6.6,8.2c-0.9,0-5.6,1.5-10.3,3.4c-4.8,1.9-10.4,3.7-12.6,4.1
	c-2.2,0.4-6,1.8-8.5,3.1c-4.4,2.3-23.2,9.5-30,11.6c-1.9,0.5-3.9,1.4-4.5,1.8c-0.9,0.7-6.6,2.8-36.1,12.9c-6.1,2.1-12,4.4-13.2,5
	c-1.1,0.6-4.4,1.7-7.4,2.5c-2.9,0.8-7.8,2.4-10.8,3.6c-4.9,1.9-21.9,6.8-31,9c-11.6,2.7-44.1,11.3-47.5,12.4
	c-2.2,0.8-7.6,2.1-12,3.1c-14.8,3.1-30,6.8-33.2,8.2c-1.8,0.7-4.5,1.3-6,1.3c-1.6,0-4.4,0.8-6.3,1.8c-1.9,1.1-4.1,1.7-4.8,1.4
	c-1.5-0.5-7.2-12.4-7.2-14.8c0-0.8-0.9-4-2.1-7.2c-1.8-5.1-3.6-12.4-5.6-23.1c-0.7-3.8,1.3-6.1,5.2-6.1c2.2,0,47.9-22.9,64.5-32.3
	c1.4-0.8,6.9-3.7,12.3-6.6c5.4-2.8,11.6-6.3,13.8-7.6c2.1-1.4,4.1-2.5,4.5-2.5c0.3,0,3.6-1.7,7.2-3.9c21.3-12.3,28.8-15.4,82.2-34.2
	c1.9-0.6,7.8-3.1,13-5.4c5.2-2.4,10.5-4.6,11.7-5c4.4-1.3,14.4-8.8,17.2-12.8c1.6-2.3,4.3-8.5,6.1-13.7c1.8-5.2,3.7-10.1,4.2-10.7
	c0.6-0.7,2.1-4.8,3.4-9c3.2-10.9,6.9-21.3,8.8-24.8c0.9-1.7,1.6-3.5,1.6-4.2c0-0.6,1.4-4.1,3-7.8c1.7-3.7,3-7.3,3-8.1
	c0-0.7,0.9-3,1.9-5.1c1-2.1,4.1-9,6.7-15.3c2.6-6.3,5.3-12.2,6-13C2471.6,494.8,2491.6,495,2511,497.2z M2954.5,498.7
	c2.9,1.6,2.3,4-2.7,11.6c-2.5,3.8-5.2,8.2-5.9,9.9c-3.9,8.2-9.2,16-10.9,16c-2.7,0-4.4-3.1-2.9-5.3c3-4.3,10.7-18,15.5-27.5
	C2950.7,497.4,2951.3,497,2954.5,498.7z M2849.5,518.3c5.7,2,10.9,4,11.5,4.5s5.5,2.7,11,5c5.4,2.2,11.9,5.1,14.4,6.4
	c2.5,1.3,10.1,5.1,17,8.5c13.6,6.8,21,11.6,21,13.6c0,0.7-1.7,4.1-3.8,7.6c-2.2,3.5-6.7,11.2-10.2,17.3c-7.4,12.9-10.5,18-14.2,23.8
	c-1.5,2.3-2.8,4.8-2.8,5.5s-1.2,3.4-2.7,6c-1.4,2.6-4.4,8.1-6.6,12.2c-2.2,4.1-5.6,10.4-7.7,14c-6.7,11.8-15.3,26.4-17.5,30
	c-1.2,1.9-3.8,7.1-5.9,11.4c-5.1,10.8-8.9,16.1-12.8,17.6c-7.1,2.9-14.4,6.1-16.8,7.6c-8.3,4.9-43.8,21.7-50.4,23.8
	c-4.4,1.5-8.4,3-9,3.5s-2.9,1.4-5.1,2.1c-6,1.8-17.9,6.3-19.1,7.2c-0.6,0.4-5.5,2.2-11,3.8c-5.4,1.7-12.1,3.9-14.9,5
	c-2.7,1.1-9.7,3.3-15.5,4.9c-5.8,1.6-13.9,4.2-18,5.6c-4.1,1.5-11.5,3.7-16.5,5c-4.9,1.2-11.5,3-14.5,3.9
	c-5.8,1.8-12.7,3.8-19.5,5.5c-2.2,0.6-6.7,1.8-10,2.6c-3.3,0.9-8.2,2-11,2.5c-2.7,0.5-8.1,1.9-12,3c-3.8,1.1-9.5,2.7-12.5,3.6
	c-3,0.8-6.6,2-7.9,2.5c-2.9,1.2-5.2-0.6-5.3-4.2c-0.2-6.7-2-26-2.7-29.9c-3.4-16.8-3.4-17.1-2-18.5c0.8-0.7,4.8-2.6,8.9-4.3
	c4.1-1.6,11.3-5,15.9-7.6c4.6-2.5,8.6-4.6,8.8-4.6c0.3,0,1.8-0.9,3.3-2c1.5-1.1,6.3-3.8,10.6-6.1c7.6-3.9,17.8-10.4,21.9-13.8
	c1.1-1,5.4-3.7,9.5-6.1c4.1-2.4,8.2-4.9,9-5.6c0.8-0.7,5.6-3.3,10.5-5.9c5-2.6,9.5-5,10-5.5c0.6-0.4,6-3.3,12-6.5
	c6.1-3.2,12.1-6.6,13.5-7.5c6.5-4.5,40.6-21,43.3-21c0.7,0,2.5-0.7,4.2-1.6c5.1-2.6,21.7-9.4,23.2-9.4c2.7,0,11.1-5,13.8-8.2
	c2.9-3.4,3-3.6,6.6-13.3c6.5-17.7,8-21.4,11.7-29.5c10.7-23.5,10-22.2,20-41c2.5-4.7,5.6-10.8,7-13.5c1.4-2.8,3.3-6.1,4.3-7.4
	c1.1-1.3,1.9-3.2,1.9-4.2C2836.4,514,2837.5,514.2,2849.5,518.3z M2796.8,570.3c2.3,0.9,2,2.7-1.3,8.7c-1.6,2.8-4.4,9.4-6.2,14.6
	c-1.7,5.2-3.8,10.6-4.5,12c-0.8,1.4-1.4,3.4-1.4,4.5c0,4.2-5.1,11.4-10,14c-2.6,1.4-5.4,2.6-6.1,2.6c-0.8,0-6.8,2.5-13.4,5.5
	c-6.5,3-12.5,5.5-13.2,5.5s-3,0.9-5,2c-2.1,1.1-4.2,2-4.8,2c-4.3,0-47.3,21-60.5,29.5c-4.1,2.7-12.7,7.7-19,11.3
	c-6.3,3.5-16.5,9.8-22.7,13.8c-6.2,4.1-11.6,7.4-12.1,7.4c-0.6,0-1-4.5-1.1-10.3c0-11.5-1.4-33.6-4.6-76.2
	c-0.2-3.3-0.7-10.8-0.9-16.8c-0.3-5.9-0.7-11.6-1.1-12.6c-0.9-2.9,2.9-4.9,11.5-6.1c8-1,12-1.4,41.9-3.5c10.7-0.8,20.6-1.7,22-1.9
	c1.4-0.3,15.1-1,30.5-1.6c15.3-0.6,31.9-1.5,37-2c5-0.5,16.1-1.2,24.6-1.5c8.5-0.3,15.6-0.8,15.9-1.1
	C2792.9,569.5,2795,569.6,2796.8,570.3z M2852.4,707.7c-0.7,1.7-2.7,4.2-4.4,5.5c-3.2,2.4-55.7,28.5-57.3,28.5
	c-0.5,0-5.7,2.5-11.7,5.5c-5.9,3-11.3,5.5-12,5.5c-0.8,0-4.7,1.5-8.7,3.3c-13.6,6.2-58.5,21.2-67.5,22.6c-3.2,0.5-13.8,2.7-23.4,4.8
	c-26.8,6.1-40,8.1-40,6.3c0-0.6,0.6-1.2,1.3-1.4c0.6-0.2,3.7-1.1,6.7-1.9c3-0.9,7.3-2,9.5-2.6c15.4-4,28-7.5,34-9.5
	c3.9-1.3,12.9-4.1,20-6.2c7.2-2,15-4.6,17.5-5.7c2.5-1.1,8.8-3.4,14-5.2c5.2-1.8,14.2-5.2,20-7.5c5.8-2.3,13.7-5.3,17.5-6.7
	c3.9-1.4,9.5-3.4,12.5-4.5c3-1.1,11.1-4.5,18-7.5c11-4.9,16.7-7.7,35-17.5c2.5-1.3,6.6-3.1,9.1-4.1s5.7-2.9,6.9-4.2
	C2852.5,701.9,2854.2,703.4,2852.4,707.7z M2118.2,725.7c16,1.3,20.3,1.8,21,2.4c0.2,0.3,0.6,4,0.7,8.3c0.4,10.6,6.1,35.1,10.6,45.1
	c2.5,5.7,2.4,7-0.8,7.8c-1.4,0.4-8.1,3.5-14.7,7c-16,8.3-27.8,12.4-50.1,17.7c-3.3,0.8-6.7,1.7-7.5,2c-1.9,0.8-4.5-0.7-3.6-2.2
	c0.4-0.5,3.6-2.4,7.1-4.1c4.9-2.4,8.1-4.9,13.7-11.1c4-4.4,7.6-8.6,8-9.4c1.2-2-0.2-4.5-2.9-5.6c-3.6-1.4-3.9-3.7-0.8-6.9
	c3.4-3.5,2.8-5.6-2-7.6c-4-1.6-4.4-3.5-1.5-6.4c4.4-4.4,1-10.2-6.8-11.5l-4.3-0.7l0.6-3.8c0.6-3.3,0.3-4.1-2.2-6.4
	c-1.8-1.7-3.9-2.6-6-2.6c-3.3,0-3.3,0-3.3-4.9c0-2.9,0.5-5.3,1.3-5.8c2-1.3,19.8-3.2,25.5-2.7
	C2103.2,724.5,2111.3,725.2,2118.2,725.7z M2184.2,725.7c0.3,2-31.2,8-33,6.2c-2.3-2.3,0-4.2,4.9-4.2c6.8,0,22.6-2.1,23.8-3.2
	C2181.3,723.3,2183.8,724,2184.2,725.7z M2185.2,736.6c-0.3,2.8-0.7,2.9-16.3,6.1c-3.3,0.6-7.8,1.8-9.9,2.6
	c-4.1,1.4-6.6,0.6-6.6-2.1c0-2.4,3-3.7,15-6.6c6.7-1.6,12.9-3.3,13.8-3.8C2183.5,731.5,2185.6,733.4,2185.2,736.6z M2046.9,739.2v5
	l-5,0.6c-2.7,0.4-7.7,1.7-11,2.8c-6.6,2.4-13.5,3.7-13.5,2.7c0-1.9,3.2-6.5,5.7-8.2c3.3-2.2,20.1-8.2,22.3-8
	C2046.5,734.2,2046.9,735.5,2046.9,739.2z M2837.4,735.7c0,1.3-0.7,2-1.8,2c-1,0-2.3,0.5-2.9,1.1c-0.6,0.6-2.6,0.9-4.4,0.7
	c-2.9-0.3-3.1-0.5-1.4-1.3c1.1-0.4,2.7-1.4,3.5-2.1c0.8-0.7,2.6-1.4,4-1.7c1.4-0.2,2.6-0.5,2.8-0.6
	C2837.3,733.8,2837.4,734.6,2837.4,735.7z M2846.4,748.6c0,8.3-0.2,9-2.5,10.5c-1.3,0.9-3.1,1.6-4,1.6c-2.3,0-1.8-2.8,0.9-4.5
	c4.2-2.8,4.6-12.5,0.5-12.5c-1,0-1.9-0.5-1.9-1c0-0.6,0.9-1,2-1c1.1,0,2.3-0.7,2.6-1.5C2845.4,736.7,2846.4,740.4,2846.4,748.6z
	 M2822.9,741.7c-0.3,0.5-1.7,1-3.1,1c-1.4,0-2.2-0.4-1.9-1c0.3-0.6,1.7-1,3.1-1S2823.2,741.1,2822.9,741.7z M2077,746.2
	c0.4,0.8,0,2.2-0.7,3.1c-1.7,2.1-14.1,10-17,10.9c-1.3,0.4-4.8,1.8-7.7,3.1c-2.9,1.3-6.9,2.8-9,3.4c-2,0.5-6.5,1.7-9.9,2.6
	c-7.3,1.9-10.9,1.3-12.5-2.2c-0.9-1.9-0.8-3.1,0.5-5.8c1.9-4,3.4-4.6,27.2-11.1c2.8-0.8,6.8-1.6,9-1.9c8.9-1.1,16.7-2.5,17.3-3
	C2075.2,744.3,2076.5,744.7,2077,746.2z M2189.2,745.9c1.6,1.6,1.5,5.3,0,6.6c-0.7,0.5-2.9,1.3-4.8,1.7c-1.9,0.4-8.3,1.8-14.3,3.2
	c-5.9,1.4-11.4,2.3-12.2,1.9c-2.4-0.9-1.9-5.5,0.8-6.1c1.2-0.3,4-0.9,6.2-1.4c9-2,17.1-4.4,19.5-5.7
	C2187.5,744.4,2187.7,744.4,2189.2,745.9z M2805.4,749c0,0.8-1.1,1.9-2.5,2.5c-5.2,2.4-7.5,0.7-3.3-2.2
	C2802.4,747.3,2805.4,747.2,2805.4,749z M2829,749.2c0.4,0.8,1,1.2,1.5,0.9s0.9,0,0.9,0.5c0,1.3-0.2,1.3-3.5,0.1
	c-1.4-0.5-2.3-1.4-2-2C2826.8,747.2,2828.4,747.5,2829,749.2z M2549.4,749.6c0,1.5-2.6,3.1-6.1,3.7l-3.4,0.7l3.5-2.6
	C2547,748.8,2549.4,748.1,2549.4,749.6z M2554,756.2c1.3,3.3-1.9,5.2-20.1,12.1c-10.3,3.9-12.5,4.2-12.5,1.6c0-1.9,2.4-3.1,18-9.1
	c3-1.2,6.9-3,8.5-4.1C2551.5,754.3,2553.3,754.2,2554,756.2z M2089.2,760.3c0.4,2.8-6.2,8.5-14.8,12.8c-3.6,1.8-7.4,3.8-8.5,4.4
	c-1.1,0.6-7.3,3.4-13.9,6.3c-14.2,6.1-19.7,6.8-22.8,2.8c-1.4-1.8-1.7-3.3-1.2-5.3c0.7-3,0.6-2.9,13.4-7c10.2-3.3,21.1-8,26-11.2
	c3.5-2.3,15.6-5.4,19.5-5.1C2088.1,758.1,2089,759.1,2089.2,760.3z M2193.2,763.1c0.2,1.6-0.1,3.3-0.6,3.8c-0.6,0.6-4.5,1.4-8.8,1.9
	c-4.4,0.5-11.2,1.6-15.2,2.6c-6.8,1.6-7.4,1.6-8.9,0c-2.8-2.7-0.1-4.2,13.2-7.1c6.6-1.5,13.1-3.1,14.5-3.6
	C2191.4,759.4,2192.9,760,2193.2,763.1z M2831,761.7c2.4,0,3.4,0.5,3.4,1.5c0,1.7-3.9,3.5-7.6,3.5c-2,0-2.4-0.5-2.4-3.1
	c0-2.4,0.3-3,1.6-2.5C2826.9,761.4,2829.1,761.7,2831,761.7z M2777.4,764.7c-0.8,0.5-1.7,0.7-1.9,0.4c-0.3-0.3,0.1-0.9,0.9-1.4
	c0.8-0.5,1.7-0.7,1.9-0.4C2778.6,763.6,2778.2,764.2,2777.4,764.7z M2463.4,765.2c10.2,1.5,36.1,2.2,38,1c1.5-1,4.8,3.5,6,8.3
	c0.7,2.6,1.8,12.3,2.5,21.7c1.5,19,1.4,19.8-4.9,21c-1.7,0.4-4.7,1.6-6.6,2.7c-1.9,1.1-6.4,3.1-10,4.4c-3.6,1.3-9.6,3.5-13.5,4.9
	c-10.9,4-14.2,5.1-25.5,8.3c-15.3,4.4-26.5,7.2-28.8,7.2c-2.4,0-8-4.4-9.3-7.4c-0.6-1.2-1.9-3.7-2.9-5.6c-4.2-7.7-8.7-25.8-9.2-36.5
	l-0.3-6l3.6-0.1c2-0.1,4.2-0.4,4.8-0.9c2-1.2,19.1-4.5,23.3-4.5c5.2,0,7.8-1.5,7.8-4.6c0-4.9-10.5-5.6-23-1.4
	c-12.5,4.2-34.1,5.4-34.8,2c-0.2-1.2,2.3-2.4,10-4.7c29-8.9,38.8-11,51.8-11.1C2448.2,763.8,2457.6,764.4,2463.4,765.2z
	 M2794.7,765.6c0.2,1,0.1,2.5-0.3,3.2c-1.1,1.7-4-0.6-4-3.2C2790.4,763.1,2794,763.1,2794.7,765.6z M2554.5,767.3c0.8,1,1,2.1,0.3,3
	c-1.1,1.8-14.9,8-21.9,9.9c-2.7,0.7-6.2,1.9-7.8,2.6c-3.2,1.5-4.2,0.8-3.3-2.4c0.4-1.9,2.4-3.1,10.3-6.1c5.4-2.1,11.6-4.8,13.8-6.1
	C2550.8,765.4,2552.7,765.2,2554.5,767.3z M2848.5,789.8c0.5,10.7,1.4,22.5,2,26.4c3.2,21.5,3.9,25.4,5.2,29.6
	c4.6,14.2,7.9,68.8,5,81.9c-2.7,11.5-3.1,13.6-4.2,18.7c-0.6,2.9-1.5,6-2,7c-0.6,1-3.8,7.4-7.2,14.3c-3.3,6.9-8,14.9-10.2,17.8
	c-2.3,3-5.1,6.9-6.3,8.8c-2,3.3-17,19.3-18.3,19.5c-4.3,0.6-415.8,0.6-417.4,0c-1.2-0.4-6.9-0.5-12.7-0.1
	c-7.6,0.5-11.4,0.3-13.8-0.7c-2.8-1-4-1-7.5,0.3c-2.3,0.9-5.2,1.8-6.4,2.1c-1.2,0.3-2.8,1.1-3.4,1.9c-1.9,2.3-3.8,1.6-5.9-2.4
	c-5.4-9.9-20.4-31.1-31.5-44.6c-2.8-3.3-7-8.6-9.2-11.6c-8.2-10.9-17.9-19-37.4-31.3c-3.8-2.5-3.7-3.9,0.9-6.9
	c4-2.7,26.9-13.8,28.3-13.8c0.5,0,3.5-1.4,6.6-3.1c3.2-1.7,7.4-3.7,9.3-4.4c1.9-0.7,9.1-4,16-7.2c14.4-6.9,22.4-10.3,24-10.3
	c0.6,0,4.4-1.6,8.3-3.6c3.9-1.9,10.5-4.7,14.6-6.1c4.1-1.3,8.3-3,9.5-3.8c1.2-0.7,4.6-1.8,7.6-2.5s6.3-1.7,7.4-2.2
	c1-0.6,9.1-3,18-5.3c19.2-5.2,23.7-6.6,29.7-9.3c7.6-3.5,35.4-10,52.3-12.2c8.7-1.1,16.2-2.3,16.6-2.5c1.5-0.9,28-4.4,49.5-6.5
	c11.4-1.1,24.8-2.7,30-3.6c1.7-0.3,6.6-0.9,11-1.4c4.4-0.5,13.2-1.6,19.5-2.4c6.3-0.9,16.2-2.1,22-2.7c5.8-0.6,12.5-1.7,15-2.5
	s6-1.4,7.9-1.4c1.8,0,5-0.4,7-0.9c2-0.6,8.3-1.9,14.1-3c11.8-2.3,36-7.3,49.5-10.2c5-1,11-2.6,13.5-3.4c2.5-0.8,8.1-2.4,12.5-3.5
	c4.4-1,13.9-3.4,21-5.3c7.2-1.8,16.4-4.1,20.5-5.1c12.2-2.9,30.3-9.3,34.4-12.1c1.1-0.8,2.4-1.1,2.9-0.6
	C2847.1,770,2847.9,779.1,2848.5,789.8z M2756.2,772.4c-0.4,2-4.5,3-6,1.5c-1.6-1.6,0.1-3.2,3.3-3.2
	C2755.9,770.7,2756.5,771.1,2756.2,772.4z M2090.2,774.9c2.6,2.6-1.7,6.1-21.7,18.1c-5.3,3.1-12.4,6.6-15.8,7.8
	c-3.5,1.1-6.5,2.5-6.8,3c-0.9,1.4-7.1,1.1-8.5-0.5c-2.6-3.2-0.8-5.9,5.5-8.3c3.3-1.3,14.6-6.6,25-11.8c10.5-5.1,19.5-9.4,20.1-9.4
	C2088.5,773.7,2089.5,774.2,2090.2,774.9z M2792.4,776.2c0,0.2-0.9,0.9-2,1.5c-2.4,1.3-5,0.2-2.9-1.1
	C2789,775.7,2792.4,775.4,2792.4,776.2z M2171.4,778c0,1.8-2.1,3.7-4.1,3.7c-2.4,0-3.3-1.8-1.9-3.5
	C2166.9,776.3,2171.4,776.2,2171.4,778z M2554.4,779.2c1.7,2.1,0.9,4.7-2,6.2c-5.9,2.9-24.5,9.5-27.5,9.7c-2.7,0.1-3.3-3.9-0.8-5.2
	c1-0.6,4.6-2,8-3.1c7.9-2.7,17-6.8,17.8-8.1C2550.8,777.3,2553,777.5,2554.4,779.2z M2727.4,781.7c0,0.5-0.9,1-2.1,1
	c-1.1,0-1.7-0.5-1.4-1c0.3-0.6,1.3-1,2.1-1S2727.4,781.1,2727.4,781.7z M2704.4,788.2c-1.3,1.6-5,2.1-5,0.7c0-1.5,1.3-2.2,3.8-2.2
	C2705.3,786.7,2705.4,786.9,2704.4,788.2z M2743.3,787.6c0.9,0.6,1,1,0.2,1.6c-1.6,0.9-4.4-0.2-3.6-1.5
	C2740.7,786.5,2741.5,786.5,2743.3,787.6z M2091.8,789.6c1.1,1.7-3.6,6-14.6,13.4c-19.4,12.8-29.4,17.5-32,14.9c-1-1-0.8-2,0.6-4.6
	c1.4-2.7,3.1-3.9,8-5.7c3.3-1.2,6.6-2.6,7.1-3c0.6-0.4,4-2.2,7.5-4c3.6-1.7,7.9-4.1,9.5-5.4c3.7-2.7,10.6-6.4,12.2-6.5
	C2090.7,788.7,2091.5,789.1,2091.8,789.6z M2694.8,789.6c0.7,1.1-2.2,2.3-3.5,1.5c-0.5-0.3-0.7-1-0.4-1.5
	C2691.7,788.4,2694.1,788.4,2694.8,789.6z M2731.9,791.7c-0.3,0.5-1.3,1-2.1,1s-1.4-0.5-1.4-1c0-0.6,0.9-1,2.1-1
	C2731.6,790.7,2732.2,791.1,2731.9,791.7z M2556.2,794.4c0.4,2.7-1.7,3.9-15.3,8.4c-5.5,1.8-11.1,3.9-12.5,4.6
	c-2.9,1.5-4.3,0.5-3.8-2.8c0.2-2,1.6-2.8,7.8-5c4.1-1.4,10.2-3.8,13.5-5.2C2553.1,791.4,2555.8,791.4,2556.2,794.4z M2712.4,792.7
	c0,0.5-0.7,1-1.5,1c-0.8,0-1.5-0.5-1.5-1c0-0.6,0.7-1,1.5-1C2711.7,791.7,2712.4,792.1,2712.4,792.7z M2616.8,795.3
	c1.1,3,0.7,16.1-0.6,17.1c-2.5,1.8-20.5,5.2-31.2,5.8c-6,0.4-12,1.1-13.5,1.6c-1.4,0.6-12.5,1.7-24.6,2.6c-14.9,1-22.7,1.9-24.2,2.9
	c-3.1,2-12.3,1.9-12.3-0.1c0-0.8,0.7-1.5,1.5-1.5c0.8,0,2.3-0.4,3.3-0.9c4.5-2.4,10.2-4.2,15.2-5c3.1-0.5,10.5-2.9,16.7-5.4
	c11.3-4.6,38.8-13.2,47.8-14.9c2.8-0.6,7.3-1.6,10-2.3C2611.9,793.3,2616.1,793.4,2616.8,795.3z M2391.3,800.1
	c0.7,0.8,2.7,7.4,4.6,14.8c1.8,7.3,3.8,14.6,4.4,16.2c1.9,4.8-0.3,6.1-10.2,6c-16.6-0.1-24.1-8.4-18.5-20.6
	c3.1-6.7,6.6-10.8,12.5-14.7C2389.4,798.3,2389.7,798.2,2391.3,800.1z M2645.4,803.7c0,0.5-0.2,1-0.4,1c-0.3,0-0.8-0.5-1.1-1
	c-0.3-0.6-0.1-1,0.4-1C2644.9,802.7,2645.4,803.1,2645.4,803.7z M2907.7,807c9,3.8,16,17.2,20.2,38.7c3.2,16.7,3,10.5,4.1,151.2
	c0.5,61.2,0.4,85.1-0.4,86.1c-0.7,0.9-3.3,1.3-6.9,1.3l-5.8-0.1l0.2-19c0.2-10.5,0.3-22.5,0.3-26.7s0.5-8,1-8.3
	c1.5-1,1.2-4.2-0.6-4.9c-1.3-0.5-1.5-9.5-1.4-84.8c0.1-52.3-0.2-86.2-0.8-89.3c-1.2-5.7-3.6-8.1-11-10.8c-6.3-2.2-10-2.2-15.4,0.2
	c-5.4,2.3-9,7.1-10.1,13.6c-0.5,2.7-1.1,39.2-1.3,81c-0.3,44.7-0.8,76.3-1.4,76.9c-0.5,0.5-7.6,1-15.7,1.1
	c-8.1,0.2-19.1,0.4-24.3,0.5c-11.6,0.2-12,0.2-12-0.8c0-0.5,3.2-4.2,7-8.3c7.7-8.1,18.6-23.6,19.7-27.8c0.3-1.4,1.4-3.7,2.5-5
	c1-1.3,1.8-2.9,1.8-3.5c0-0.6,0.7-2.4,1.5-4c3.1-5.9,8.8-24.7,10.5-34.6c1.5-8.8,2.1-42.8,0.9-51c-1.7-11.1-2.2-21-1.1-22.3
	c0.5-0.6,1.2-3.7,1.6-6.7c0.7-6,2.5-12.1,6.4-22c3.1-7.6,9.5-15,16.7-19.1C2899.4,805.4,2902.9,805,2907.7,807z M2065.5,1073
	c0,139.8,0,265.8-0.1,280.1l-0.2,25.9l6,5.6c7.3,6.8,8.7,10.6,8.6,24.1c0,9.5-1.4,14.5-3.7,13.7c-0.7-0.2-1.4-1.9-1.7-3.7
	c-0.8-5.1-6.3-9-14.2-10c-7.7-0.9-9.7-0.2-13.5,4.7c-3.8,4.8-5.3,9.3-5.3,15.4c0,5.9-1.4,7-3.6,2.7c-2.3-4.4-2.4-28.5-0.1-33.9
	c2.2-5.4,7.1-11.7,11.5-14.9l4-2.9l0.8-8.8c0.5-7.1,1-49.6,0.6-71.3c0-2.5,0-69.3,0-148.5c0.1-79.2,0-174.6,0-212
	c-0.1-37.4,0-75.2,0.2-84s0.4-19.7,0.5-24.3c0.1-7.6,0.3-8.3,2.4-9.1c1.3-0.5,2.9-1.6,3.6-2.4
	C2065.4,814.3,2065.3,805.6,2065.5,1073z M2905.7,849.1c1.7,1.3,3.2,3.9,3.8,6.2c0.6,2.4,0.9,58.5,0.8,144.4c0,77.3,0,141.2,0,142
	c0.1,1.3,0.3,57.1,1.2,322.8c0.2,46.8-0.1,77.6-0.7,78c-0.5,0.5-5.3,0.6-10.8,0.3l-9.9-0.6l-0.2-115.5
	c-0.4-156.4-0.5-171.2-1.5-173.1c-1.5-2.7-7.4-3-51-2.8c-50.1,0.3-36,0.3-127.9,0c-55-0.2-76.7,0.1-77.5,0.9
	c-0.8,0.8-1.1,41.1-1.1,146.3v145.2l-7.3-0.1c-5.2,0-7.6-0.4-8.3-1.5c-0.5-0.8-0.7-7-0.4-13.9c0.7-20.5,0.7-167.9-0.1-234.1
	c-0.6-52-0.5-61.7,0.7-62.5c0.8-0.5,58.1-0.9,134.9-0.9h133.5l2.3-4.5l2.2-4.4v-87.5c-0.1-72.3-0.3-87.9-1.5-90.7l-1.4-3.3
	l-78.8-0.2c-43.3-0.2-86-0.2-94.8-0.1c-44.5,0.3-194.1,1-254.8,1.1l-68.8,0.2l-1.1,2.7c-0.9,2-1.2,20.3-1,67.7
	c0.5,199.1-0.2,429.3-1.3,430.3c-1.7,1.6-13.3,2.2-14.5,0.7c-0.7-0.8-1-14.5-1-41.1c0-22,0-41.3-0.1-42.9c0-1.7,0-21.9,0.1-45
	c0-23.1-0.2-119.5-0.5-214.2c-0.4-123.4-0.3-172.8,0.5-174.3c1.1-2,1.8-2,48.8-2c26.2,0.1,114.1-0.1,195.2-0.4
	c81.1-0.3,174.9-0.6,208.4-0.6c36,0,61.6-0.4,62.6-1c1-0.5,2.1-1.7,2.5-2.7c0.3-1,0.9-38,1.1-82.3c0.5-74.1,0.7-80.7,2.3-83.5
	C2893.6,846.5,2900.8,845,2905.7,849.1z M2342.1,851.4c2.2,3.4,2.1,17.4-0.1,22.6c-1.5,3.7-7.5,7.6-18.6,12c-3.6,1.4-9,3.7-12,5.1
	c-3,1.4-6.5,2.6-7.7,2.6c-2.9,0-8.1-3.1-8.7-5.2c-0.2-1-1.2-2.1-2.3-2.5c-1-0.4-4.4-2.2-7.5-4c-3.1-1.8-6.3-3.3-7.2-3.3
	c-1.9,0-2.1-2-0.3-4.1c3-3.8,27.4-16.4,40.2-20.9C2334.8,847.8,2339.5,847.4,2342.1,851.4z M2378.4,856.3c8.8,1.3,8.7,4.5-0.2,6.4
	c-2.9,0.6-5.8,1.5-6.5,2.1c-2.2,1.9-4.1,0.3-4.8-4c-0.9-5.2,0-6.4,3.9-5.7C2372.5,855.4,2375.9,855.9,2378.4,856.3z M2263,879.7
	c3.2,1.2,6.9,1.8,8,1.5c1.4-0.3,2.4,0.1,2.8,1c0.3,0.8,2.1,2.2,3.9,3.2c7.3,3.8,15.6,10.3,15.1,11.8c-0.7,1.8-8.6,6.5-11,6.5
	c-0.9,0-3.4-2-5.5-4.4c-2.2-2.4-5.9-5.4-8.4-6.6c-8.5-4.1-25.4-6-28.7-3.2c-0.8,0.7-2.4,1.1-3.4,1c-1.1-0.1-4.4,0.9-7.4,2.4
	c-3,1.4-7.1,3.3-9,4.2c-1.9,0.9-5.1,2.8-7,4.2c-4.7,3.4-15,13.4-15,14.5c0,0.8-0.5,1.6-6.1,8.3c-4.2,5.1-11.9,15.6-11.9,16.2
	c0,0.3-0.9,2.6-2.1,5.2c-1.1,2.6-2.4,5.6-2.8,6.7c-0.5,1.1-1.6,3.7-2.5,5.8s-1.6,4.6-1.6,5.5c0,1-0.6,2.4-1.2,3
	c-1.4,1.4-2.2,9.3-1.9,18.7c0.1,3.3-0.4,7.9-1,10.2c-0.8,3.1-0.8,5,0.1,7.7c0.6,2,1.3,5.7,1.4,8.3c0.2,2.7,0.9,6.1,1.5,7.7
	c0.6,1.6,1.4,5.1,1.6,7.9c0.2,2.7,1.1,5.7,1.9,6.6s2.8,4.6,4.6,8.2l3.1,6.5l-4,7.8c-2.2,4.3-4.3,9.6-4.6,11.9
	c-0.4,2.3-1.6,5.7-2.7,7.6c-2.3,4-4.3,10-5.2,15.4c-0.4,2.1-1.6,5.8-2.7,8.3c-1,2.5-1.9,5.5-1.9,6.7c-0.1,1.2-0.9,4.7-2,7.7
	c-1.1,3-1.9,7.1-2,9c0,1.9-0.9,5.9-1.9,8.7c-1,2.9-2.2,7.6-2.6,10.5c-0.4,2.9-1.8,8-3.2,11.3c-1.4,3.3-2.9,8.7-3.4,12
	c-0.5,3.3-1.4,8.2-2,11c-0.6,2.7-1.1,7.6-1,10.7c0.1,3.2-0.2,5.8-0.7,5.8c-0.6,0-1.3,5.1-1.7,11.2c-0.4,6.2-1.2,11.9-1.8,12.6
	c-1.1,1.4-2.1,7.7-3.6,22.2c-0.5,4.7-1.6,9.8-2.5,11.5c-1.1,2.1-1.4,4.2-1,7.1c0.4,2.8,0.1,5.1-0.9,7c-0.8,1.6-1.8,6.3-2.1,10.4
	c-0.3,4.1-1,11.3-1.5,16c-0.5,4.7-1,11.9-1.1,16c0,4.9-0.6,8.2-1.5,9.4c-1.1,1.5-1.5,5.2-1.6,15c0,7.2-0.5,16.7-1.1,21.1
	c-0.5,4.4-1.2,15.6-1.4,25c-0.3,9.3-0.5,19-0.7,21.4c-0.2,4,0.1,4.5,2.2,5.1c3.2,0.7,3.6,2.2,1.4,4.8c-1.7,1.9-2.3,2-14.3,1.1
	c-6.9-0.5-13.1-1.1-13.7-1.4c-1.8-0.6-1.6-4,0.3-7.6c0.8-1.7,2-7.2,2.6-12.2c1.2-11.4,5.1-37.3,7.7-51.1c0.6-3.3,0.8-7,0.5-8.3
	c-0.4-1.4,0-3.8,1-5.6c0.9-1.8,2-7.5,2.5-12.7c0.5-5.2,1.9-16.5,3.1-25c1.2-8.5,2.3-20,2.4-25.5c0.2-5.5,0.6-10.7,1-11.5
	c0.3-0.8,1-7.6,1.5-15c0.6-7.4,1.5-15.5,2.1-18c0.6-2.5,1-5.4,0.9-6.5c-0.3-4-0.3-8.4,0.6-32.5c0.4-13.5,0.8-25.6,0.8-27
	c-0.5-25.6-0.4-29.9,0.6-31.7c0.8-1.5,0.8-3.7,0-7.9c-0.6-3.1-0.8-6.6-0.5-7.8c0.3-1.1,0-5.2-0.5-9.1c-0.6-3.8-1.2-13.5-1.3-21.5
	c-0.2-8-0.6-17-1-20.1l-0.8-5.6l3.6-2.1c1.9-1.2,5.2-4.5,7.1-7.4c6-8.9,8.3-12.2,10.7-15.2c3.4-4.4,6.6-11.5,6.1-13.5
	c-0.3-1,0.4-3.6,1.4-5.7c1.9-3.9,4-10.9,6.3-21.4c0.7-3,2-7.1,3-9c0.9-1.9,2.3-6,3-9c0.7-3,1.8-6.2,2.5-7c1.4-1.6,5.8-11,7-15
	c1-3.2,4.7-9.1,6.9-10.9c0.9-0.7,1.6-1.7,1.6-2.2c0-1.2,7.5-12.7,11.3-17.3c8.2-9.9,19.7-19.8,25.7-22.2c2.5-0.9,5.2-2.3,6.1-3.1
	c0.8-0.7,2.3-1.3,3.3-1.3c0.9,0,2.9-0.6,4.4-1.4s8.5-1.9,15.7-2.6c7.1-0.6,13.2-1.3,13.4-1.6C2256.9,877.6,2256.3,877.4,2263,879.7z
	 M2255,931.5c0.5,0.5,2.9,1.7,5.3,2.6c5.1,2,8.5,4.4,21.1,15.2c8.8,7.6,23.8,23.5,27.8,29.6c0.9,1.4,3.6,5.3,6,8.8
	c2.3,3.4,4.2,6.3,4.2,6.5c0,0.3,4,6.7,9,14.2c14.6,22.5,14.3,22,11.6,24.2c-1.4,1.2-6.8,17-8,23.6c-2.2,11.3-3.3,28.1-2.5,40.5
	c0.4,7.4,1.1,24.3,1.4,37.5c0.6,24.1,0.2,29.3-3.4,43c-0.6,2.2-1.6,6.7-2.2,10c-4.1,20.2-9.6,35.8-17,48.2c-2.1,3.5-4.1,7.3-4.4,8.5
	c-0.4,1.3-2.2,5.1-4.1,8.4c-1.8,3.4-4.7,9.9-6.4,14.5c-1.7,4.6-3.5,8.8-3.9,9.4c-0.4,0.5-1.8,3.9-3.1,7.5c-2.8,7.9-9.3,23.2-12,28.2
	c-1.1,2-2,4.2-2,4.8c0,0.6-2.3,6.3-5.1,12.8c-2.9,6.4-6,14-6.9,16.8c-1,2.8-2.3,6-2.8,7c-1,2-2.2,4.9-6.7,17.4
	c-1.5,4.1-3.3,8.6-4,10c-0.7,1.4-2.3,5.6-3.5,9.5c-1.3,3.8-4.4,11.9-7,18c-2.6,6-5.1,12.5-5.5,14.3c-0.4,1.8-1.8,6.1-3.2,9.5
	c-3.1,7.4-7.1,21.2-8.3,28.2c-0.4,2.7-1.3,7.1-2,9.6c-0.8,3.1-1,8.8-0.6,17c1.3,25.5,1,34.9-1.1,42.8c-0.9,3.1-1.8,6.7-2.1,8.1
	c-1.2,6.1,8,5.7-119,5.3c-63.6-0.2-116.7-0.3-117.8-0.3c-2.6,0-12.4-8.9-12.4-11.2c0-3.8,7.5-6.2,36.5-11.9
	c5.5-1.1,11.6-2.3,13.5-2.8c7.5-1.9,17.7-4.3,22.3-5.1c2.6-0.5,6.2-1.6,7.9-2.4c1.7-0.9,3.6-1.6,4.1-1.6c0.6,0,2.9-0.9,5.1-1.9
	c2.3-1,6.6-3,9.7-4.4c3.1-1.3,8.3-4.2,11.5-6.3c3.3-2.1,8.6-5.2,11.9-6.8c3.3-1.6,7.2-4,8.7-5.2c1.5-1.2,5.1-3,8-4
	c14.9-4.8,39.2-19.6,49-29.7c3.5-3.6,7.7-9.6,10.7-15.1c5.4-10.2,13.1-31.5,13.1-36.5c0-1.8,0.5-4.2,1.1-5.3c0.7-1.2,1.5-6.2,2-11.2
	c0.4-5,1.5-16.3,2.4-25.1c0.9-8.8,2-21.4,2.5-28c0.5-6.6,1.2-13.4,1.5-15c0.3-1.7,0.7-5.5,1-8.5c0.2-3,0.8-9.6,1.3-14.5
	c0.6-5,1.5-14,2.2-20c0.6-6.1,1.4-11.7,1.7-12.5c0.3-0.8,0.9-6.2,1.4-12c0.7-9.9,2.4-20.8,4.7-31c1.7-7.6,3-15,4.7-27
	c0.9-6.3,2.3-15.8,3-21c0.8-5.2,1.7-11.1,2.2-13c0.4-1.9,0.8-5.3,0.9-7.5c0.3-5.4,2.1-19.6,2.8-21.5c0.3-0.8,0.8-8.3,1.1-16.5
	c0.3-8.3,0.7-19.7,1-25.5c0.3-5.8-0.1-18.3-0.9-27.8c-1.2-14.4-1.2-18.3-0.1-23c1.8-7.9,2.6-24.1,1.7-33.7c-0.4-4.4-0.4-11.2,0-15
	c1-8.7,4.4-22.1,6.6-25.6c2.5-3.9,9.2-11,13.8-14.3c2.1-1.7,4.2-3.4,4.5-3.9c1.2-1.8,11.5-8.6,13-8.7
	C2253.3,930.7,2254.4,931.1,2255,931.5z M2361,1024.9c1.3,2,1.5,516.9,0.3,518.5c-0.9,1.1-13.5,1.3-69.5,1.3
	c-78.3,0-71.6,0.9-68.2-9.5c1.7-5.3,2-9.3,2.2-33.5c0.2-15.1,0.7-29.1,1.1-31c1.8-9,10.6-35.3,16.4-49.5c2.5-6,11.9-31.8,13.2-36
	c1.7-6,9.6-28.1,11.2-31.5c4.3-9.5,9.9-23.5,13-32.5c1.9-5.5,4.4-12,5.5-14.5c1.2-2.5,3.7-8.6,5.8-13.5c2-5,4.2-10.1,5-11.5
	c8.9-17.3,20.8-42.1,22.4-47.1c1.2-3.4,3.5-8.9,5.1-12.1c5.3-10.5,10.1-26.5,10.9-36.3c0.4-5,1.4-10.4,2.1-12
	c1.1-2.4,1.4-12.8,1.5-54c0-52,0.7-63.5,4-72c3.4-8.6,8.1-17,11.5-20.7C2358.2,1023.5,2359.8,1022.9,2361,1024.9z M2862.2,1259.8
	c10.4,0.2,15.8,0.6,17,1.5c1.6,1.1,1.7,4.5,1.8,39.1c0.1,20.8,0.3,83.7,0.5,139.8l0.4,102l-27,0.2c-75.4,0.6-213.6,0.5-214.3-0.1
	c-0.4-0.4-0.8-58.4-0.9-128.9c-0.1-70.5-0.4-133.2-0.6-139.4c-0.4-9.5-0.2-11.5,1.2-12.7c1.3-1.2,4.9-1.6,15.1-1.8
	C2668.7,1259.2,2832.4,1259.5,2862.2,1259.8z"/>
<path class="st0" d="M2776.9,127.6c-4.9,2.1-8.5,9.4-8.5,17.5c0,3.3-0.7,6.6-1.7,8.4c-1.5,2.6-1.5,3.2-0.3,4.6
	c2.1,2.6,5.3,1.5,7.2-2.4c1.3-2.4,1.8-5.9,1.8-11.1c0-7.8,1.4-10.9,5.2-10.9c2.4,0,5.8,4.4,5.8,7.5c0,2.4-4.2,11.9-8.6,19.5
	c-0.8,1.4-2.3,4.7-3.4,7.4c-2,4.7-2.2,4.8-5.4,4.3c-4.6-0.7-5.9,0.8-4,4.5c2.1,4.1,6.1,5.4,9.2,3.1c1.3-1,6-9,10.5-17.8
	c6.2-12.4,8.2-17.2,8.5-21.3c0.4-5.1,0.3-5.3-4-9.7C2784.6,126.6,2781.6,125.7,2776.9,127.6z"/>
<path class="st0" d="M2669.4,135.7c-7.2,2.6-9.5,5.5-6.5,8c1.6,1.3,2.7,1.2,14.1-1.5c6.8-1.7,7.3-1.7,14,0.3
	c3.8,1.1,10.5,3.4,14.9,5.1c9.9,3.9,15.5,4.8,19.5,3.1c5.3-2.2,3.5-4.4-4-5.1c-4.7-0.5-9-1.8-15.5-4.9
	C2690.5,133.3,2680.1,131.9,2669.4,135.7z"/>
<path class="st0" d="M2678.4,150.4c-2.5,0.9-6.1,2.3-8,3.1c-1.9,0.9-5.5,1.8-8,2.1c-4.2,0.6-4.5,0.8-4.5,3.6c0,2.9,0.2,3,5,3.6
	c2.8,0.3,7.3,1.6,10,2.7c10.8,4.6,24.3,5.3,34.2,1.8c10-3.6,16.6-4.2,21.4-2.1c3.1,1.5,4.1,1.5,5.4,0.5c1.9-1.5,2.1-9.8,0.3-10.5
	c-0.7-0.3-5.1-0.1-9.8,0.4c-8,0.8-9.1,0.6-19.6-2.5C2691.2,149,2684.4,148.3,2678.4,150.4z M2706.7,158.3c0.9,0.3,1.7,0.9,1.7,1.3
	c0,2-3.5,3.4-8.7,3.5c-4.8,0.1-5.8-0.2-6.1-1.7c-0.8-4,0.5-4.9,6.1-4.2C2702.5,157.5,2705.7,158.1,2706.7,158.3z M2678.2,160
	c0.2,1-0.3,1.7-1.2,1.7c-1.8,0-2.9-1.6-2.1-3.1C2675.8,157.2,2677.8,158,2678.2,160z"/>
<path class="st0" d="M2270.4,1194.3c0,1.7,2.2,1.4,2.8-0.4c0.2-0.7-0.3-1.2-1.2-1.2S2270.4,1193.4,2270.4,1194.3z"/>
<path class="st0" d="M932.8,208.4c-45,54.4-84,101.4-86.6,104.6l-4.8,5.8v17.9v18l165.5,0.2l165.5,0.3l2.7,2.8l2.8,2.7l0.3,84
	l0.2,84H947.9H717.4V423.2V317.7l-18.2,0.2l-18.3,0.3l-0.3,105.2l-0.2,105.3h-76.5h-76.5V423.2V317.7l-18.2,0.2l-18.3,0.3
	l-0.3,105.2l-0.2,105.3h-63.5h-63.5l-0.2-105.3l-0.3-105.2l-107-0.3c-60.1-0.1-111.4,0.2-117,0.7c-5.6,0.5-12.5,1.9-15.7,3.1
	c-11.2,4.2-19.2,14.5-21.8,28c-0.6,3.3-1,44.8-1,110.6v105.4h629.4h629.4l11.4,11.4c20,20,41,31.4,68.8,37.3c13,2.7,40,2.4,54-0.6
	c27.3-5.9,54.1-21.4,70.4-40.8l6.1-7.1l105.3-0.1l105.2-0.1l-0.2-201.8l-0.3-201.7l-18.2-0.3l-18.3-0.2v183.5v183.5h-76.6
	c-60.9,0-76.5-0.3-76.1-1.3c5.9-15.8,8.6-45,5.7-63.2c-3.1-19.7-12-41.9-23-57.3c-20.4-28.7-52.8-48.6-88.5-54.2
	c-10.3-1.6-31.6-1.4-42.5,0.5c-53.9,9.2-96.4,50.8-107.5,105c-3.9,19-2.7,45.4,2.9,63.1l2.4,7.4h-62.4h-62.4v-82.3
	c0-47.6-0.5-86.2-1-91.7c-2.1-19.2-11-30.3-28.2-35.2c-3.2-0.9-40.4-1.3-151.6-1.7l-147.3-0.6l77.7-91.8
	c64.4-76.2,77.4-92.1,76.3-93.1c-5.1-4.7-26-22.6-26.3-22.6C1014.7,109.7,977.8,154.1,932.8,208.4z M326.4,441.7v87h-94.5h-94.5
	v-82.9c0-52.5,0.4-83.9,1-85.6c2.1-5.5-0.2-5.4,97.8-5.5h90.2V441.7z M1489.4,390.7c34.3,8.8,60.6,35.2,69.2,69.5
	c3.2,12.9,3.2,34.4,0,46.5c-9.1,34.1-34.9,60.4-68.8,70.2c-6.8,2-10.2,2.3-24.4,2.3c-14.2,0-17.6-0.3-24.5-2.3
	c-32.9-9.5-59-35.6-68.6-68.4c-3-10.5-3.8-32.4-1.4-43.9c7.8-38.8,37.8-67.8,77.8-75.5C1458.9,387.2,1478.5,387.9,1489.4,390.7z"/>
<path class="st0" d="M1867.4,363.7v202h18.5h18.5l-0.2-201.8l-0.3-201.7l-18.2-0.3l-18.3-0.2V363.7z"/>
<path class="st0" d="M179.4,216.6c-4.5,1.4-8.4,3.9-11.6,7.3c-5.3,5.5-6.8,9.5-6.8,17.3s1.5,11.8,6.8,17.3
	c5.2,5.6,10.1,7.6,18.1,7.6s12.9-2,18.1-7.6c5.3-5.5,6.8-9.5,6.8-17.3c0-5.2-0.5-8-2.1-11C202.9,219.3,190.1,213.4,179.4,216.6z"/>
<path class="st0" d="M252.4,216.6c-4.5,1.4-8.4,3.9-11.6,7.3c-5.3,5.5-6.8,9.5-6.8,17.3s1.5,11.8,6.8,17.3
	c5.2,5.6,10.1,7.6,18.1,7.6s12.9-2,18.1-7.6c5.3-5.5,6.8-9.5,6.8-17.3c0-5.2-0.5-8-2.1-11C275.9,219.3,263.1,213.4,252.4,216.6z"/>
<path class="st0" d="M656.4,216.6c-4.6,1.5-8.5,3.9-11.6,7.3c-5.3,5.5-6.8,9.5-6.8,17.3s1.5,11.8,6.8,17.3
	c5.2,5.6,10.1,7.6,18.1,7.6s12.9-2,18.1-7.6c5.3-5.5,6.8-9.5,6.8-17.3c0-10.1-4.8-18-13.8-22.7C669.7,216.3,660.4,215.3,656.4,216.6
	z"/>
<path class="st0" d="M728.4,216.6c-4.5,1.4-8.4,3.9-11.6,7.3c-5.3,5.5-6.8,9.5-6.8,17.3s1.5,11.8,6.8,17.3
	c5.2,5.6,10.1,7.6,18.1,7.6s12.9-2,18.1-7.6c5.3-5.5,6.8-9.5,6.8-17.3c0-5.2-0.5-8-2.1-11C751.9,219.3,739.1,213.4,728.4,216.6z"/>
<path class="st0" d="M498.4,617.6c-4.6,1.5-8.5,3.9-11.6,7.3c-5.3,5.5-6.8,9.5-6.8,17.3c0,7.8,1.5,11.8,6.8,17.3
	c5.2,5.6,10.1,7.6,18.1,7.6s12.9-2,18.1-7.6c5.3-5.5,6.8-9.5,6.8-17.3c0-10.1-4.8-18-13.8-22.7C511.7,617.3,502.4,616.3,498.4,617.6
	z"/>
<path class="st0" d="M1747.1,806.4c-0.4,0.3-0.7,83.6-0.7,185v184.3h-91.5h-91.5v-46.4c0-25.5-0.5-51-1-56.7
	c-5.8-56.5-33.1-94.5-79-110.1c-16.6-5.6-28.3-7.3-51-7.2c-17.2,0-22.3,0.3-31.8,2.2c-58.1,11.6-91.6,50.9-98.2,115.1
	c-0.5,5.7-1,31.2-1,56.7v46.4h-69.5h-69.5v-53.1c0-59.6-0.5-66.7-6.5-84.6c-14.5-43.4-46.7-71.1-93.7-80.5c-15-3-43.8-3.2-56.8-0.5
	c-26.5,5.6-46.6,16.2-63.4,33.7c-17,17.7-28.2,39.8-32.7,65c-2,10.8-1.7,43.7,0.5,56.5c8.3,49.5,31,79.1,71,92.7
	c20.6,7,21.5,7,86.4,7.5l58.2,0.4v51c0,54.1-0.1,55.3-4.7,57.5c-1,0.5-40.9,1.1-88.8,1.4l-87,0.5l-0.3,18.2l-0.2,18.3h90.3
	c61.1,0,92.3-0.4,96.3-1.1c13.5-2.5,24-11,28.5-23.1c2.3-6.3,2.3-6.4,2.7-64.6l0.3-58.2h310.4h310.5v-203.5V805.7h-17.8
	C1755.8,805.7,1747.4,806,1747.1,806.4z M1057.6,987.5c25.4,6.9,49.3,24.2,60.1,43.8c4.8,8.5,9.3,21.9,10.7,31
	c0.5,3.9,1,30.1,1,60.1v53.3h-57.2c-61,0-69-0.5-82.8-5c-28.4-9.4-45-31.4-50.6-67.3c-2.3-14.3-1.5-41.3,1.5-51.7
	c9.5-32.8,36.6-57.3,72.6-65.5C1022,984.1,1047.6,984.8,1057.6,987.5z M1461.9,987.7c36.9,10,60.4,38.8,67,82
	c1.2,7.3,1.5,20.5,1.5,57.7v48.3h-98h-98v-48.3c0-50.9,0.5-58.4,5-74.7c2.8-10.3,11.9-28.2,18.3-36c13.5-16.6,33.5-27.8,56.2-31.3
	c1.7-0.3,11.3-0.4,21.5-0.2C1450.6,985.5,1455.3,985.9,1461.9,987.7z"/>
<path class="st0" d="M1872.4,1009.2v203.5h18.5h18.5l-0.2-203.3l-0.3-203.2l-18.2-0.3l-18.3-0.2V1009.2z"/>
<path class="st0" d="M1387.1,853.2c-13.9,5.3-20.9,22.1-14.7,35c2.5,5.1,8.7,11.1,13.7,13.1c5.8,2.5,14.6,2,20.8-1.1
	c19-9.3,19-35.9,0-45.7C1401.8,851.9,1392.2,851.2,1387.1,853.2z"/>
<path class="st0" d="M1460.1,853.2c-13.9,5.3-20.9,22.1-14.7,35c2.5,5.1,8.7,11.1,13.7,13.1c5.8,2.5,14.6,2,20.8-1.1
	c19-9.3,19-35.9,0-45.7C1474.8,851.9,1465.2,851.2,1460.1,853.2z"/>
<path class="st0" d="M82.4,861.6c-10.3,3.2-17.6,11.9-18.7,22.6c-1.5,14.8,10.5,27.7,25.7,27.6c7.6,0,13.4-2.6,18.5-8.3
	c4.9-5.3,6.6-9.7,6.6-17C114.6,869.8,98,856.9,82.4,861.6z"/>
<path class="st0" d="M155.4,861.6c-10.3,3.2-17.6,11.9-18.7,22.6c-1.5,14.8,10.5,27.7,25.7,27.6c7.6,0,13.4-2.6,18.5-8.3
	c4.9-5.3,6.6-9.7,6.6-17C187.6,869.8,171,856.9,155.4,861.6z"/>
<path class="st0" d="M35.4,964.4c-1.4,0.2-5.4,1.4-9,2.5c-9,2.9-17.6,11.4-21.1,20.8l-2.4,6.5l-0.3,109.2l-0.3,109.3h288.8h288.8
	l3,4.1c4.4,6.1,18.5,19,26.8,24.5c32,21.6,71.1,28.3,108.8,18.9c32.6-8.2,61.3-28.8,79.4-57.1c8.9-13.9,15.9-31.7,19.2-48.9
	c2.5-13.5,2.3-36.9-0.6-50.5c-5.7-27-17.6-48.8-37-68.1c-19.4-19.2-41.9-31.2-68.9-36.6c-12-2.4-38.4-2.4-50.4,0
	c-25.6,5.1-48.4,16.8-66.7,34.3c-10,9.5-14.6,15.1-22.5,27.7c-14.2,22.7-21.5,54.1-18.7,81.2c1,9.8,4.4,26.2,6.6,31.7
	c0.7,1.7-2.7,1.8-62.4,1.8h-63.1v-106v-106h-18.5h-18.5v106v106h-64.5h-64.5v-106v-106l-114.7,0.1C89.5,963.9,36.8,964.2,35.4,964.4
	z M230.4,1088.2v87.5h-95.5H39.4v-83.8c0.1-89.8-0.1-86.9,5.1-89.8c1.9-1.1,19.9-1.3,94.2-1.4h91.7V1088.2z M710.4,1036.6
	c32.5,8.5,57.3,32,67.3,63.7c10.9,34.5,2.1,71.4-23.3,97.4c-13.3,13.6-28.1,22.4-46,27.1c-11.1,2.9-32.8,3.2-43.4,0.6
	c-22.4-5.6-43.1-19.4-57.2-38c-6.1-8-13.8-24.1-16.6-34.2c-3.1-11.6-3.1-33.5,0-45.8c4.7-18.8,12.5-32.4,26.6-46.2
	c13.7-13.4,28.8-21.5,47.6-25.6C677.2,1033,698.4,1033.5,710.4,1036.6z"/>
<path class="st0" d="M373.5,1264.9c-19.9,3.5-27.8,27.7-13.7,42.6c15.7,16.8,43.8,5.4,43.7-17.6c0-7-1.6-11.5-6-16.5
	C391.2,1266.2,382.8,1263.3,373.5,1264.9z"/>
<path class="st0" d="M446.5,1264.9c-19.9,3.5-27.8,27.7-13.7,42.6c15.7,16.8,43.8,5.4,43.7-17.6c0-7-1.6-11.5-6-16.5
	C464.2,1266.2,455.8,1263.3,446.5,1264.9z"/>
<g>
	<path class="st1" d="M362.4,1456.7v33.5v33.5h-13.5h-13.4l0.6-5c1.2-10.5-4.8-20.6-14.9-25c-9.3-4-20.8-1.3-27.6,6.4
		c-4.1,4.7-6.6,13.1-5.7,19.1l0.7,4.5h-11h-11.1l-0.3-17.1c-0.4-22.5,1.6-20.9-25.2-20.9h-20.2l-8.2,6.5c-4.5,3.6-8.4,6.5-8.7,6.5
		s-0.5-2.9-0.5-6.5v-6.5h-3.5h-3.5v19v19h-13h-13v-19v-19h-3.5h-3.5v32.5v32.5h-10h-10v3.6v3.6l11.6-0.4
		c15.2-0.4,15.4-0.6,15.4-15.9v-10.9h61.3c61.2,0,61.4,0,63.3,2.1c4.9,5.4,17.3,8.4,24.8,5.9c2-0.6,5.7-2.7,8.2-4.6l4.4-3.4h18.5
		h18.5v-37v-37h-3.5H362.4z M259.4,1508.2v15.5h-28h-28v-8.4v-8.4l8.8-7.1l8.7-7h19.3l19.2-0.1V1508.2z M327.2,1524.2
		c-6,10.3-20.4,11.4-28.5,2.2c-12.4-14.1,4.7-34.3,21.7-25.7c5.6,2.8,8.3,7.2,8.7,13.9C329.4,1519.1,329,1521,327.2,1524.2z"/>
	<polygon class="st1" points="385.4,1456.7 385.4,1493.7 385.4,1530.7 388.9,1530.7 392.4,1530.7 392.4,1493.7 392.4,1456.7 
		388.9,1456.7 	"/>
	<path class="st1" d="M750.4,1456.7v33.5v33.5h-16.5h-16.5v-9.8c0-16.3-3.4-23.6-12.8-28c-7.5-3.4-17-2.8-23.9,1.4
		c-7.5,4.6-9.7,10.1-10.2,24.6l-0.3,11.8h-12.8h-12.8l-0.3-12.3c-0.4-11.2-0.6-12.6-3.2-16.9c-8.5-14.5-32.3-14.3-39.8,0.4
		c-4.7,9.2-3,23.6,3.4,30.1c4.5,4.4,9.4,5.7,22.1,5.7h10.6v10v10h-16h-16v3.6v3.5l17.6-0.3c22.1-0.4,21.4,0.2,21.4-15.9v-10.9h56.5
		h56.5v-37v-37h-3.5H750.4z M638.4,1523.7h-12.2c-13.6,0-17.3-1.2-20.1-6.7c-5.4-10.5-1.2-23.3,8.8-26.8c4.9-1.7,6-1.8,10.7-0.5
		c4.8,1.4,9.7,5.5,11.4,9.7c0.9,2,1.4,7.1,1.4,13.8V1523.7z M711.4,1523.7h-17.5h-17.5v-9.3c0-5,0.5-10.9,1.1-13
		c1.4-5,5.5-9.5,10.4-11.2c4.8-1.7,6.9-1.8,11.6-0.5c8.2,2.3,11.9,9.7,11.9,24V1523.7z"/>
	<polygon class="st1" points="773.4,1456.7 773.4,1493.7 773.4,1530.7 776.9,1530.7 780.4,1530.7 780.4,1493.7 780.4,1456.7 
		776.9,1456.7 	"/>
	<path class="st1" d="M920.4,1456.7v33.5v33.5h-14h-13.9l0.6-5c1.7-14.8-11-28.1-25.7-26.7c-3.1,0.2-7.5,1.4-9.7,2.5
		c-4.3,2.2-9.7,7.8-10.8,11.1c-0.6,1.9-1.4,2.1-9.6,2.1s-9.2,0.2-11.4,2.5l-2.5,2.4v22.6v22.5h3.5h3.5v-21.5v-21.5h6.9h6.9l0.7,4.2
		c2,11.7,10.5,19.4,22.5,20.5c6.9,0.7,11.6-0.8,17.6-5.3l4.4-3.4h19h19v-37v-37h-3.5H920.4z M884.2,1524.2
		c-5.6,9.6-18.9,11.4-27.2,3.7c-14.5-13.6,2.4-36.4,20.4-27.2c5.6,2.8,8.3,7.2,8.7,13.9C886.4,1519.1,886,1521,884.2,1524.2z"/>
	<path class="st1" d="M987.9,1523.7l-4.2-7.9c-4-7.3-4.3-8.5-4.3-15.5v-7.6h16h16v-3.5v-3.5h-17c-16.8,0-17.1,0-19.5,2.5
		c-2.3,2.2-2.5,3.2-2.5,11.6c0,9,0.1,9.5,4,16c2.2,3.7,4,7,4,7.3s-6.7,0.6-15,0.6h-15v-33.5v-33.5h-3.5h-3.5v37v37h39h39v-3.5v-3.5
		h-16.7H987.9z"/>
	<path class="st1" d="M1131.4,1523.7v-33.5v-33.5h-3.5h-3.5v33.5v33.5h-10h-10v3.5v3.5h14h14v10v10h-30.5h-30.5v-18.5v-18.5h-3.5
		h-3.5v19.4c0,17.6,0.2,19.6,1.9,21.7l1.9,2.4h33.7h33.7l1.9-2.4c1.7-2,1.9-4,1.9-16.7v-14.4h-4H1131.4z"/>
	<polygon class="st1" points="1162.4,1530.7 1162.4,1493.7 1162.4,1456.7 1158.9,1456.7 1155.4,1456.7 1155.4,1493.7 1155.4,1530.7 
		1158.9,1530.7 	"/>
	<path class="st1" d="M1540.4,1456.7v33.5v33.5h-13.5h-13.4l0.6-5c1.2-10.5-4.8-20.6-14.9-25c-9.3-4-20.8-1.3-27.6,6.4
		c-4.1,4.7-6.6,13.1-5.7,19.1l0.7,4.5h-20.3h-20.4l-4.2-7.9c-4-7.3-4.3-8.5-4.3-15.5v-7.6h16h16v-3.5v-3.5h-17
		c-16.8,0-17.1,0-19.5,2.5c-2.3,2.2-2.5,3.2-2.5,11.6c0,9,0.1,9.5,4,16c2.2,3.7,4,7,4,7.3s-7,0.6-15.5,0.6h-15.5v-19v-19h-3.5h-3.5
		v32.5v32.5h-10h-10v3.6v3.6l11.6-0.4c15.2-0.4,15.4-0.6,15.4-15.9v-10.9h41.8c41.3,0,41.9,0,43.8,2.1c4.9,5.4,17.3,8.4,24.8,5.9
		c2-0.6,5.7-2.7,8.2-4.6l4.4-3.4h18.5h18.5v-37v-37h-3.5H1540.4z M1505.2,1524.2c-6,10.3-20.4,11.4-28.5,2.2
		c-12.4-14.1,4.7-34.3,21.7-25.7c5.6,2.8,8.3,7.2,8.7,13.9C1507.4,1519.1,1507,1521,1505.2,1524.2z"/>
	<polygon class="st1" points="1563.4,1456.7 1563.4,1493.7 1563.4,1530.7 1566.9,1530.7 1570.4,1530.7 1570.4,1493.7 1570.4,1456.7 
		1566.9,1456.7 	"/>
	<path class="st1" d="M1744.4,1485.7v19v19h-13.5h-13.5v-19v-19h-3.5h-3.5v19v19h-12.5h-12.5v-33.5v-33.5h-3.5h-3.5v33.5v33.5h-29.5
		h-29.5v-14v-14h-3.5h-3.5v14.9c0,13.5,0.2,15.1,2.1,17.5l2,2.6h67.5h67.4v-22.5v-22.5h-3.5H1744.4z"/>
	<polygon class="st1" points="1767.4,1456.7 1767.4,1493.7 1767.4,1530.7 1770.9,1530.7 1774.4,1530.7 1774.4,1493.7 1774.4,1456.7 
		1770.9,1456.7 	"/>
	<path class="st1" d="M691.4,1467.2c-1.5-1.8-5.1-2-6.8-0.3c-1.7,1.7-1.5,5.3,0.3,6.8C688.7,1476.8,694.5,1471,691.4,1467.2z"/>
	<path class="st1" d="M704.4,1467.2c-1.5-1.8-5.1-2-6.8-0.3c-1.7,1.7-1.5,5.3,0.3,6.8C701.7,1476.8,707.5,1471,704.4,1467.2z"/>
	<path class="st1" d="M1331.9,1473.7c1.8-1.5,2-5.1,0.3-6.8c-1.7-1.7-5.3-1.5-6.8,0.3C1322.3,1471,1328.1,1476.8,1331.9,1473.7z"/>
	<path class="st1" d="M1656.4,1486.7v-6c0-5.6-0.2-6.1-2.6-7c-1.4-0.6-3.7-1-5.1-1h-2.6l2.1-2.3c1.7-1.8,1.9-2.6,1-3.5
		c-1.7-1.7-2-1.6-6.1,2.6c-2.4,2.5-3.7,4.7-3.7,6.5c0,2.7,0.1,2.7,6.5,2.7c3.7,0,6.5,0.4,6.5,1s-3.2,1-7.5,1h-7.5v3v3h9.5H1656.4z"
		/>
	<path class="st1" d="M54.9,1475.7c2.7,0,4.5-1.8,4.5-4.5c0-4.2-4.4-5.9-7.4-2.9S50.7,1475.7,54.9,1475.7z"/>
	<path class="st1" d="M67.9,1475.7c2.7,0,4.5-1.8,4.5-4.5c0-4.2-4.4-5.9-7.4-2.9C62,1471.3,63.7,1475.7,67.9,1475.7z"/>
	<path class="st1" d="M450.9,1475.7c2.7,0,4.5-1.8,4.5-4.5c0-4.2-4.4-5.9-7.4-2.9S446.7,1475.7,450.9,1475.7z"/>
	<path class="st1" d="M463.9,1475.7c2.7,0,4.5-1.8,4.5-4.5c0-4.2-4.4-5.9-7.4-2.9S459.7,1475.7,463.9,1475.7z"/>
	<path class="st1" d="M1219.9,1475.7c2.7,0,4.5-1.8,4.5-4.5c0-4.2-4.4-5.9-7.4-2.9S1215.7,1475.7,1219.9,1475.7z"/>
	<path class="st1" d="M1232.9,1475.7c2.7,0,4.5-1.8,4.5-4.5c0-4.2-4.4-5.9-7.4-2.9S1228.7,1475.7,1232.9,1475.7z"/>
	<path class="st1" d="M1706.9,1475.7c2.7,0,4.5-1.8,4.5-4.5c0-4.2-4.4-5.9-7.4-2.9S1702.7,1475.7,1706.9,1475.7z"/>
	<path class="st1" d="M1719.9,1475.7c2.7,0,4.5-1.8,4.5-4.5c0-4.2-4.4-5.9-7.4-2.9S1715.7,1475.7,1719.9,1475.7z"/>
	<path class="st1" d="M1349.1,1494.5c-3.8-6.5-9.8-9.9-18.5-10.5c-5.9-0.4-7.4-0.1-12.2,2.4c-6,3.1-9.4,7.2-11.1,13.7
		c-1.6,5.7-0.5,13.8,2.5,19.1l2.5,4.5h-15h-14.9v-19v-19h-3.5h-3.5v19v19h-11.5h-11.5v-19v-19h-21.5c-28.7,0-26.5-2.1-26.5,25v20
		h74.1h74.1l-0.4-15.8C1351.9,1499.8,1351.8,1499,1349.1,1494.5z M1245.4,1508.2v15.5h-17h-17v-15.5v-15.5h17h17V1508.2z
		 M1346.4,1523.7h-11c-9,0-11.8-0.4-14.9-2c-12.7-6.4-11.1-26.7,2.4-31.5c4.9-1.7,6-1.8,10.7-0.5c4.8,1.4,9.7,5.5,11.4,9.7
		c0.9,2,1.4,7.1,1.4,13.8V1523.7z"/>
	<path class="st1" d="M1864.9,1485.7h-3.5v19v19H1849h-12.4l-0.3-12.3c-0.4-11.2-0.6-12.6-3.2-16.9c-3.9-6.6-9.8-10-18.5-10.4
		c-3.7-0.2-8,0.1-9.7,0.7c-8.3,3.1-13.4,10.2-14.2,19.9c-1.1,11.8,4.5,22.1,13.4,24.8c2.2,0.7,8.8,1.2,14.7,1.2h10.6v10v10h-16h-16
		v3.6v3.5l17.6-0.3c22.1-0.4,21.4,0.2,21.4-15.9v-10.9h16h16v-22.5v-22.5H1864.9z M1830.4,1523.7h-12.2c-13.6,0-17.3-1.2-20.1-6.7
		c-5.4-10.5-1.2-23.3,8.8-26.8c4.9-1.7,6-1.8,10.7-0.5c4.8,1.4,9.7,5.5,11.4,9.7c0.9,2,1.4,7.1,1.4,13.8V1523.7z"/>
	<path class="st1" d="M129.4,1485.7v19v19h-21h-21v-19v-19H65.9c-21.6,0-21.6,0-24,2.5c-2.5,2.4-2.5,2.5-2.5,22.5v20h48.5h48.5
		v-22.5v-22.5h-3.5H129.4z M80.4,1508.2v15.5h-17h-17v-15.5v-15.5h17h17V1508.2z"/>
	<path class="st1" d="M534.9,1509.2c-1.1,3.6-1.4,7-1,10l0.7,4.5H524h-10.6v-19v-19h-3.5h-3.5v19v19h-11.5h-11.5v-19v-19h-21.5
		c-21.6,0-21.6,0-24,2.5c-2.5,2.4-2.5,2.5-2.5,22.5v20h51.8c51.5,0,51.9,0,53.8,2.1c4.9,5.5,15.9,8.2,23.9,5.9
		c6.4-1.8,13.9-8.7,15.9-14.7c3-8.9,1.5-16.8-4.5-23.7C563.5,1485.8,540.2,1490.8,534.9,1509.2z M476.4,1508.2v15.5h-17h-17v-15.5
		v-15.5h17h17V1508.2z M573.2,1524.2c-6,10.3-20.4,11.4-28.5,2.2c-12.4-14.1,4.7-34.3,21.7-25.7c5.6,2.8,8.3,7.2,8.7,13.9
		C575.4,1519.1,575,1521,573.2,1524.2z"/>
	<path class="st1" d="M500,1541.3c-3,3-1.3,7.4,2.9,7.4c2.7,0,4.5-1.8,4.5-4.5C507.4,1540,503,1538.3,500,1541.3z"/>
	<path class="st1" d="M513,1541.3c-3,3-1.3,7.4,2.9,7.4c2.7,0,4.5-1.8,4.5-4.5C520.4,1540,516,1538.3,513,1541.3z"/>
	<path class="st1" d="M1163.9,1557.7c-6.1,0-6.5-0.1-8-3c-0.8-1.6-1.5-4.5-1.5-6.5v-3.5h7c6.8,0,7-0.1,7-2.5c0-2.5-0.1-2.5-8.3-2.5
		c-5.1,0-8.8,0.5-9.5,1.2c-1.7,1.7-1.5,10.3,0.3,13.8l1.6,3h-3.1c-2.7,0-3.1,0.3-2.8,2.2c0.3,2.2,0.7,2.3,12.1,2.6l11.7,0.3v-2.6
		C1170.4,1557.8,1170.2,1557.7,1163.9,1557.7z"/>
	<path class="st1" d="M1269,1541.3c-3,3-1.3,7.4,2.9,7.4c2.7,0,4.5-1.8,4.5-4.5C1276.4,1540,1272,1538.3,1269,1541.3z"/>
	<path class="st1" d="M1282,1541.3c-3,3-1.3,7.4,2.9,7.4c2.7,0,4.5-1.8,4.5-4.5C1289.4,1540,1285,1538.3,1282,1541.3z"/>
	<path class="st1" d="M1744,1541.3c-3,3-1.3,7.4,2.9,7.4c2.7,0,4.5-1.8,4.5-4.5C1751.4,1540,1747,1538.3,1744,1541.3z"/>
	<path class="st1" d="M1861,1541.3c-3,3-1.3,7.4,2.9,7.4c2.7,0,4.5-1.8,4.5-4.5C1868.4,1540,1864,1538.3,1861,1541.3z"/>
	<path class="st1" d="M105.4,1542.2c-3.1,3.8,2.7,9.6,6.5,6.5c1.8-1.5,2-5.1,0.3-6.8C110.5,1540.2,106.9,1540.4,105.4,1542.2z"/>
	<path class="st1" d="M119.6,1541.9c-1.7,1.7-1.5,5.3,0.3,6.8c3.8,3.1,9.6-2.7,6.5-6.5C124.9,1540.4,121.3,1540.2,119.6,1541.9z"/>
</g>
</svg>
